SplineFontDB: 3.2
FontName: Mukti
FullName: Mukti
FamilyName: Mukti
Weight: Medium
Copyright: GNU GPL3+ FE (c) Mukta Bangla Font Project, Dr Anirban Mitra 2002-24. For detail licence agreement see www.gnu.org/licences/gpl.txt\nAs a special exception, if you create a document which uses this font, and embed this font or unaltered portions of this font into the document, this font does not by itself cause the resulting document to be covered by the GNU General Public License. This exception does not however invalidate any other reasons why the document might be covered by the GNU General Public License. If you modify this font, you may extend this exception to your version of the font, but you are not obligated to do so. If you do not wish to do so, delete this exception statement from your version
FontLog: "muktiregular3.0beta1+AAoACgAA-v3.0.3"
Version: 3.4.3;December 5 2024
ItalicAngle: 0
UnderlinePosition: -166
UnderlineWidth: 73
Ascent: 800
Descent: 200
InvalidEm: 0
LayerCount: 2
Layer: 0 0 "Back" 1
Layer: 1 0 "Fore" 0
XUID: [1021 498 675293083 873107]
StyleMap: 0x0040
FSType: 0
OS2Version: 3
OS2_WeightWidthSlopeOnly: 0
OS2_UseTypoMetrics: 0
CreationTime: 1138213189
ModificationTime: 1733374390
PfmFamily: 33
TTFWeight: 500
TTFWidth: 5
LineGap: 0
VLineGap: 0
Panose: 0 0 0 0 0 0 0 0 0 0
OS2TypoAscent: 1241
OS2TypoAOffset: 0
OS2TypoDescent: 438
OS2TypoDOffset: 0
OS2TypoLinegap: 0
OS2WinAscent: 1241
OS2WinAOffset: 0
OS2WinDescent: 438
OS2WinDOffset: 0
HheadAscent: 1059
HheadAOffset: 0
HheadDescent: -256
HheadDOffset: 0
OS2SubXSize: 650
OS2SubYSize: 700
OS2SubXOff: 0
OS2SubYOff: 140
OS2SupXSize: 650
OS2SupYSize: 700
OS2SupXOff: 0
OS2SupYOff: 480
OS2StrikeYSize: 50
OS2StrikeYPos: 259
OS2CapHeight: 1493
OS2XHeight: 1073
OS2Vendor: 'fbf '
OS2CodePages: 00000001.80000000
OS2UnicodeRanges: 80018003.00002002.00000000.00000000

StartChar: .notdef
Encoding: 154 -1 0
Width: 431
Flags: W
HStem: 0 33<65 333> 633 33<65 333>
VStem: 33 32<33 633> 333 33<33 633>
LayerCount: 2
Fore
SplineSet
33 0 m 1
 33 666 l 1
 366 666 l 1
 366 0 l 1
 33 0 l 1
65 33 m 1
 333 33 l 1
 333 633 l 1
 65 633 l 1
 65 33 l 1
EndSplineSet
Validated: 1
EndChar

StartChar: exclam
Encoding: 2 33 3
Width: 247
GlyphClass: 2
Flags: W
HStem: 0 104<93 177> 709 20G<94 177>
VStem: 94 83<0 104 330.182 729>
LayerCount: 2
Fore
SplineSet
177 729 m 1
 177 391 l 1
 155 168 l 1
 116 168 l 1
 94 391 l 1
 94 729 l 1
 177 729 l 1
177 104 m 1
 177 0 l 1
 93 0 l 1
 93 104 l 1
 177 104 l 1
EndSplineSet
Validated: 1
EndChar

StartChar: quotedbl
Encoding: 3 34 4
Width: 354
GlyphClass: 2
Flags: W
HStem: 464 245<79 118 239 278>
VStem: 52 93<563.259 709> 79 39<464 498.741> 212 93<563.259 709> 239 39<464 498.741>
LayerCount: 2
Fore
SplineSet
52 709 m 1xc0
 145 709 l 1
 145 598 l 1xc0
 118 464 l 1
 79 464 l 1xa0
 52 598 l 1
 52 709 l 1xc0
212 709 m 1x90
 305 709 l 1
 305 598 l 1x90
 278 464 l 1
 239 464 l 1x88
 212 598 l 1
 212 709 l 1x90
EndSplineSet
Validated: 1
EndChar

StartChar: numbersign
Encoding: 4 35 5
Width: 555
GlyphClass: 2
Flags: W
HStem: -20 21G<77 155.697 277 357.697> 191 68<14 115 204 315 404 509> 433 68<50 159 248 359 449 542>
LayerCount: 2
Fore
SplineSet
484 697 m 1
 449 501 l 1
 542 501 l 1
 542 433 l 1
 436 433 l 1
 404 259 l 1
 509 259 l 1
 509 191 l 1
 393 191 l 1
 354 -20 l 1
 277 -20 l 1
 315 191 l 1
 191 191 l 1
 152 -20 l 1
 77 -20 l 1
 115 191 l 1
 14 191 l 1
 14 259 l 1
 127 259 l 1
 159 433 l 1
 50 433 l 1
 50 501 l 1
 171 501 l 1
 208 697 l 1
 284 697 l 1
 248 501 l 1
 373 501 l 1
 408 697 l 1
 484 697 l 1
359 433 m 1
 235 433 l 1
 204 259 l 1
 329 259 l 1
 359 433 l 1
EndSplineSet
Validated: 1
EndChar

StartChar: dollar
Encoding: 5 36 6
Width: 555
GlyphClass: 2
Flags: W
HStem: -23 69<178.815 245 304 374.302> 318 87<191.703 245> 645 71<179.94 245 304 371.074>
VStem: 35 79<181 208> 48 81<461.07 556> 245 59<-126 -21.2771 46 309 405 645 714.082 770> 419 79<519 595.467> 438 82<107.159 250.615>
LayerCount: 2
Fore
SplineSet
245 770 m 1xec
 304 770 l 1
 304 716 l 1
 387 710 444 676 476 615 c 0
 491 588 498 556 498 519 c 1
 419 519 l 1xee
 418 570 399 608 361 630 c 0
 345 639 326 645 304 646 c 1
 304 397 l 1
 362 382 406 366 435 349 c 0
 491 317 519 266 520 195 c 1
 518 111 487 50 428 12 c 0
 395 -8 354 -19 304 -23 c 1
 304 -126 l 1
 245 -126 l 1
 245 -23 l 1
 142 -16 77 26 48 104 c 0xed
 39 129 34 157 34 187 c 0
 34 191 35 195 35 199 c 0
 35 202 35 205 35 208 c 1
 114 208 l 1xf4
 117 181 l 2
 121 141 128 115 139 103 c 0
 162 71 197 52 245 46 c 1
 245 318 l 1
 183 337 141 354 119 370 c 0
 71 404 48 453 48 516 c 0
 48 613 95 676 188 704 c 0
 205 709 224 713 245 716 c 1
 245 770 l 1xec
245 405 m 1
 245 645 l 1
 181 636 143 606 132 556 c 1
 129 526 l 1
 129 466 168 426 245 405 c 1
304 309 m 1
 304 46 l 1
 345 51 375 63 396 83 c 0
 424 110 438 143 438 183 c 0xe5
 438 224 422 254 391 274 c 0
 371 286 343 298 304 309 c 1
EndSplineSet
Validated: 1
EndChar

StartChar: percent
Encoding: 6 37 7
Width: 888
GlyphClass: 2
Flags: W
HStem: -19 70<632.911 752.216> 252 70<625.391 751.594> 343 70<137.236 263.008> 615 70<135.992 262.365> 689 20G<598.163 675>
VStem: 29 69<451.683 571.565> 301 69<452.29 576.719> 518 69<89.2205 212.861> 790 69<89.7669 214.48>
LayerCount: 2
Fore
SplineSet
199 685 m 0
 255 685 300 663 334 619 c 0
 358 591 370 556 370 515 c 0
 370 514 370 513 370 512 c 0
 370 459 349 416 307 382 c 0
 275 356 240 343 200 343 c 0
 146 343 102 364 67 406 c 0
 42 438 29 473 29 514 c 0
 29 568 50 612 92 647 c 0
 124 672 159 685 199 685 c 0
199 615 m 0
 163 615 135 600 115 569 c 1
 114 569 l 1
 104 552 98 534 98 514 c 0
 98 479 113 451 143 430 c 0
 160 419 179 413 200 413 c 0
 236 413 264 428 284 458 c 0
 295 475 301 493 301 513 c 0
 301 551 285 580 253 600 c 0
 237 610 219 615 199 615 c 0
609 709 m 1
 675 709 l 1
 280 -20 l 1
 214 -20 l 1
 609 709 l 1
688 322 m 0
 745 322 790 300 824 256 c 0
 847 225 859 190 859 150 c 0
 859 97 838 54 796 20 c 0
 765 -6 729 -19 689 -19 c 0
 635 -19 591 2 556 44 c 0
 531 75 518 111 518 152 c 0
 518 206 539 250 582 284 c 0
 613 309 649 322 688 322 c 0
688 252 m 0
 652 252 624 237 604 207 c 0
 593 190 587 172 587 152 c 0
 587 151 587 151 587 150 c 0
 587 126 594 105 608 89 c 0
 615 81 624 74 635 67 c 0
 635 66 635 66 636 66 c 1
 636 65 636 65 637 65 c 0
 653 56 670 51 689 51 c 0
 725 51 753 66 773 96 c 0
 784 112 790 130 790 150 c 0
 790 188 774 217 742 237 c 0
 731 244 718 249 704 251 c 0
 701 251 696 251 688 252 c 0
EndSplineSet
Validated: 1
EndChar

StartChar: ampersand
Encoding: 7 38 8
Width: 641
GlyphClass: 2
Flags: W
HStem: -23 78<169.466 320.224> -0 21G<486.103 611> 528 21G<107.333 108.5> 639 70<213.329 334.534>
VStem: 26 84<111.707 251.646> 107 82<490.99 614.871> 362 79<494.63 611.887> 467 80<236.034 334>
LayerCount: 2
Fore
SplineSet
259 431 m 1x37
 302 458 331 481 345 500 c 0
 356 516 362 534 362 554 c 0
 362 589 347 614 317 629 c 0
 305 636 291 639 275 639 c 0
 235 639 208 623 195 589 c 0
 191 579 189 566 189 553 c 0
 189 535 192 521 199 509 c 0
 207 494 227 467 259 431 c 1x37
392 137 m 1
 232 337 l 1
 184 306 151 279 134 255 c 0
 118 234 110 210 110 183 c 0
 110 140 128 105 164 80 c 0
 187 63 213 55 241 55 c 0xbb
 262 55 282 59 302 67 c 0
 329 79 359 102 392 137 c 1
107 552 m 2x37
 109 528 l 2
 108 535 107 543 107 552 c 2x37
107 552 m 1
 107 603 128 644 171 675 c 0
 203 698 238 709 278 709 c 0
 279 709 279 709 280 709 c 0
 320 709 353 700 379 680 c 0
 390 672 400 662 408 651 c 2
 414 642 l 2
 432 617 441 587 441 552 c 0
 441 507 424 468 389 437 c 0
 369 419 340 399 303 378 c 1
 436 215 l 1
 446 233 454 254 460 277 c 0
 465 296 467 312 467 328 c 0
 467 330 467 332 467 334 c 2
 547 334 l 1
 547 272 528 211 489 151 c 1
 611 -0 l 1
 502 -0 l 1x77
 440 78 l 1
 410 49 387 29 371 18 c 0
 333 -8 286 -22 231 -23 c 0
 154 -23 96 4 59 59 c 0
 37 92 26 131 26 176 c 0xbb
 26 235 47 282 88 319 c 0
 111 340 144 364 188 389 c 1
 141 448 114 502 107 552 c 1
EndSplineSet
Validated: 5
EndChar

StartChar: quotesingle
Encoding: 8 39 9
Width: 190
GlyphClass: 2
Flags: W
HStem: 464 245<75 115>
VStem: 48 94<563.259 709> 75 40<464 498.741>
LayerCount: 2
Fore
SplineSet
48 709 m 1xc0
 142 709 l 1
 142 598 l 1xc0
 115 464 l 1
 75 464 l 1xa0
 48 598 l 1
 48 709 l 1xc0
EndSplineSet
Validated: 1
EndChar

StartChar: parenleft
Encoding: 9 40 10
Width: 332
GlyphClass: 2
Flags: W
HStem: 709 20G<201 291>
VStem: 73 80<88.7409 429.364>
LayerCount: 2
Fore
SplineSet
153 259 m 0
 153 95 200 -63 291 -212 c 1
 235 -212 l 1
 166 -122 118 -17 91 102 c 0
 79 156 73 209 73 259 c 0
 73 310 79 364 92 419 c 0
 119 537 167 640 235 729 c 1
 291 729 l 1
 226 624 184 511 165 389 c 0
 158 346 153 303 153 259 c 0
EndSplineSet
Validated: 1
EndChar

StartChar: parenright
Encoding: 10 41 11
Width: 332
GlyphClass: 2
Flags: W
HStem: 709 20G<38 126.5>
VStem: 174 81<93.1899 425.672>
LayerCount: 2
Fore
SplineSet
92 -212 m 1
 38 -212 l 1
 102 -108 144 6 164 128 c 0
 171 171 174 215 174 258 c 0
 174 423 129 580 38 729 c 1
 92 729 l 1
 161 638 209 533 236 415 c 0
 249 361 255 309 255 258 c 0
 255 207 248 153 235 98 c 0
 208 -20 160 -123 92 -212 c 1
EndSplineSet
Validated: 1
EndChar

StartChar: asterisk
Encoding: 11 42 12
Width: 388
GlyphClass: 2
Flags: W
HStem: 441 288
VStem: 160 63<617 729>
LayerCount: 2
Fore
SplineSet
160 729 m 1
 223 729 l 1
 217 617 l 1
 324 655 l 1
 342 596 l 1
 234 566 l 1
 305 477 l 1
 253 441 l 1
 191 534 l 1
 128 441 l 1
 79 477 l 1
 147 566 l 1
 40 596 l 1
 59 655 l 1
 165 617 l 1
 160 729 l 1
EndSplineSet
Validated: 1
EndChar

StartChar: plus
Encoding: 12 43 13
Width: 583
GlyphClass: 2
Flags: W
HStem: -10 21G<257 327> 197 70<50 257 327 534>
VStem: 257 70<-10 197 267 474>
LayerCount: 2
Fore
SplineSet
534 267 m 1
 534 197 l 1
 327 197 l 1
 327 -10 l 1
 257 -10 l 1
 257 197 l 1
 50 197 l 1
 50 267 l 1
 257 267 l 1
 257 474 l 1
 327 474 l 1
 327 267 l 1
 534 267 l 1
EndSplineSet
Validated: 1
EndChar

StartChar: comma
Encoding: 13 44 14
Width: 303
GlyphClass: 2
Flags: W
HStem: 114 49<97.2832 184.766>
VStem: 187 46<37.7169 111.468>
LayerCount: 2
Fore
SplineSet
170 162 m 0
 212 151 233 127 233 90 c 0
 233 74 229 58 221 42 c 1
 205 1 175 -35 134 -66 c 1
 119 -67 109 -64 104 -57 c 0
 101 -53 100 -49 100 -43 c 0
 100 -38 101 -34 104 -28 c 1
 117 -19 132 -3 150 18 c 0
 174 47 187 69 187 86 c 0
 187 99 180 107 165 112 c 0
 159 114 152 114 145 114 c 0
 144 114 143 114 141 114 c 0
 125 113 117 112 116 112 c 0
 103 117 97 125 97 137 c 0
 97 147 101 154 111 160 c 1
 133 162 151 164 163 163 c 0
 166 163 168 162 170 162 c 0
EndSplineSet
Validated: 33
EndChar

StartChar: period
Encoding: 15 46 15
Width: 277
GlyphClass: 2
Flags: W
HStem: 0 104<87 191>
VStem: 87 104<0 104>
LayerCount: 2
Fore
SplineSet
191 104 m 1
 191 0 l 1
 87 0 l 1
 87 104 l 1
 191 104 l 1
EndSplineSet
Validated: 1
EndChar

StartChar: slash
Encoding: 16 47 16
AltUni2: 002044.ffffffff.0
Width: 277
GlyphClass: 2
Flags: W
HStem: -20 21G<-8 53.3284> 709 20G<222.672 284>
VStem: -8 292
LayerCount: 2
Fore
SplineSet
229 729 m 1
 284 729 l 1
 47 -20 l 1
 -8 -20 l 1
 229 729 l 1
EndSplineSet
Validated: 1
EndChar

StartChar: zero
Encoding: 17 48 17
Width: 555
GlyphClass: 2
Flags: W
HStem: -23 73<208.898 340.991> 631 78<209.715 340.562>
VStem: 43 90<159.427 522.811> 417 90<160.005 524.357>
LayerCount: 2
Fore
SplineSet
275 709 m 2
 344 709 397 684 436 634 c 0
 437 633 437 632 438 631 c 0
 484 569 507 470 507 337 c 0
 507 156 461 43 369 -3 c 0
 341 -16 310 -23 275 -23 c 0
 158 -23 85 49 56 193 c 0
 47 236 43 286 43 343 c 0
 43 577 115 699 261 709 c 1
 275 709 l 2
275 631 m 0
 180 631 133 535 133 342 c 0
 133 147 180 50 273 50 c 0
 352 50 398 114 412 242 c 0
 415 272 417 306 417 345 c 0
 417 535 370 631 275 631 c 0
EndSplineSet
Validated: 1
EndChar

StartChar: one
Encoding: 18 49 18
Width: 460
GlyphClass: 2
Flags: W
HStem: 0 21G<229 318> 505 63<73 175.129> 689 20G<253.077 318>
VStem: 229 89<0 505>
LayerCount: 2
Fore
SplineSet
229 505 m 1
 73 505 l 1
 73 568 l 1
 138 576 183 589 208 606 c 0
 226 620 239 646 251 683 c 2
 260 709 l 1
 318 709 l 1
 318 0 l 1
 229 0 l 1
 229 505 l 1
EndSplineSet
Validated: 1
EndChar

StartChar: two
Encoding: 19 50 19
Width: 555
GlyphClass: 2
Flags: W
HStem: 0 87<132 505> 632 77<202.465 359.031>
VStem: 49 89<463 563.353> 420 85<426.316 573.193>
LayerCount: 2
Fore
SplineSet
505 87 m 1
 505 0 l 1
 34 0 l 1
 39 85 57 150 90 195 c 0
 119 232 166 269 232 307 c 2
 325 359 l 2
 388 395 419 442 420 499 c 0
 420 547 400 584 360 610 c 0
 337 625 310 632 280 632 c 0
 230 632 193 613 166 575 c 0
 164 571 161 567 159 563 c 0
 148 542 141 508 138 463 c 1
 49 463 l 1
 51 530 64 581 87 617 c 0
 127 678 193 709 284 709 c 0
 350 709 403 690 444 653 c 0
 488 614 511 563 511 501 c 0
 511 413 460 342 360 287 c 2
 261 233 l 2
 226 212 199 194 181 176 c 0
 154 152 138 122 132 87 c 1
 505 87 l 1
EndSplineSet
Validated: 1
EndChar

StartChar: three
Encoding: 20 51 20
Width: 555
GlyphClass: 2
Flags: W
HStem: -23 78<181.508 356.618> 326 74<221 349.642> 632 76<192.357 347.228>
VStem: 32 88<120.668 206> 46 88<480 576.961> 395 89<442.201 587.041> 416 89<115.143 276.516>
LayerCount: 2
Fore
SplineSet
221 325 m 1xf2
 221 400 l 1
 277 401 315 406 337 415 c 0
 374 430 394 462 395 511 c 0
 395 568 372 605 325 623 c 0
 309 629 291 632 270 632 c 0
 218 632 180 614 157 579 c 1
 155 578 l 1
 142 556 135 523 134 480 c 1
 46 480 l 1
 49 620 112 696 236 708 c 1
 269 709 l 1
 362 709 424 678 459 616 c 0
 476 587 484 553 484 514 c 0xec
 484 442 452 393 386 367 c 1
 448 346 486 310 499 259 c 0
 504 242 505 221 505 198 c 0
 505 116 474 55 412 15 c 0
 372 -10 323 -23 266 -23 c 0
 167 -23 99 11 62 80 c 0
 45 112 35 154 32 206 c 1
 120 206 l 1
 125 118 162 69 232 58 c 0
 243 56 256 55 269 55 c 0
 338 55 383 82 404 134 c 0
 411 152 416 173 416 197 c 0
 416 283 367 326 269 326 c 0
 253 325 237 325 221 325 c 1xf2
EndSplineSet
Validated: 1
EndChar

StartChar: four
Encoding: 21 52 21
Width: 555
GlyphClass: 2
Flags: W
HStem: 0 21G<327 415> 170 79<105 327 415 520> 689 20G<335.561 415>
VStem: 327 88<0 170 249 559>
LayerCount: 2
Fore
SplineSet
327 170 m 1
 28 170 l 1
 28 263 l 1
 350 709 l 1
 415 709 l 1
 415 249 l 1
 520 249 l 1
 520 170 l 1
 415 170 l 1
 415 0 l 1
 327 0 l 1
 327 170 l 1
327 249 m 1
 327 559 l 1
 105 249 l 1
 327 249 l 1
EndSplineSet
Validated: 1
EndChar

StartChar: five
Encoding: 22 53 22
Width: 555
GlyphClass: 2
Flags: W
HStem: -23 78<186.997 354.832> 389 78<185.945 350.827> 622 87<181 476>
VStem: 35 88<122.078 174> 422 91<123.213 316.442>
LayerCount: 2
Fore
SplineSet
476 709 m 1
 476 622 l 1
 181 622 l 1
 152 424 l 1
 188 452 232 466 284 467 c 0
 364 467 424 438 467 380 c 0
 497 339 513 290 513 231 c 0
 513 145 483 78 425 30 c 0
 382 -5 331 -23 270 -23 c 0
 196 -23 137 -1 94 44 c 0
 64 75 44 118 35 174 c 1
 123 174 l 1
 144 95 192 55 268 55 c 0
 335 55 382 82 407 136 c 0
 417 159 422 187 422 219 c 0
 422 292 397 342 347 370 c 0
 324 383 298 389 268 389 c 0
 228 389 194 377 167 354 c 0
 158 346 148 335 138 323 c 1
 57 323 l 1
 109 709 l 1
 476 709 l 1
EndSplineSet
Validated: 1
EndChar

StartChar: six
Encoding: 23 54 23
Width: 555
GlyphClass: 2
Flags: W
HStem: -23 78<206.667 357.766> 363 78<203.26 363.117> 524 21G<402.5 498> 631 78<217.628 360.699>
VStem: 43 95<148.801 296.993 362 508.253> 410 88<524 580.278> 423 90<123.97 301.4>
LayerCount: 2
Fore
SplineSet
498 524 m 1xfc
 410 524 l 1xfc
 395 595 355 631 291 631 c 0
 217 631 169 583 146 487 c 0
 137 451 133 410 133 362 c 1
 172 415 226 441 296 441 c 0
 370 441 428 413 469 358 c 0
 498 319 513 271 513 216 c 0xfa
 513 137 486 75 431 29 c 0
 390 -6 340 -23 281 -23 c 0
 202 -23 142 6 103 65 c 0
 64 124 44 206 43 312 c 2
 43 323 l 2
 43 446 64 541 107 608 c 0
 152 675 215 709 297 709 c 0
 374 709 431 678 467 616 c 0
 483 590 493 559 498 524 c 1xfc
285 363 m 0
 228 363 187 341 160 297 c 0
 145 274 138 246 138 214 c 0
 138 157 158 113 199 82 c 0
 223 64 250 55 282 55 c 0
 332 55 371 76 398 118 c 0
 415 144 423 174 423 209 c 0xfa
 423 277 399 323 352 348 c 0
 333 358 310 363 285 363 c 0
EndSplineSet
Validated: 1
EndChar

StartChar: seven
Encoding: 24 55 24
Width: 555
GlyphClass: 2
Flags: W
HStem: 0 21G<138 244.5> 622 87<46 429>
VStem: 138 94<0 80.6211>
LayerCount: 2
Fore
SplineSet
520 709 m 1
 520 635 l 1
 462 558 413 483 374 410 c 0
 304 280 257 144 232 0 c 1
 138 0 l 1
 185 216 282 424 429 622 c 1
 46 622 l 1
 46 709 l 1
 520 709 l 1
EndSplineSet
Validated: 1
EndChar

StartChar: eight
Encoding: 25 56 25
Width: 555
GlyphClass: 2
Flags: W
HStem: -23 78<189.455 359.345> 334 74<195.946 352.84> 631 78<195.803 353.235>
VStem: 37 89<116.005 271.553> 62 89<450.727 585.298> 397 90<459.269 588.526> 422 91<118.557 273.499>
LayerCount: 2
Fore
SplineSet
391 373 m 1xec
 472 334 512 275 513 196 c 0
 513 121 484 64 426 23 c 0
 384 -8 333 -23 274 -23 c 0
 191 -23 128 4 83 59 c 0
 52 97 37 143 37 197 c 0xf2
 37 276 77 334 158 373 c 1
 141 384 127 394 116 403 c 0
 82 431 65 466 62 507 c 1
 62 520 l 2
 62 586 89 637 143 672 c 0
 180 697 223 709 274 709 c 0
 351 709 411 684 450 633 c 0
 475 602 487 564 487 520 c 0
 487 475 472 438 442 410 c 2
 430 399 l 1
 391 373 l 1xec
274 631 m 0
 220 631 184 611 164 572 c 0
 156 557 151 539 151 519 c 0
 151 472 171 440 212 421 c 0
 230 413 251 408 274 408 c 0
 327 408 364 427 384 465 c 0
 385 465 386 465 386 466 c 0
 394 481 397 498 397 518 c 0xec
 397 568 376 602 333 620 c 0
 316 627 296 631 274 631 c 0
274 334 m 0
 215 334 172 313 146 270 c 0
 133 249 126 224 126 195 c 0
 126 140 148 100 192 75 c 0
 215 62 241 55 272 55 c 0
 333 55 376 77 402 120 c 0
 415 141 422 166 422 195 c 0xf2
 422 250 400 290 355 315 c 0
 332 328 305 334 274 334 c 0
EndSplineSet
Validated: 1
EndChar

StartChar: nine
Encoding: 26 57 26
Width: 555
GlyphClass: 2
Flags: W
HStem: -23 78<190.362 293> 245 78<189.045 345.183> 632 77<193.349 342.658>
VStem: 38 89<385.693 562.217> 53 88<105.722 162> 413 95<177.747 324 390.262 537.639>
LayerCount: 2
Fore
SplineSet
53 162 m 1xec
 141 162 l 1xec
 156 91 195 55 259 55 c 0
 333 55 382 103 404 199 c 0
 413 235 417 276 417 324 c 1
 374 273 320 246 255 245 c 0
 180 245 123 273 82 328 c 0
 53 367 38 415 38 470 c 0xf4
 38 549 65 611 120 657 c 0
 161 692 211 709 270 709 c 0
 349 709 409 680 449 621 c 0
 487 562 507 480 508 374 c 2
 508 363 l 2
 508 240 486 145 443 78 c 0
 408 24 358 -9 293 -20 c 1
 253 -23 l 1
 177 -23 120 8 83 70 c 0
 68 97 58 127 53 162 c 1xec
269 632 m 0
 218 631 178 610 151 567 c 0
 135 542 127 512 127 477 c 0xf4
 127 409 151 363 199 338 c 0
 218 328 241 323 266 323 c 0
 321 323 363 345 390 388 c 0
 405 412 413 440 413 472 c 0
 413 530 393 574 352 605 c 0
 327 623 300 632 269 632 c 0
EndSplineSet
Validated: 1
EndChar

StartChar: colon
Encoding: 27 58 27
Width: 245
GlyphClass: 2
Flags: W
HStem: -6 90<104.423 165.624> 224 90<103.423 170.676>
VStem: 90 88<8.42334 70.5774 238.423 307.132>
LayerCount: 2
Fore
SplineSet
135 224 m 0
 122 224 112 229 103 238 c 0
 95 247 90 258 90 271 c 0
 90 282 95 293 104 301 c 0
 113 310 124 314 136 314 c 0
 148 314 158 310 166 301 c 0
 174 293 178 282 178 271 c 0
 178 258 173 247 165 238 c 0
 157 229 147 224 135 224 c 0
135 -6 m 0
 122 -6 112 -1 103 8 c 0
 95 17 90 28 90 41 c 0
 90 52 95 62 104 71 c 0
 113 79 124 84 136 84 c 0
 148 84 158 79 166 71 c 0
 174 62 178 52 178 41 c 0
 178 28 173 17 165 8 c 0
 157 -1 147 -6 135 -6 c 0
EndSplineSet
Validated: 1
EndChar

StartChar: semicolon
Encoding: 28 59 28
Width: 341
GlyphClass: 2
Flags: W
HStem: 71 49<134.251 223.139> 224 90<142.423 209.676>
VStem: 129 88<238.423 307.132> 225 48<-4.46483 69.2973>
LayerCount: 2
Fore
SplineSet
208 119 m 0
 251 110 273 86 273 47 c 0
 273 21 261 -8 239 -41 c 0
 219 -69 198 -92 173 -109 c 1
 158 -110 147 -107 142 -99 c 0
 139 -95 138 -90 138 -84 c 0
 138 -80 139 -76 141 -70 c 1
 153 -63 169 -47 189 -23 c 0
 213 6 225 29 225 46 c 0
 225 64 211 72 183 71 c 2
 179 71 l 1
 155 69 l 1
 141 75 134 83 134 95 c 0
 134 104 139 111 149 117 c 1
 170 119 188 121 201 120 c 0
 204 120 206 119 208 119 c 0
174 224 m 0
 161 224 151 229 142 238 c 0
 134 247 129 258 129 271 c 0
 129 282 134 293 143 301 c 0
 152 310 163 314 175 314 c 0
 187 314 197 310 205 301 c 0
 213 293 217 282 217 271 c 0
 217 258 212 247 204 238 c 0
 196 229 186 224 174 224 c 0
EndSplineSet
Validated: 33
EndChar

StartChar: less
Encoding: 29 60 29
Width: 583
GlyphClass: 2
Flags: W
HStem: -9 21G<486.754 534>
LayerCount: 2
Fore
SplineSet
45 198 m 1
 45 267 l 1
 534 474 l 1
 534 395 l 1
 140 234 l 1
 534 70 l 1
 534 -9 l 1
 45 198 l 1
EndSplineSet
Validated: 1
EndChar

StartChar: equal
Encoding: 30 61 30
Width: 583
GlyphClass: 2
Flags: W
HStem: 111 70<50 534> 283 70<50 534>
LayerCount: 2
Fore
SplineSet
534 353 m 1
 534 283 l 1
 50 283 l 1
 50 353 l 1
 534 353 l 1
534 181 m 1
 534 111 l 1
 50 111 l 1
 50 181 l 1
 534 181 l 1
EndSplineSet
Validated: 1
EndChar

StartChar: greater
Encoding: 31 62 31
Width: 583
GlyphClass: 2
Flags: W
HStem: -9 21G<50 97.2464>
LayerCount: 2
Fore
SplineSet
539 267 m 1
 539 198 l 1
 50 -9 l 1
 50 70 l 1
 444 231 l 1
 50 395 l 1
 50 474 l 1
 539 267 l 1
EndSplineSet
Validated: 1
EndChar

StartChar: question
Encoding: 32 63 32
Width: 555
GlyphClass: 2
Flags: W
HStem: 0 104<240 330> 663 78<256 355.108>
VStem: 77 85<507 610.803> 240 90<0 104 199 310.713> 418 90<477.024 618.252>
LayerCount: 2
Fore
SplineSet
330 199 m 1
 240 199 l 1
 240 254 l 1
 243 297 255 330 277 354 c 0
 280 358 283 361 286 364 c 2
 344 417 l 2
 394 461 418 505 418 549 c 0
 418 596 398 629 357 649 c 1
 356 649 l 1
 337 658 316 663 291 663 c 0
 236 663 199 644 179 605 c 0
 168 582 162 550 162 507 c 1
 77 507 l 1
 77 648 136 725 256 739 c 1
 295 741 l 1
 379 741 441 713 479 657 c 0
 498 626 507 590 508 549 c 0
 508 518 501 489 488 464 c 0
 474 437 448 405 409 370 c 0
 368 332 343 304 336 287 c 2
 333 277 l 1
 330 253 329 227 330 199 c 1
330 104 m 1
 330 0 l 1
 240 0 l 1
 240 104 l 1
 330 104 l 1
EndSplineSet
Validated: 33
EndChar

StartChar: at
Encoding: 33 64 33
Width: 1014
GlyphClass: 2
Flags: W
HStem: -142 77<354.544 646.03> 62 64<394.323 505.828 653.551 759.511> 458 64<447.833 575.514> 664 77<386.262 641.921>
VStem: 34 85<154.111 398.084> 264 90<167.216 347.954> 863 88<334 462.805>
LayerCount: 2
Fore
SplineSet
665 501 m 1
 748 501 l 1
 658 221 l 2
 650 198 646 182 646 171 c 0
 646 153 655 140 674 131 c 1
 675 131 l 1
 681 128 688 127 695 127 c 0
 738 127 778 151 813 199 c 0
 847 246 863 299 863 357 c 0
 863 437 831 507 767 566 c 0
 701 628 620 660 527 664 c 1
 512 664 l 2
 414 664 327 630 251 562 c 1
 221 531 l 1
 153 456 119 370 119 273 c 0
 119 179 154 99 224 35 c 0
 296 -32 386 -65 494 -65 c 0
 547 -65 611 -54 687 -33 c 1
 714 -100 l 1
 638 -128 563 -142 488 -142 c 0
 368 -142 265 -106 178 -35 c 0
 82 44 34 141 34 258 c 1
 35 283 l 2
 42 412 93 522 191 612 c 0
 263 677 350 718 450 735 c 0
 473 738 498 740 524 741 c 0
 635 741 731 707 813 640 c 0
 904 566 951 475 951 369 c 1
 949 334 l 1
 941 265 913 202 865 146 c 0
 814 87 752 57 679 57 c 0
 615 57 577 83 568 134 c 1
 523 86 476 62 426 62 c 0
 372 62 329 85 297 131 c 0
 275 163 264 201 264 245 c 0
 264 318 290 382 342 438 c 0
 393 493 454 521 521 522 c 0
 576 522 617 493 643 435 c 1
 665 501 l 1
515 458 m 0
 471 458 432 434 398 387 c 0
 368 345 354 297 354 244 c 0
 354 213 361 188 375 168 c 0
 382 158 390 150 401 143 c 0
 416 132 434 126 453 126 c 0
 492 126 526 148 555 191 c 0
 571 216 585 248 595 287 c 0
 603 316 607 341 608 362 c 0
 609 386 604 406 591 422 c 0
 584 430 575 438 565 444 c 0
 550 453 534 458 515 458 c 0
EndSplineSet
Validated: 33
EndChar

StartChar: bracketleft
Encoding: 34 91 34
Width: 277
GlyphClass: 2
Flags: W
HStem: -212 72<147 250> 657 72<147 250>
VStem: 64 186<-212 -140 657 729> 64 83<-140 657>
LayerCount: 2
Fore
SplineSet
250 729 m 1xe0
 250 657 l 1xe0
 147 657 l 1
 147 -140 l 1xd0
 250 -140 l 1
 250 -212 l 1
 64 -212 l 1
 64 729 l 1
 250 729 l 1xe0
EndSplineSet
Validated: 1
EndChar

StartChar: backslash
Encoding: 35 92 35
Width: 277
GlyphClass: 2
Flags: W
HStem: -20 21G<222.672 284> 709 20G<-8 53.3284>
VStem: -8 292
LayerCount: 2
Fore
SplineSet
47 729 m 1
 284 -20 l 1
 229 -20 l 1
 -8 729 l 1
 47 729 l 1
EndSplineSet
Validated: 1
EndChar

StartChar: bracketright
Encoding: 36 93 36
Width: 277
GlyphClass: 2
Flags: W
HStem: -212 72<23 126> 657 72<23 126>
VStem: 23 186<-212 -140 657 729> 126 83<-140 657>
LayerCount: 2
Fore
SplineSet
23 -212 m 1xe0
 23 -140 l 1xe0
 126 -140 l 1
 126 657 l 1xd0
 23 657 l 1
 23 729 l 1
 209 729 l 1
 209 -212 l 1
 23 -212 l 1xe0
EndSplineSet
Validated: 1
EndChar

StartChar: asciicircum
Encoding: 37 94 37
Width: 468
GlyphClass: 2
Flags: W
HStem: 689 20G<188.947 278.158>
LayerCount: 2
Fore
SplineSet
197 709 m 1
 270 709 l 1
 425 329 l 1
 356 329 l 1
 234 629 l 1
 113 329 l 1
 44 329 l 1
 197 709 l 1
EndSplineSet
Validated: 1
EndChar

StartChar: underscore
Encoding: 38 95 38
Width: 555
GlyphClass: 2
Flags: W
HStem: -176 50<-22 578>
LayerCount: 2
Fore
SplineSet
578 -126 m 1
 578 -176 l 1
 -22 -176 l 1
 -22 -126 l 1
 578 -126 l 1
EndSplineSet
Validated: 1
EndChar

StartChar: grave
Encoding: 39 96 39
Width: 332
GlyphClass: 2
Flags: W
HStem: 592 148
VStem: 22 209
LayerCount: 2
Fore
SplineSet
135 740 m 1
 231 592 l 1
 171 592 l 1
 22 740 l 1
 135 740 l 1
EndSplineSet
Validated: 1
EndChar

StartChar: braceleft
Encoding: 40 123 40
Width: 333
GlyphClass: 2
Flags: W
HStem: -212 65<208.04 276> 664 65<205.869 276>
VStem: 121 77<-139.282 190.412 325.653 654.102>
LayerCount: 2
Fore
SplineSet
276 729 m 1
 276 664 l 1
 261 664 l 2
 229 664 210 655 203 637 c 0
 200 628 198 614 198 597 c 2
 198 416 l 2
 198 351 184 306 157 283 c 1
 156 282 l 2
 150 277 137 269 116 259 c 1
 171 234 198 181 198 101 c 2
 198 -80 l 2
 198 -113 206 -134 223 -141 c 0
 231 -145 244 -147 261 -147 c 2
 276 -147 l 1
 276 -212 l 1
 230 -212 l 2
 175 -212 141 -185 127 -132 c 0
 123 -117 121 -100 121 -81 c 2
 121 86 l 2
 121 148 109 188 86 206 c 0
 75 214 61 220 43 224 c 1
 43 293 l 1
 79 300 102 319 111 348 c 0
 118 367 121 394 121 431 c 2
 121 598 l 2
 121 666 145 708 192 723 c 0
 204 727 217 729 230 729 c 2
 276 729 l 1
EndSplineSet
Validated: 1
EndChar

StartChar: bar
Encoding: 41 124 41
Width: 259
GlyphClass: 2
Flags: W
HStem: 709 20G<100 160>
VStem: 100 60<-212 729>
LayerCount: 2
Fore
SplineSet
100 729 m 1
 160 729 l 1
 160 -212 l 1
 100 -212 l 1
 100 729 l 1
EndSplineSet
Validated: 1
EndChar

StartChar: braceright
Encoding: 42 125 42
Width: 333
GlyphClass: 2
Flags: W
HStem: -212 65<29 101.029> 224 69<217.076 262> 664 65<29 98.0138>
VStem: 109 77<-137.777 190.329 326.588 655.416>
CounterMasks: 1 e0
LayerCount: 2
Fore
SplineSet
29 -212 m 1
 29 -147 l 1
 45 -147 l 2
 77 -147 97 -138 104 -120 c 0
 107 -113 108 -99 109 -80 c 2
 109 101 l 2
 109 181 136 234 191 258 c 1
 136 283 109 336 109 416 c 2
 109 597 l 2
 109 630 100 651 83 658 c 0
 74 662 62 664 45 664 c 2
 29 664 l 1
 29 729 l 1
 76 729 l 2
 131 729 166 702 180 648 c 0
 184 633 186 617 186 598 c 2
 186 431 l 2
 186 368 198 328 222 310 c 0
 232 302 245 296 262 293 c 1
 262 224 l 1
 227 217 205 198 195 167 c 0
 189 148 186 121 186 86 c 2
 186 -81 l 2
 186 -150 162 -192 113 -207 c 0
 102 -210 89 -212 76 -212 c 2
 29 -212 l 1
EndSplineSet
Validated: 1
EndChar

StartChar: asciitilde
Encoding: 43 126 43
Width: 583
GlyphClass: 2
Flags: W
HStem: 268 68<346.469 445.738> 371 66<143.915 235.998>
VStem: 75 52<293 357.118> 454 53<344.992 411>
LayerCount: 2
Fore
SplineSet
402 268 m 0
 375 268 348 277 321 294 c 2
 224 357 l 2
 212 364 197 368 181 371 c 1
 150 371 132 345 127 293 c 1
 75 293 l 1
 80 380 110 428 166 437 c 0
 183 439 199 437 214 432 c 0
 222 429 229 426 236 422 c 2
 354 353 l 2
 373 342 388 336 403 336 c 0
 433 336 450 352 454 385 c 1
 455 411 l 1
 507 411 l 1
 507 395 l 2
 507 338 489 300 451 280 c 0
 437 272 420 268 402 268 c 0
EndSplineSet
Validated: 33
EndChar

StartChar: danda
Encoding: 47 2404 44
Width: 294
GlyphClass: 2
Flags: W
HStem: 0 21G<158 224>
VStem: 158 66<0 585>
LayerCount: 2
Fore
SplineSet
224 585 m 1
 224 0 l 1
 158 0 l 1
 160 585 l 1
 224 585 l 1
EndSplineSet
Validated: 1
EndChar

StartChar: doubledanda
Encoding: 48 2405 45
Width: 424
GlyphClass: 2
Flags: W
HStem: 515 20G<139.86 156.084>
VStem: 110 48<61 478> 253 49<70 487>
LayerCount: 2
Fore
SplineSet
307 545 m 1
 302 70 l 1
 253 16 l 1
 257 487 l 1
 307 545 l 1
156 535 m 1
 158 61 l 1
 110 11 l 1
 110 478 l 1
 156 535 l 1
EndSplineSet
Validated: 1
EndChar

StartChar: u0981
Encoding: 50 2433 46
Width: 5
GlyphClass: 2
Flags: HMW
HStem: 750 59 842 102<-109 -91>
VStem: -266 56 -164 129<892 892> 7 62
AnchorPoint: "Anchor-0" -113 740 mark 0
LayerCount: 2
Fore
SplineSet
-145 856 m 0
 -157 865 -164 877 -164 892 c 0
 -164 907 -157 920 -145 930 c 0
 -133 939 -118 944 -101 944 c 0
 -81 944 -65 939 -53 930 c 0
 -41 921 -35 908 -35 892 c 0
 -35 882 -37 873 -42 866 c 2
 -50 858 l 2
 -50 857 -52 856 -53 856 c 0
 -65 847 -81 842 -101 842 c 0
 -118 842 -133 847 -145 856 c 0
-172 832 m 0
 -153 816 -132 809 -111 809 c 0
 -110 809 -110 809 -109 809 c 2
 -107 809 l 1
 -71 811 -45 820 -29 836 c 0
 -18 847 -6 869 7 903 c 1
 18 909 28 912 36 912 c 0
 50 912 61 904 69 889 c 1
 59 818 13 772 -69 751 c 0
 -77 751 -85 750 -92 750 c 0
 -141 750 -181 762 -212 784 c 0
 -248 809 -266 844 -266 889 c 1
 -257 902 -249 909 -241 909 c 0
 -234 909 -222 904 -209 894 c 1
 -205 869 -193 849 -172 832 c 0
EndSplineSet
Validated: 1
Substitution2: "'salt' Stylistic Alternatives in Bengali2 lookup 17-1" u0981.salt
EndChar

StartChar: u0982
Encoding: 51 2434 47
Width: 470
GlyphClass: 2
Flags: HMW
HStem: 428 57<192 218> 615 56
VStem: 101 62<518 537> 278 60<564 584>
LayerCount: 2
Fore
SplineSet
463 60 m 0
 463 53 459 47 452 43 c 0
 445 39 437 36 429 36 c 0
 420 36 411 39 404 44 c 2
 116 337 l 1
 113 344 110 350 110 356 c 0
 110 373 119 381 137 381 c 0
 145 381 153 378 161 373 c 1
 457 74 l 2
 461 69 463 64 463 60 c 0
169 569 m 0
 165 558 163 546 163 535 c 0
 163 501 178 485 207 485 c 0
 234 485 255 501 272 534 c 1
 276 547 278 559 278 569 c 0
 278 600 263 615 234 615 c 0
 233 615 231 615 230 615 c 0
 201 613 180 598 169 569 c 0
338 566 m 0
 338 558 337 548 336 538 c 0
 332 509 317 484 289 462 c 0
 261 440 233 428 204 428 c 0
 175 428 150 438 130 458 c 0
 110 478 101 503 101 532 c 0
 101 542 102 552 104 562 c 0
 123 635 165 671 230 671 c 0
 302 671 338 636 338 566 c 0
EndSplineSet
Validated: 1
EndChar

StartChar: u0983
Encoding: 52 2435 48
Width: 437
GlyphClass: 2
Flags: W
HStem: 33 63<184.557 279.413> 250 64<209.787 306.955> 387 61<174.31 269.233> 603 62<194.862 294.125>
VStem: 101 59<461.336 567.182> 113 61<106.019 212.205> 304 63<484.813 593.167> 316 62<133.839 240.238>
LayerCount: 2
Fore
SplineSet
200 218 m 4xf5
 187 202 178 183 174 162 c 5
 174 148 176 137 180 127 c 4
 182 122 184 117 188 113 c 4
 198 102 212 96 228 96 c 4
 255 96 276 109 294 133 c 4
 309 153 316 174 316 195 c 4
 316 231 296 249 255 250 c 5
 233 247 215 237 200 218 c 4xf5
243 665 m 2
 281 665 311 653 334 629 c 0
 355 607 367 580 367 547 c 0
 367 536 365 524 361 513 c 0
 356 486 345 461 326 439 c 0
 296 404 257 387 211 387 c 0
 179 387 153 398 132 420 c 0
 111 441 101 469 101 503 c 0xfa
 101 552 118 594 153 628 c 0
 178 652 207 664 240 665 c 2
 243 665 l 2
257 35 m 4
 249 34 240 33 233 33 c 4
 197 33 169 44 148 65 c 4
 127 87 115 118 113 156 c 5
 115 198 130 235 158 267 c 4
 186 299 221 314 262 314 c 4
 295 314 322 303 344 282 c 4
 367 259 378 228 378 190 c 4xf5
 378 184 378 179 377 173 c 4
 364 106 324 59 257 35 c 4
184 570 m 0
 168 550 160 528 160 505 c 0
 160 486 166 472 177 463 c 0
 188 453 201 448 216 448 c 0
 244 448 268 462 286 490 c 0
 298 509 304 528 304 547 c 0xfa
 304 583 284 602 244 603 c 1
 221 602 200 591 184 570 c 0
EndSplineSet
Validated: 1
EndChar

StartChar: u0985
Encoding: 53 2437 49
Width: 833
GlyphClass: 2
Flags: W
HStem: 94 60<326.637 491.224> 610 63<-11 308 394 706 768 829>
VStem: 29 56<454.867 552.798> 303 59<380.599 491.606> 564 60<251.382 438.752> 706 62<140 610>
LayerCount: 2
Fore
SplineSet
394 610 m 1
 439 566 l 1
 477 556 505 546 523 537 c 0
 550 522 569 503 580 479 c 1
 609 435 624 387 624 336 c 0
 624 309 618 283 609 260 c 1
 706 140 l 1
 706 610 l 1
 394 610 l 1
768 610 m 1
 768 71 l 1
 764 50 752 39 732 39 c 0
 724 39 716 43 710 50 c 2
 583 198 l 1
 544 129 489 94 417 94 c 0
 384 94 350 101 311 116 c 0
 237 145 174 200 123 283 c 0
 78 356 46 438 29 530 c 1
 36 546 46 554 59 554 c 0
 67 554 76 550 85 541 c 1
 101 454 131 377 174 311 c 0
 226 233 290 183 366 161 c 0
 381 156 397 154 414 154 c 0
 452 154 481 164 502 185 c 0
 543 224 564 277 564 342 c 0
 564 421 535 474 474 503 c 1
 459 505 446 506 435 506 c 0
 387 506 362 484 362 439 c 0
 362 424 365 406 371 385 c 1
 364 368 353 360 339 360 c 0
 330 360 321 365 312 374 c 1
 306 400 303 422 303 441 c 0
 303 489 326 525 372 550 c 1
 308 610 l 1
 -11 610 l 1
 -11 673 l 1
 829 673 l 1
 829 610 l 1
 768 610 l 1
EndSplineSet
Validated: 1
EndChar

StartChar: u0986
Encoding: 54 2438 50
Width: 1007
GlyphClass: 2
Flags: W
HStem: 94 60<327.637 492.224> 610 63<-10 309 395 707 769 885 941 1010>
VStem: 30 56<454.867 552.798> 304 59<380.599 491.606> 565 60<251.382 438.752> 707 62<140 610> 885 56<47.2966 610>
LayerCount: 2
Fore
SplineSet
395 610 m 1
 440 566 l 1
 478 556 506 546 524 537 c 0
 551 522 570 503 581 479 c 1
 610 435 625 387 625 336 c 0
 625 309 619 283 610 260 c 1
 707 140 l 1
 707 610 l 1
 395 610 l 1
769 610 m 1
 769 71 l 1
 765 50 753 39 733 39 c 0
 725 39 717 43 711 50 c 2
 584 198 l 1
 545 129 490 94 418 94 c 0
 385 94 351 101 312 116 c 0
 238 145 175 200 124 283 c 0
 79 356 47 438 30 530 c 1
 37 546 47 554 60 554 c 0
 68 554 77 550 86 541 c 1
 102 454 132 377 175 311 c 0
 227 233 291 183 367 161 c 0
 382 156 398 154 415 154 c 0
 453 154 482 164 503 185 c 0
 544 224 565 277 565 342 c 0
 565 421 536 474 475 503 c 1
 460 505 447 506 436 506 c 0
 388 506 363 484 363 439 c 0
 363 424 366 406 372 385 c 1
 365 368 354 360 340 360 c 0
 331 360 321 365 312 374 c 1
 306 400 304 422 304 441 c 0
 304 489 327 525 373 550 c 1
 309 610 l 1
 -10 610 l 1
 -10 673 l 1
 1010 673 l 1
 1010 610 l 1
 941 610 l 1
 941 62 l 2
 941 52 932 47 912 47 c 0
 894 47 885 53 885 64 c 2
 885 610 l 1
 769 610 l 1
EndSplineSet
Validated: 1
EndChar

StartChar: u0987
Encoding: 55 2439 51
Width: 433
GlyphClass: 2
Flags: W
HStem: 536 58<200.172 308.062> 610 63<-7 107 183 335 399 454> 783 64<-29.8006 278.68>
VStem: -146 58<892.093 978.7> 57 56<402.521 491.062> 352 57<354.894 490.027>
LayerCount: 2
Fore
SplineSet
399 672 m 1
 418 672 437 673 454 673 c 1
 454 610 l 1
 183 610 l 2
 182 610 183 609 186 608 c 0
 188 607 190 606 193 605 c 0
 205 600 213 596 216 592 c 1
 223 594 230 594 238 594 c 0
 279 594 315 582 347 558 c 0
 388 526 409 478 409 416 c 0
 409 405 408 393 407 382 c 0
 382 286 296 229 149 211 c 1
 500 -6 l 1
 501 -10 502 -14 502 -18 c 0
 502 -36 492 -45 473 -44 c 2
 470 -44 l 1
 28 227 l 1
 22 235 19 243 19 252 c 0
 19 271 27 280 44 280 c 0
 47 280 51 279 55 278 c 0
 82 274 109 272 133 272 c 0
 244 272 316 310 349 387 c 1
 351 397 352 407 352 418 c 0
 352 447 344 472 328 494 c 0
 308 522 277 536 235 536 c 0
 158 536 117 496 113 416 c 1
 107 407 98 402 85 402 c 0
 71 402 62 409 57 423 c 1
 57 454 66 484 83 513 c 0
 100 542 123 563 151 574 c 1
 107 610 l 1
 -7 610 l 1
 -7 673 l 1
 335 671 l 1
 333 720 307 753 257 771 c 0
 235 778 210 782 180 783 c 2
 103 783 l 1
 10 794 -50 807 -75 820 c 0
 -116 842 -140 888 -146 959 c 0
 -147 968 -142 974 -132 977 c 0
 -127 979 -121 979 -113 979 c 0
 -96 979 -88 975 -88 966 c 0
 -87 917 -71 884 -37 866 c 0
 -13 854 27 848 84 847 c 2
 165 847 l 2
 186 847 204 846 220 844 c 0
 271 841 312 825 345 796 c 0
 376 769 394 733 398 685 c 2
 399 672 l 1
EndSplineSet
Validated: 33
EndChar

StartChar: u0988
Encoding: 56 2440 52
Width: 579
GlyphClass: 2
Flags: W
HStem: 170 57<65.5846 189.468> 497 56<147.822 231.095> 610 63<-15 38 107 488.999 540 594> 752 56<124.286 469.586>
VStem: 22 54<854.51 940.006> 30 54<378.611 459.725> 268 51<378.047 458.135> 426 54<3.59865 308.951> 489 51<673.328 732.094>
LayerCount: 2
Fore
SplineSet
76 927 m 1xfb80
 79 877 97 842 132 825 c 0
 156 814 198 808 258 808 c 2
 295 808 l 2
 391 808 457 797 493 776 c 0
 526 756 542 724 540 678 c 0
 540 676 540 675 540 673 c 2
 594 673 l 1
 594 610 l 1
 107 610 l 1
 158 551 l 1
 166 553 174 553 181 553 c 0
 226 553 261 534 288 497 c 0
 312 464 323 427 320 385 c 0
 320 382 319 380 319 377 c 1
 363 416 390 440 401 449 c 0
 456 492 498 514 527 515 c 0
 541 515 550 513 555 506 c 0
 558 502 559 498 559 492 c 0
 559 488 558 484 557 480 c 0
 506 349 480 240 480 152 c 0
 480 84 494 16 519 -50 c 1
 516 -67 506 -75 489 -75 c 0
 481 -75 472 -73 465 -68 c 1
 439 5 426 79 426 155 c 0
 426 246 444 341 482 439 c 1
 448 422 408 390 361 341 c 0
 297 272 259 233 250 225 c 0
 207 188 167 170 130 170 c 0
 103 170 75 179 47 197 c 0
 44 201 42 206 42 212 c 0
 42 230 53 240 74 244 c 1
 95 233 114 227 131 227 c 0
 165 227 202 250 241 297 c 1
 259 327 268 358 268 390 c 0
 268 426 255 455 230 476 c 0
 213 490 195 497 176 497 c 0
 151 497 128 486 110 465 c 0
 92 444 84 419 84 390 c 1
 78 382 70 378 59 378 c 0
 46 378 37 383 30 392 c 1xf780
 28 432 39 466 61 493 c 0
 72 507 86 519 103 529 c 1
 38 610 l 1
 -15 610 l 1
 -15 673 l 1
 485 673 l 1
 487 680 489 687 489 693 c 0
 489 728 458 747 396 751 c 0
 384 752 346 752 281 752 c 0
 250 752 222 753 198 756 c 0
 186 757 176 759 166 761 c 0
 117 772 82 786 65 803 c 0
 43 825 28 864 22 921 c 1
 25 934 33 941 46 941 c 0
 57 941 68 936 76 927 c 1xfb80
EndSplineSet
Validated: 33
EndChar

StartChar: u0989
Encoding: 57 2441 53
Width: 734
GlyphClass: 2
Flags: W
HStem: 35 59<337.928 506.489> 272 61<353.041 422.346> 510 20G<55.5 65> 610 63<-6 290 352 539 603 734> 783 63<174.173 482.424>
VStem: 30 55<455.312 529.031> 58 58<892.093 978.703> 290 62<333.217 610> 539 64<673 734.358> 601 58<192.009 376.799>
LayerCount: 2
Fore
SplineSet
539 673 m 1xf980
 537 729 503 764 436 777 c 0
 420 780 403 782 384 783 c 2
 307 783 l 1
 213 794 154 807 129 820 c 0
 88 842 64 888 58 959 c 0
 57 968 61 974 71 977 c 0
 76 979 83 979 91 979 c 0
 108 979 116 975 116 966 c 0
 117 917 133 884 167 866 c 0
 191 854 231 847 288 846 c 2
 369 846 l 2
 390 846 408 846 424 844 c 0
 475 841 516 825 549 796 c 0
 584 766 602 725 603 673 c 1xfb80
 734 673 l 1
 734 610 l 1
 352 610 l 1
 352 353 l 1
 357 340 365 333 376 333 c 0
 394 333 418 347 447 376 c 0
 473 402 498 433 523 470 c 0
 527 477 534 480 543 480 c 0
 557 480 570 474 581 463 c 0
 633 414 659 358 659 296 c 0
 659 264 652 229 639 190 c 1
 589 88 521 36 435 35 c 0
 434 35 434 35 433 35 c 0
 397 35 361 43 326 58 c 0
 308 66 289 75 271 87 c 0
 227 116 191 152 162 195 c 0
 111 271 67 373 30 502 c 0
 30 507 31 511 33 515 c 0
 34 517 36 519 38 521 c 0
 44 527 51 530 60 530 c 0
 70 530 78 526 85 519 c 1
 120 408 152 329 180 281 c 1
 204 229 239 184 285 148 c 0
 332 112 379 94 427 94 c 0
 482 94 527 119 564 168 c 0
 589 201 601 240 601 285 c 0xfd40
 601 335 586 377 556 412 c 1
 511 361 482 330 469 319 c 0
 432 288 395 272 358 272 c 1
 313 279 290 316 290 382 c 2
 290 610 l 1
 -6 610 l 1
 -6 673 l 1
 539 673 l 1xf980
EndSplineSet
Validated: 1
EndChar

StartChar: u098a
Encoding: 58 2442 54
Width: 777
GlyphClass: 2
Flags: W
HStem: 35 58<389.621 561.279> 266 60<402.619 473.415> 520 20G<151.5 162> 610 63<-10 340 402 563.999 628 787> 755 56<212.656 538.477>
VStem: 30 55<456.542 559.282> 98 56<863.298 945.273> 132 55<412.247 538.688> 340 62<326.645 610> 564 66<673 730.337> 650 58<197.651 374.896>
LayerCount: 2
Fore
SplineSet
221 829 m 0xfee0
 251 817 302 811 374 811 c 2
 411 812 l 2
 465 812 504 809 528 802 c 0
 562 794 587 778 605 756 c 0
 622 737 630 715 630 690 c 0
 630 685 629 679 628 673 c 1
 787 673 l 1
 787 610 l 1
 402 610 l 1
 402 347 l 1
 408 333 416 326 427 326 c 0
 460 326 509 373 575 465 c 0
 580 474 589 479 601 479 c 0
 609 479 616 477 622 472 c 0
 681 423 710 359 708 279 c 1
 708 274 l 1
 706 213 685 160 645 112 c 0
 602 61 548 35 483 35 c 0
 426 35 366 52 303 86 c 0
 240 120 190 163 154 214 c 0xfee0
 91 304 50 411 30 536 c 1
 32 552 41 560 56 560 c 0
 67 560 77 555 85 545 c 1
 101 470 116 414 130 377 c 0
 148 329 174 284 207 242 c 1
 161 377 l 2
 146 422 137 469 132 519 c 1
 138 533 146 540 157 540 c 0
 167 540 178 534 187 522 c 1xfde0
 200 426 226 336 265 252 c 0
 282 216 304 184 332 157 c 0
 375 114 424 93 479 93 c 0
 562 93 617 142 644 240 c 0
 648 255 650 270 650 287 c 0
 650 337 635 377 605 407 c 1
 560 359 533 332 524 324 c 0
 480 285 443 266 412 266 c 0
 379 266 355 289 340 335 c 1
 340 610 l 1
 -10 610 l 1
 -10 673 l 1
 562 673 l 1
 563 679 564 685 564 690 c 0
 564 717 546 735 510 745 c 0
 483 752 441 756 386 755 c 2
 376 755 l 2
 321 754 276 757 241 764 c 0
 223 768 207 772 194 778 c 0
 132 803 100 854 98 930 c 1
 108 941 119 947 130 947 c 0
 139 947 147 943 154 936 c 1
 153 883 175 847 221 829 c 0xfee0
EndSplineSet
Validated: 33
EndChar

StartChar: u098b
Encoding: 59 2443 55
Width: 722
GlyphClass: 2
Flags: W
HStem: 505 57<116.094 233.186>
VStem: 420 62<123 272 362 491 562 686.257> 590 62<240 687.374>
LayerCount: 2
Fore
SplineSet
420 491 m 1
 179 342 l 1
 420 123 l 1
 420 491 l 1
622 688 m 0
 643 688 652 682 652 671 c 2
 652 162 l 2
 652 145 640 137 616 137 c 0
 604 137 595 140 590 146 c 2
 482 272 l 1
 482 57 l 2
 482 39 469 31 442 31 c 0
 433 31 426 33 420 38 c 2
 109 328 l 2
 104 333 103 338 103 344 c 0
 103 354 108 364 117 373 c 1
 339 513 l 1
 294 562 l 1
 261 524 223 505 178 505 c 0
 120 505 75 531 40 583 c 0
 39 586 39 589 39 592 c 0
 39 611 51 620 75 620 c 0
 80 620 83 620 87 619 c 1
 109 581 139 562 176 562 c 0
 213 562 241 581 258 619 c 1
 269 630 283 635 299 632 c 0
 302 632 306 631 309 630 c 2
 392 542 l 1
 420 562 l 1
 420 669 l 2
 420 681 432 687 454 687 c 0
 473 687 482 682 482 671 c 2
 482 362 l 1
 590 240 l 1
 590 671 l 2
 590 682 601 688 622 688 c 0
EndSplineSet
Validated: 33
EndChar

StartChar: u098c
Encoding: 60 2444 56
Width: 641
GlyphClass: 2
Flags: W
HStem: 282 58<154.955 277.761>
VStem: 37 58<614.303 676.993> 64 59<102.789 249.176> 312 59<102.734 247.114> 512 58<189.276 345.709>
LayerCount: 2
Fore
SplineSet
144 597 m 0xd8
 157 590 198 575 268 551 c 0
 357 520 424 488 470 453 c 0
 537 402 570 341 570 270 c 0
 570 248 567 225 561 201 c 1
 543 153 509 115 460 84 c 0
 415 55 366 39 312 35 c 1
 289 39 276 46 276 57 c 0
 276 62 279 68 285 76 c 1
 291 93 297 110 303 127 c 0
 309 144 312 160 312 174 c 0
 312 192 309 210 301 231 c 1
 283 265 253 282 214 282 c 0
 192 282 173 275 155 261 c 0
 134 241 123 216 123 184 c 0
 123 161 129 137 140 112 c 0
 141 105 140 100 138 95 c 0
 137 92 135 91 133 89 c 0
 127 83 118 80 109 80 c 0
 97 80 90 84 86 91 c 0
 71 121 64 152 64 184 c 0xb8
 64 220 74 252 93 278 c 0
 123 319 164 340 216 340 c 0
 246 340 274 332 299 316 c 0
 325 300 343 278 354 251 c 0
 365 224 371 197 371 172 c 0
 371 151 366 127 358 102 c 1
 402 113 439 132 466 159 c 0
 497 189 512 224 512 265 c 0
 512 278 510 291 506 304 c 0
 494 356 461 399 404 434 c 0
 373 452 321 474 247 500 c 0
 168 528 119 547 101 557 c 0
 58 581 37 613 37 652 c 0
 38 670 45 678 62 678 c 0
 82 678 93 671 95 655 c 1
 94 641 100 627 115 615 c 0
 122 609 132 603 144 597 c 0xd8
EndSplineSet
Validated: 33
EndChar

StartChar: u098f
Encoding: 61 2447 57
Width: 677
GlyphClass: 2
Flags: W
HStem: 106 58<141.244 383.509> 125 59<210.329 476.783> 608 59<432.363 537.13>
VStem: 32 57<219.718 383.906> 268 62<331.507 518.3> 547 62<123 599.695>
LayerCount: 2
Fore
SplineSet
609 540 m 2x7c
 609 60 l 2
 609 54 604 48 594 43 c 0
 584 38 573 36 563 36 c 0
 555 36 550 38 547 42 c 0
 505 97 453 125 390 125 c 0x7c
 370 125 341 121 301 115 c 0
 261 109 230 106 210 106 c 0
 192 106 176 108 161 111 c 1
 113 129 79 155 58 190 c 0
 41 221 32 261 32 312 c 0
 32 330 33 350 35 373 c 1
 44 381 53 385 62 385 c 0
 73 385 83 379 92 369 c 1
 90 334 89 313 89 306 c 0
 89 249 109 208 146 182 c 0
 163 170 184 164 209 164 c 0xbc
 224 164 251 167 289 174 c 0
 327 181 357 184 379 184 c 0
 440 184 496 164 547 123 c 1
 547 536 l 2
 547 584 532 608 499 608 c 0
 482 608 458 600 429 585 c 0
 363 551 330 502 330 438 c 0
 330 409 336 376 349 337 c 1
 347 320 336 311 316 311 c 0
 305 311 298 314 291 321 c 1
 276 355 268 390 268 426 c 0
 268 480 284 528 317 572 c 0
 350 615 395 644 451 659 c 0
 466 664 480 667 493 667 c 0
 521 667 548 656 574 633 c 0
 598 612 609 581 609 540 c 2x7c
EndSplineSet
Validated: 1
EndChar

StartChar: u0990
Encoding: 62 2448 58
Width: 774
GlyphClass: 2
Flags: W
HStem: 106 58<128.247 371.009> 125 59<198.328 464.533> 289 70<597 638.938> 608 59<419.379 525.046>
VStem: 19 58<218.866 383.621> 255 62<331.507 518.3> 410 70<754.819 824.196> 535 62<123 296.699 359 599.695> 711 62<443.098 604.362>
LayerCount: 2
Fore
SplineSet
597 289 m 1x7f80
 597 60 l 2
 597 54 591 48 581 43 c 0
 571 38 561 36 551 36 c 0
 543 36 538 38 535 42 c 0
 493 97 440 125 377 125 c 0x7f80
 357 125 328 121 288 115 c 0
 248 109 218 106 198 106 c 0
 180 106 163 108 148 111 c 1
 100 129 66 155 45 190 c 0
 28 221 19 261 19 312 c 0
 19 330 20 350 22 373 c 1
 31 381 41 385 50 385 c 0
 61 385 71 379 80 369 c 1
 78 334 77 313 77 306 c 0
 77 249 96 208 133 182 c 0
 150 170 172 164 197 164 c 0xbf80
 212 164 238 167 276 174 c 0
 314 181 345 184 367 184 c 0
 428 184 484 164 535 123 c 1
 535 536 l 2
 535 584 519 608 486 608 c 0
 469 608 445 600 416 585 c 0
 350 551 317 502 317 438 c 0
 317 409 323 376 336 337 c 1
 334 320 324 311 304 311 c 0
 293 311 285 314 278 321 c 1
 263 355 255 390 255 426 c 0
 255 480 272 528 305 572 c 0
 338 615 382 644 438 659 c 0
 453 664 467 667 480 667 c 0
 508 667 535 656 561 633 c 0
 585 612 597 581 597 540 c 2
 597 359 l 1
 630 368 656 389 677 421 c 0
 700 456 711 492 711 530 c 0
 711 599 673 640 597 655 c 0
 472 680 410 724 410 786 c 0
 410 829 434 864 483 890 c 1
 491 891 498 890 504 887 c 0
 507 886 510 884 513 882 c 0
 521 876 524 868 524 860 c 0
 524 854 522 848 518 843 c 0
 493 817 480 796 480 781 c 0
 480 763 506 747 557 733 c 0
 628 714 676 697 702 680 c 0
 750 650 773 603 773 540 c 0
 773 486 757 434 723 385 c 0
 691 337 650 305 597 289 c 1x7f80
EndSplineSet
Validated: 1
EndChar

StartChar: u0993
Encoding: 63 2451 59
Width: 751
GlyphClass: 2
Flags: W
HStem: 50 58<411.24 600.747> 607 64<430.864 565.674>
VStem: 40 57<534.82 636.763> 324 63<416.102 560.896> 622 60<423.929 550.838> 652 60<156.064 298.216>
LayerCount: 2
Fore
SplineSet
488 671 m 1xf8
 543 670 589 651 626 616 c 0
 663 581 682 540 682 492 c 0xf8
 682 451 668 413 640 377 c 1
 689 340 712 291 712 230 c 0
 712 186 698 148 671 116 c 0
 641 81 600 60 549 53 c 0
 536 51 524 50 512 50 c 0
 445 50 379 72 315 116 c 0
 176 208 85 373 40 610 c 1
 40 623 43 632 50 637 c 0
 54 639 58 640 64 640 c 0
 75 640 87 634 97 622 c 1
 116 535 137 463 161 408 c 0
 192 334 232 272 282 222 c 0
 357 146 434 108 511 108 c 0
 565 108 604 123 629 154 c 0
 644 174 652 196 652 223 c 0xf4
 652 247 646 270 634 292 c 0
 622 314 604 330 583 340 c 0
 564 349 556 359 556 370 c 0
 556 378 560 387 570 396 c 1
 604 420 622 450 622 485 c 0
 622 512 613 537 594 559 c 0
 567 591 534 607 494 607 c 0
 462 607 437 595 417 572 c 0
 397 549 387 521 387 488 c 0
 387 466 391 445 401 425 c 1
 397 406 384 397 362 397 c 0
 354 397 346 400 340 405 c 1
 329 432 324 460 324 487 c 0
 324 535 339 575 369 610 c 0
 399 645 439 665 488 671 c 1xf8
EndSplineSet
Validated: 1
EndChar

StartChar: u0994
Encoding: 64 2452 60
Width: 813
GlyphClass: 2
Flags: W
HStem: 50 58<396.24 585.747> 607 64<415.426 550.674>
VStem: 24 58<534.82 636.763> 309 63<416.102 562.404> 437 70<807.819 877.196> 606 61<422.935 551.37> 637 60<156.064 298.018> 738 62<496.098 657.362>
LayerCount: 2
Fore
SplineSet
652 422 m 1xfd
 671 433 688 451 704 474 c 0
 727 509 738 545 738 583 c 0
 738 652 700 693 624 708 c 0
 499 733 437 777 437 839 c 0
 437 882 461 917 510 943 c 1
 518 944 525 943 531 940 c 0
 534 939 537 938 540 936 c 0
 547 929 551 921 551 913 c 0
 551 907 549 901 545 896 c 0
 520 870 507 849 507 834 c 0
 507 816 533 800 584 786 c 0
 655 767 703 750 729 733 c 0
 777 703 800 656 800 593 c 0
 800 539 784 487 750 438 c 0
 723 397 690 368 653 351 c 1
 683 318 697 278 697 230 c 0
 697 186 683 148 656 116 c 0
 626 81 585 60 534 53 c 0
 521 51 509 50 497 50 c 0
 430 50 364 72 300 116 c 0
 161 208 69 373 24 610 c 1
 24 623 28 632 35 637 c 0
 39 639 43 640 49 640 c 0
 60 640 72 634 82 622 c 1
 101 535 122 463 146 408 c 0
 177 334 217 272 267 222 c 0
 342 146 419 108 496 108 c 0
 550 108 589 123 614 154 c 0
 629 174 637 196 637 223 c 0xfb
 637 247 631 270 619 292 c 0
 607 314 589 330 568 340 c 0
 549 349 541 359 541 370 c 0
 541 378 545 387 555 396 c 1
 589 420 606 450 606 485 c 0
 606 512 597 537 579 559 c 0
 552 591 519 607 479 607 c 0
 447 607 421 595 401 572 c 0
 381 549 372 521 372 488 c 0
 372 466 376 445 386 425 c 1
 382 406 369 397 347 397 c 0
 339 397 331 400 325 405 c 1
 314 432 309 460 309 487 c 0
 309 535 324 575 354 610 c 0
 384 645 424 665 473 671 c 1
 528 670 574 651 611 616 c 0
 648 581 667 540 667 492 c 0
 667 468 662 444 652 422 c 1xfd
EndSplineSet
Validated: 1
EndChar

StartChar: u0995
Encoding: 65 2453 61
Width: 709
GlyphClass: 2
Flags: W
HStem: 231 56<488.237 550.339> 511 61<419 510.875> 610 63<-7 357 419 711>
VStem: 357 62<121 493 569.44 610> 575 54<311.933 452.676>
AnchorPoint: "Anchor-1" 400 20 basechar 0
AnchorPoint: "Anchor-0" 340 680 basechar 0
LayerCount: 2
Fore
SplineSet
357 493 m 1
 112 342 l 1
 357 121 l 1
 357 493 l 1
629 382 m 0
 629 341 619 306 600 277 c 0
 579 246 552 230 517 231 c 0
 502 230 493 233 488 241 c 0
 485 245 484 251 484 258 c 0
 484 273 491 282 504 287 c 1
 517 285 529 289 539 297 c 0
 544 301 549 306 554 313 c 0
 568 333 575 357 575 384 c 0
 575 413 567 437 550 457 c 0
 519 495 476 513 423 511 c 2
 419 511 l 1
 419 55 l 2
 419 42 412 35 398 35 c 0
 383 35 369 41 357 51 c 2
 44 328 l 2
 35 333 31 340 31 348 c 0
 31 358 37 366 48 373 c 2
 357 560 l 1
 357 610 l 1
 -7 610 l 1
 -7 673 l 1
 711 673 l 1
 711 610 l 1
 419 610 l 1
 419 572 l 1
 559 556 629 493 629 382 c 0
EndSplineSet
Validated: 33
EndChar

StartChar: u0996
Encoding: 66 2454 62
Width: 635
GlyphClass: 2
Flags: W
HStem: 473 58<80.8202 220.1> 610 63<554 632>
VStem: 319 57<430.625 569.354> 492 62<121 610>
AnchorPoint: "Anchor-1" 520 40 basechar 0
AnchorPoint: "Anchor-0" 547 660 basechar 0
LayerCount: 2
Fore
SplineSet
632 673 m 1
 632 610 l 1
 554 610 l 1
 554 64 l 2
 554 57 550 52 542 47 c 0
 534 42 525 39 515 39 c 0
 506 39 498 41 492 46 c 2
 152 297 l 1
 146 306 143 315 143 324 c 0
 143 341 150 349 163 349 c 0
 204 354 239 370 270 397 c 0
 303 427 319 461 319 499 c 0
 319 524 312 548 298 572 c 1
 269 506 224 473 162 473 c 0
 126 473 86 485 43 508 c 1
 35 515 31 523 31 533 c 0
 31 552 39 562 57 562 c 0
 60 562 64 561 67 560 c 0
 101 540 132 531 159 531 c 0
 215 531 247 565 254 633 c 0
 254 646 257 655 264 660 c 0
 268 662 272 663 278 663 c 0
 284 663 290 661 297 657 c 0
 352 622 378 568 376 496 c 1
 376 491 l 1
 373 404 325 343 232 308 c 1
 492 121 l 1
 492 617 l 2
 492 654 510 673 546 673 c 2
 632 673 l 1
EndSplineSet
Validated: 33
EndChar

StartChar: u0997
Encoding: 67 2455 63
Width: 615
GlyphClass: 2
Flags: W
HStem: 428 56<113.165 207.01> 580 58<188.146 367.402> 610 63<546 624>
VStem: 252 58<250.022 381.842> 484 62<31.5165 470.441 545 610>
AnchorPoint: "Anchor-1" 514 36 basechar 0
AnchorPoint: "Anchor-0" 547 667 basechar 0
LayerCount: 2
Fore
SplineSet
624 673 m 1xb8
 624 610 l 1
 546 610 l 1xb8
 546 53 l 2
 546 38 536 31 515 31 c 0
 494 31 484 38 484 53 c 2
 484 382 l 2
 484 425 472 461 449 491 c 0
 401 550 344 580 276 580 c 0
 206 580 152 548 113 484 c 1
 153 488 187 483 217 468 c 0
 232 461 246 451 258 439 c 0
 293 406 310 365 310 316 c 0
 310 248 279 197 216 162 c 0
 212 161 208 160 204 160 c 0
 195 160 188 163 181 168 c 0
 174 173 171 180 171 187 c 0
 171 195 175 202 182 209 c 0
 229 236 252 271 252 316 c 0
 252 346 241 373 220 395 c 0
 199 417 174 428 144 428 c 0
 122 428 100 422 79 409 c 0
 70 403 61 401 53 401 c 0
 38 401 31 409 31 424 c 0
 31 428 31 432 33 437 c 0
 48 493 72 537 105 568 c 0
 135 597 177 618 231 633 c 0
 251 637 270 638 288 638 c 0xd8
 362 638 427 607 484 545 c 1
 484 673 l 1
 624 673 l 1xb8
EndSplineSet
Validated: 33
EndChar

StartChar: u0998
Encoding: 68 2456 64
Width: 537
GlyphClass: 2
Flags: W
HStem: 610 63<-9 47 101.016 406 468 546>
VStem: 30 56<500.756 594.423> 406 62<121 610>
AnchorPoint: "Anchor-1" 435 34 basechar 0
AnchorPoint: "Anchor-0" 427 667 basechar 0
LayerCount: 2
Fore
SplineSet
209 484 m 1
 228 484 238 474 238 455 c 0
 238 448 235 441 230 435 c 2
 128 315 l 1
 406 121 l 1
 406 610 l 1
 129 610 l 1
 100 594 86 573 86 548 c 0
 86 529 94 513 109 499 c 0
 124 485 143 477 166 477 c 1
 209 484 l 1
-9 673 m 1
 546 673 l 1
 546 610 l 1
 468 610 l 1
 468 62 l 2
 468 47 455 39 431 39 c 0
 421 39 413 41 406 46 c 2
 66 287 l 1
 57 291 52 298 52 307 c 0
 52 314 55 321 61 328 c 2
 139 420 l 1
 108 425 83 438 62 461 c 0
 41 484 30 511 30 543 c 0
 30 565 36 588 47 610 c 1
 -9 610 l 1
 -9 673 l 1
EndSplineSet
Validated: 1
EndChar

StartChar: u0999
Encoding: 69 2457 65
Width: 614
GlyphClass: 2
Flags: HMW
HStem: 38 56 436 59 527 10G 610 61
VStem: 233 56 463 56 554 57
AnchorPoint: "Anchor-1" 405 40 basechar 0 {} {11-11 0}
AnchorPoint: "Anchor-0" 407 673 basechar 0
LayerCount: 2
Fore
SplineSet
340 570 m 0
 324 550 313 528 307 504 c 1
 336 498 357 495 372 495 c 0
 414 495 444 515 462 556 c 0
 463 559 463 562 463 565 c 0
 463 578 457 589 446 597 c 0
 433 606 420 610 407 610 c 0
 397 610 386 608 376 602 c 0
 364 595 352 585 340 570 c 0
403 671 m 0
 407 671 411 672 415 672 c 0
 439 672 460 663 479 647 c 0
 490 638 501 625 511 610 c 1
 516 597 519 583 519 568 c 0
 519 539 508 511 487 487 c 0
 457 453 418 436 369 436 c 0
 342 436 317 441 295 450 c 0
 291 450 289 435 289 403 c 0
 289 379 297 358 313 339 c 1
 457 409 l 1
 465 416 476 420 490 420 c 0
 496 420 502 419 508 418 c 1
 577 368 611 310 611 244 c 0
 611 189 589 141 545 100 c 0
 501 59 450 38 393 38 c 0
 330 38 270 62 212 110 c 0
 162 151 125 200 100 256 c 0
 83 295 68 337 57 382 c 0
 51 407 42 449 30 511 c 1
 32 528 41 537 56 537 c 0
 67 537 77 531 84 519 c 1
 103 415 127 335 154 278 c 0
 178 229 211 187 252 152 c 0
 298 114 344 94 391 94 c 0
 424 94 456 105 486 126 c 0
 532 158 554 197 554 243 c 0
 554 288 532 327 488 362 c 1
 308 265 l 1
 258 304 233 347 233 394 c 0
 233 425 235 448 240 465 c 0
 239 467 238 468 237 468 c 0
 154 506 97 561 67 633 c 0
 65 640 65 645 67 650 c 0
 68 652 69 654 71 656 c 0
 77 662 85 665 94 665 c 0
 101 665 108 663 114 659 c 1
 153 593 198 547 251 522 c 1
 260 555 280 587 309 617 c 0
 340 650 372 668 403 671 c 0
EndSplineSet
Validated: 1
EndChar

StartChar: u099a
Encoding: 70 2458 66
Width: 468
GlyphClass: 2
Flags: W
HStem: 33 62<131.922 213.364> 610 63<-10 65 127 481>
VStem: 65 62<98.1895 475 538.099 610> 339 57<248.518 381.973>
AnchorPoint: "Anchor-1" 157 31 basechar 0
AnchorPoint: "Anchor-0" 93 673 basechar 0
LayerCount: 2
Fore
SplineSet
127 475 m 1
 127 145 l 2
 127 112 140 95 163 95 c 0
 173 95 184 99 199 107 c 0
 231 125 262 156 292 202 c 0
 324 252 339 297 339 336 c 0
 339 347 338 357 335 366 c 1
 326 381 293 398 236 415 c 0
 179 432 143 452 127 475 c 1
-10 673 m 1
 481 673 l 1
 481 610 l 1
 127 610 l 1
 127 570 l 1
 146 534 178 504 222 483 c 1
 330 440 l 1
 366 423 387 401 393 373 c 0
 396 362 396 350 396 337 c 0
 396 277 374 215 328 152 c 0
 283 89 234 50 181 35 c 0
 177 34 172 33 167 33 c 0
 144 33 122 41 102 58 c 0
 78 77 65 102 65 133 c 2
 65 610 l 1
 -10 610 l 1
 -10 673 l 1
EndSplineSet
Validated: 1
EndChar

StartChar: u099b
Encoding: 71 2459 67
Width: 604
GlyphClass: 2
Flags: HMW
HStem: 97 56 252 49<172 194 172 196> 610 63<-6 85 -6 -6>
VStem: 94 62<320 327 327 524 601 604 604 604> 477 53<378 413 366 416>
AnchorPoint: "Anchor-1" 620 -32 basechar 0
AnchorPoint: "Anchor-0" 213 673 basechar 0
LayerCount: 2
Fore
SplineSet
156 524 m 1
 156 327 l 2
 156 310 164 301 180 301 c 0
 207 301 243 318 286 354 c 0
 329 390 348 420 344 443 c 0
 341 466 315 481 267 488 c 0
 210 497 173 509 156 524 c 1
-6 673 m 1
 616 673 l 1
 616 612 l 1
 156 612 l 1
 156 590 178 572 221 559 c 0
 257 548 296 542 338 542 c 0
 354 542 367 542 376 544 c 1
 426 541 466 525 493 496 c 0
 518 469 530 434 530 392 c 0
 530 341 513 291 479 245 c 0
 454 211 429 184 402 167 c 0
 383 156 359 145 328 136 c 1
 377 134 429 123 485 104 c 0
 547 83 602 55 650 21 c 1
 654 12 656 5 656 -1 c 0
 656 -18 645 -26 622 -25 c 2
 618 -25 l 1
 557 17 487 48 407 67 c 0
 345 82 266 92 172 97 c 1
 162 105 157 116 157 129 c 0
 157 140 161 148 170 152 c 1
 222 158 258 164 276 168 c 0
 311 177 343 194 370 216 c 1
 398 235 423 262 444 296 c 0
 466 331 477 363 477 394 c 0
 477 439 451 468 399 482 c 1
 400 474 401 466 401 458 c 0
 401 403 374 355 320 312 c 0
 271 273 220 252 170 252 c 0
 119 252 94 275 94 320 c 2
 94 604 l 1
 85 610 l 1
 -6 610 l 1
 -6 673 l 1
EndSplineSet
Validated: 33
EndChar

StartChar: u099c
Encoding: 72 2460 68
Width: 830
GlyphClass: 2
Flags: W
HStem: -17 21G<746.5 759.5> 80 56<308.346 478.502> 610 63<-12 324 540 839>
VStem: 29 54<416.589 544.891> 251 58<386.291 516.079> 562 58<210.656 351.278> 666 57<97.6542 339.072>
AnchorPoint: "Anchor-1" 747 -12 basechar 0
AnchorPoint: "Anchor-0" 393 667 basechar 0
LayerCount: 2
Fore
SplineSet
-12 673 m 1
 839 673 l 1
 839 610 l 1
 540 610 l 1
 768 470 l 1
 779 466 784 459 784 447 c 0
 784 442 782 437 779 432 c 0
 741 344 723 272 723 217 c 0
 723 157 741 91 779 19 c 1
 779 -5 770 -17 749 -17 c 0
 744 -17 737 -16 731 -13 c 1
 687 73 666 149 666 216 c 0
 666 275 684 347 720 432 c 1
 431 613 l 1
 397 596 369 571 345 538 c 0
 321 504 309 473 309 443 c 0
 309 411 323 387 350 371 c 0
 353 372 383 384 443 408 c 0
 480 423 513 430 540 430 c 1
 593 391 620 341 620 279 c 0
 620 207 586 152 519 115 c 0
 476 92 434 80 391 80 c 0
 291 80 201 140 120 259 c 1
 103 277 85 311 67 360 c 0
 48 413 35 464 29 515 c 1
 29 536 38 546 54 546 c 0
 64 546 73 540 83 529 c 1
 91 432 124 347 179 272 c 0
 246 182 319 136 396 136 c 0
 441 136 482 153 521 188 c 0
 548 213 562 244 562 280 c 0
 562 317 548 350 519 377 c 1
 506 373 476 361 429 341 c 0
 392 325 361 316 338 315 c 1
 280 340 251 382 251 441 c 0
 251 499 276 555 324 610 c 1
 -12 610 l 1
 -12 673 l 1
EndSplineSet
Validated: 1
EndChar

StartChar: u099d
Encoding: 73 2461 69
Width: 692
GlyphClass: 2
Flags: W
HStem: 610 63<-6 347 619 705>
VStem: 347 62<123 272 351 491 560 610> 557 62<238 610>
AnchorPoint: "Anchor-1" 372 30 basechar 0
AnchorPoint: "Anchor-0" 353 667 basechar 0
LayerCount: 2
Fore
SplineSet
347 491 m 1
 107 342 l 1
 347 123 l 1
 347 491 l 1
557 610 m 2
 557 652 578 673 619 673 c 2
 705 673 l 1
 705 610 l 1
 619 610 l 1
 619 162 l 2
 619 149 608 142 587 142 c 0
 574 142 564 145 557 152 c 2
 409 272 l 1
 409 57 l 2
 409 39 397 31 373 31 c 0
 363 31 354 33 347 39 c 2
 35 326 l 2
 31 329 29 336 29 345 c 0
 29 358 34 368 43 373 c 2
 347 560 l 1
 347 610 l 1
 -6 610 l 1
 -6 673 l 1
 347 673 l 2
 388 673 409 652 409 610 c 2
 409 351 l 1
 557 238 l 1
 557 610 l 2
EndSplineSet
Validated: 1
EndChar

StartChar: u099e
Encoding: 74 2462 70
Width: 902
GlyphClass: 2
Flags: W
HStem: 106 58<125.72 368.509> 125 59<195.328 461.783> 133 60<740.299 825.638> 310 59<735.639 805.381> 608 59<417.361 521.915>
VStem: 17 57<218.866 383.906> 252 62<331.507 516.01> 532 62<123 306 391 599.695> 833 67<396.836 483.873> 845 67<201.941 283.682>
AnchorPoint: "Anchor-1" 568 27 basechar 0
AnchorPoint: "Anchor-0" 480 667 basechar 0
LayerCount: 2
Fore
SplineSet
768 493 m 0x3f80
 743 493 717 475 693 438 c 0
 687 429 670 399 643 348 c 1
 658 311 678 277 704 247 c 0
 736 211 768 193 799 193 c 0
 804 193 809 194 815 195 c 0
 835 208 845 223 845 241 c 0x3f40
 845 258 835 275 817 289 c 0
 798 303 779 310 758 310 c 1
 742 319 734 329 734 340 c 0
 734 351 741 361 754 369 c 1
 777 372 797 381 812 397 c 0
 826 411 833 427 833 444 c 0
 833 477 811 493 768 493 c 0x3f80
594 306 m 1
 594 60 l 2
 594 54 589 48 579 43 c 0
 569 38 558 36 548 36 c 0
 540 36 535 38 532 42 c 0
 490 97 438 125 375 125 c 0x5f40
 355 125 325 121 285 115 c 0
 245 109 215 106 195 106 c 0
 177 106 161 108 146 111 c 1
 98 129 63 155 42 190 c 0
 25 221 17 261 17 312 c 0
 17 330 18 350 20 373 c 1
 29 381 38 385 47 385 c 0
 58 385 68 379 77 369 c 1
 75 334 74 313 74 306 c 0
 74 249 93 208 130 182 c 0
 147 170 169 164 194 164 c 0x9f40
 209 164 236 167 274 174 c 0
 312 181 342 184 364 184 c 0
 425 184 481 164 532 123 c 1
 532 536 l 2
 532 584 516 608 483 608 c 0
 466 608 443 600 414 585 c 0
 348 551 314 502 314 438 c 0
 314 409 320 376 333 337 c 1
 331 320 321 311 301 311 c 0
 290 311 282 314 275 321 c 1
 260 355 252 390 252 426 c 0
 252 480 269 528 302 572 c 0
 335 615 380 644 436 659 c 0
 451 664 465 667 478 667 c 0
 506 667 533 656 559 633 c 0
 583 612 594 581 594 540 c 2
 594 391 l 1
 609 425 628 456 651 485 c 0
 687 529 728 552 776 555 c 1
 811 552 840 540 864 517 c 0
 888 494 900 467 900 437 c 0x5f80
 900 402 883 370 849 342 c 1
 891 315 912 278 912 233 c 0
 912 183 884 150 829 135 c 0
 821 134 812 133 803 133 c 0
 737 133 679 170 630 243 c 0
 617 262 605 283 594 306 c 1
EndSplineSet
Validated: 1
EndChar

StartChar: u099f
Encoding: 75 2463 71
Width: 482
GlyphClass: 2
Flags: W
HStem: 35 80<156.905 260.084> 610 63<-5 80 142 378.999 438 490> 753 60<4.73042 355.99>
VStem: -103 55<860.816 948.497> 80 62<129.783 609> 357 57<232.755 380.051> 379 59<673.327 729.985>
AnchorPoint: "Anchor-1" 182 37 basechar 0
AnchorPoint: "Anchor-0" 127 807 basechar 0
LayerCount: 2
Fore
SplineSet
143 753 m 1xfa
 49 763 -11 775 -35 789 c 0
 -76 811 -99 858 -103 930 c 1
 -102 943 -93 949 -77 949 c 0
 -64 949 -55 945 -48 936 c 1
 -47 885 -29 850 7 832 c 0
 32 819 76 813 139 813 c 2
 198 813 l 2
 271 812 323 806 356 794 c 0
 411 773 438 733 438 673 c 1xfa
 490 673 l 1
 490 610 l 1
 142 610 l 1
 142 176 l 2
 142 159 148 145 160 133 c 0
 172 121 186 115 204 115 c 0
 229 115 254 128 279 154 c 0
 331 210 357 264 357 315 c 0
 357 345 349 367 334 382 c 0
 333 383 320 392 294 412 c 0
 291 416 290 420 290 425 c 0
 290 433 293 440 300 447 c 0
 307 454 315 457 326 457 c 1
 385 416 414 371 414 321 c 0xfc
 414 260 390 198 343 135 c 0
 294 69 242 35 187 35 c 0
 162 35 138 48 115 74 c 0
 92 100 80 128 80 160 c 2
 80 609 l 1
 57 610 32 610 8 610 c 2
 -5 610 l 1
 -5 673 l 1
 376 673 l 1
 378 680 379 686 379 692 c 0
 379 735 329 756 229 756 c 1
 143 753 l 1xfa
EndSplineSet
Validated: 1
EndChar

StartChar: u09a0
Encoding: 76 2464 72
Width: 502
GlyphClass: 2
Flags: W
HStem: 39 55<147.272 280.785> 610 63<-6 192 310 516> 996 56<134.818 200.864>
VStem: 31 60<154.016 254.367> 70 58<871.763 987.493> 231 52<420.693 550.506> 385 54<209.02 411.022>
AnchorPoint: "Anchor-1" 212 39 basechar 0
AnchorPoint: "Anchor-0" 280 667 basechar 0
LayerCount: 2
Fore
SplineSet
282 551 m 1xf6
 283 540 283 528 283 517 c 0
 283 394 219 304 91 246 c 1
 91 216 95 190 105 168 c 0
 110 157 117 146 125 137 c 0
 148 109 177 94 211 94 c 0
 246 94 280 109 312 140 c 0
 361 187 385 241 385 304 c 0
 385 381 350 464 282 551 c 1xf6
70 950 m 0xee
 70 1005 105 1040 176 1052 c 1
 194 1047 203 1035 203 1016 c 0
 203 1006 199 999 192 996 c 1
 149 996 128 980 128 949 c 0xee
 128 927 140 891 163 842 c 1
 205 766 238 709 260 673 c 1
 516 673 l 1
 516 610 l 1
 310 610 l 1
 396 506 439 402 439 297 c 0
 439 232 418 173 377 121 c 0
 333 66 279 39 215 39 c 0
 191 39 167 44 143 52 c 0
 116 61 91 85 67 125 c 0
 43 164 31 202 31 236 c 0xf6
 31 261 38 279 52 292 c 1
 114 317 159 349 188 385 c 0
 217 422 231 468 231 524 c 0
 231 550 228 579 222 610 c 1
 -6 610 l 1
 -6 673 l 1
 192 673 l 1
 185 688 167 721 135 774 c 0
 92 849 70 907 70 950 c 0xee
EndSplineSet
Validated: 1
EndChar

StartChar: u09a1
Encoding: 77 2465 73
Width: 716
GlyphClass: 2
Flags: W
HStem: 35 59<337.027 506.662> 272 61<353.041 422.346> 510 20G<55.5 65> 610 63<-6 290 352 734>
VStem: 30 55<455.312 529.031> 290 62<333.217 610> 601 58<192.009 376.799>
AnchorPoint: "Anchor-1" 439 31 basechar 0
AnchorPoint: "Anchor-0" 307 673 basechar 0
LayerCount: 2
Fore
SplineSet
734 673 m 1
 734 610 l 1
 352 610 l 1
 352 353 l 1
 357 340 365 333 376 333 c 0
 394 333 418 347 447 376 c 0
 473 402 498 433 523 470 c 0
 527 477 534 480 543 480 c 0
 557 480 570 474 581 463 c 0
 633 414 659 358 659 296 c 0
 659 264 652 229 639 190 c 1
 589 88 521 36 435 35 c 0
 398 35 362 43 326 58 c 0
 308 66 289 75 271 87 c 0
 227 116 191 152 162 195 c 0
 111 271 67 373 30 502 c 0
 30 507 31 511 33 515 c 0
 34 517 36 519 38 521 c 0
 44 527 51 530 60 530 c 0
 70 530 78 526 85 519 c 1
 120 408 152 329 180 281 c 1
 204 229 239 184 285 148 c 0
 332 112 379 94 427 94 c 0
 482 94 527 119 564 168 c 0
 589 201 601 240 601 285 c 0
 601 335 586 377 556 412 c 1
 511 361 482 330 469 319 c 0
 432 288 395 272 358 272 c 1
 313 279 290 316 290 382 c 2
 290 610 l 1
 -6 610 l 1
 -6 673 l 1
 734 673 l 1
EndSplineSet
Validated: 1
EndChar

StartChar: u09a2
Encoding: 78 2466 74
Width: 486
GlyphClass: 2
Flags: W
HStem: 35 80<171.729 274.084> 610 63<-6 94 156 504>
VStem: 94 62<133.564 609> 371 57<232.755 380.051>
AnchorPoint: "Anchor-1" 202 36 basechar 0
AnchorPoint: "Anchor-0" 120 680 basechar 0
LayerCount: 2
Fore
SplineSet
-6 673 m 1
 504 673 l 1
 504 610 l 1
 156 610 l 1
 156 176 l 2
 156 159 161 145 173 133 c 0
 185 121 200 115 218 115 c 0
 243 115 268 128 293 154 c 0
 345 210 371 264 371 315 c 0
 371 345 363 367 348 382 c 0
 347 383 334 392 308 412 c 0
 305 416 304 420 304 425 c 0
 304 433 307 440 314 447 c 0
 321 454 329 457 340 457 c 1
 399 416 428 371 428 321 c 0
 428 260 404 198 357 135 c 0
 308 69 256 35 201 35 c 0
 176 35 152 48 129 74 c 0
 106 100 94 128 94 160 c 2
 94 609 l 1
 -6 610 l 1
 -6 673 l 1
EndSplineSet
Validated: 1
EndChar

StartChar: u09a3
Encoding: 79 2467 75
Width: 513
GlyphClass: 2
Flags: W
HStem: 283 56<143.482 209.801> 591 55<155.154 309.721> 610 63<448 523>
VStem: 40 55<389.019 530.909> 386 62<44.8503 519.426 588 608.018>
AnchorPoint: "Anchor-1" 422 41 basechar 0
AnchorPoint: "Anchor-0" 453 660 basechar 0
LayerCount: 2
Fore
SplineSet
386 68 m 2xb8
 386 414 l 2
 386 429 382 455 374 493 c 0
 369 520 351 543 322 562 c 0
 293 581 262 591 228 591 c 0
 193 591 164 580 140 558 c 0
 110 531 95 498 95 461 c 0
 95 430 105 401 125 377 c 0
 145 353 170 340 200 339 c 1
 208 336 212 330 212 319 c 0
 212 311 210 302 205 295 c 0
 200 287 194 283 187 283 c 0
 115 297 69 336 49 398 c 0
 42 419 40 440 40 461 c 0
 40 506 53 544 80 578 c 0
 116 623 171 646 246 646 c 0xd8
 293 646 340 627 386 588 c 1
 386 645 407 673 448 673 c 2
 523 673 l 1
 523 610 l 1
 448 610 l 1
 448 69 l 2
 448 52 438 44 419 44 c 0
 397 44 386 52 386 68 c 2xb8
EndSplineSet
Validated: 1
EndChar

StartChar: u09a4
Encoding: 80 2468 76
Width: 712
GlyphClass: 2
Flags: W
HStem: 38 59<340.766 506.965> 489 58<390.815 527.428> 610 63<-6 726>
VStem: 311 59<355.524 468.453> 592 58<199.909 421.984>
AnchorPoint: "Anchor-1" 437 40 basechar 0
AnchorPoint: "Anchor-0" 380 673 basechar 0
LayerCount: 2
Fore
SplineSet
454 547 m 0
 495 547 531 537 561 516 c 0
 576 505 589 491 601 475 c 0
 634 432 650 378 650 313 c 0
 650 292 648 271 644 250 c 0
 632 187 608 137 573 99 c 0
 535 58 489 38 434 38 c 0
 420 38 406 39 392 42 c 0
 337 52 291 71 254 99 c 0
 232 116 205 144 172 184 c 0
 94 281 46 394 30 523 c 0
 29 528 29 532 31 536 c 0
 32 538 34 540 36 542 c 0
 43 547 50 549 59 549 c 0
 72 549 80 544 84 534 c 0
 104 453 120 397 132 366 c 0
 153 311 184 259 223 211 c 0
 254 174 283 148 308 133 c 0
 326 123 358 111 405 98 c 0
 413 97 421 97 428 97 c 0
 480 97 521 118 550 161 c 0
 575 199 589 248 592 310 c 0
 595 369 582 415 552 447 c 0
 523 477 487 491 445 489 c 0
 443 489 441 489 439 489 c 0
 393 481 370 456 370 416 c 0
 370 397 375 381 386 366 c 1
 386 346 376 336 355 336 c 0
 348 336 341 338 334 342 c 1
 319 367 311 392 311 417 c 0
 311 454 326 485 355 510 c 0
 384 535 417 547 454 547 c 0
-6 673 m 1
 726 673 l 1
 726 610 l 1
 -6 610 l 1
 -6 673 l 1
EndSplineSet
Validated: 33
EndChar

StartChar: u09a5
Encoding: 81 2469 77
Width: 561
GlyphClass: 2
Flags: W
HStem: 595 58<99.6649 233.989> 610 63<491 567>
VStem: 13 56<468.738 562.18> 266 56<427.671 563.476> 429 62<117 610>
AnchorPoint: "Anchor-1" 461 41 basechar 0
AnchorPoint: "Anchor-0" 500 667 basechar 0
LayerCount: 2
Fore
SplineSet
164 653 m 0xb8
 212 653 250 639 279 611 c 0
 308 583 322 548 322 504 c 0
 322 469 312 432 293 394 c 0
 276 361 243 327 194 292 c 1
 429 117 l 1
 429 610 l 2
 429 631 436 647 450 658 c 0
 461 668 475 673 491 673 c 2
 567 673 l 1
 567 610 l 1
 491 610 l 1x78
 491 60 l 2
 491 47 479 40 453 40 c 0
 443 40 435 42 429 46 c 2
 123 274 l 1
 119 283 116 292 116 299 c 0
 116 310 120 318 129 321 c 0
 164 335 196 360 224 397 c 0
 252 434 266 469 266 504 c 0
 266 547 243 576 199 592 c 1
 186 594 174 595 164 595 c 0
 104 595 72 560 69 489 c 1
 66 475 57 468 38 468 c 0
 25 468 17 473 13 482 c 1
 9 558 30 609 76 634 c 0
 99 647 129 653 164 653 c 0xb8
EndSplineSet
Validated: 33
EndChar

StartChar: u09a6
Encoding: 82 2470 78
Width: 436
GlyphClass: 2
Flags: W
HStem: 610 63<-6 40 102 447>
VStem: 40 62<375 610> 262 58<134.204 395.955>
AnchorPoint: "Anchor-1" 353 37 basechar 0
AnchorPoint: "Anchor-0" 67 667 basechar 0
LayerCount: 2
Fore
SplineSet
447 673 m 1
 447 610 l 1
 102 610 l 1
 102 375 l 1
 121 398 155 427 204 460 c 0
 261 499 304 517 333 514 c 0
 334 514 336 513 337 513 c 0
 358 511 369 499 368 478 c 1
 336 389 320 316 320 258 c 0
 320 196 336 133 370 69 c 1
 372 61 370 54 365 49 c 2
 358 44 l 1
 355 43 l 2
 346 40 334 39 320 40 c 1
 282 108 262 178 262 251 c 0
 262 306 274 370 296 443 c 1
 221 414 154 364 95 294 c 1
 87 289 78 287 68 287 c 0
 49 287 40 295 40 310 c 2
 40 610 l 1
 -6 610 l 1
 -6 673 l 1
 447 673 l 1
EndSplineSet
Validated: 33
EndChar

StartChar: u09a7
Encoding: 83 2471 79
Width: 474
GlyphClass: 2
Flags: W
HStem: 610 63<95.4418 197.242 408 484>
VStem: 27 58<515.468 597.733> 346 62<121 495 564 610>
AnchorPoint: "Anchor-1" 368 34 basechar 0
AnchorPoint: "Anchor-0" 407 653 basechar 0
LayerCount: 2
Fore
SplineSet
346 121 m 1
 346 495 l 1
 101 344 l 1
 346 121 l 1
484 673 m 1
 484 610 l 1
 408 610 l 1
 408 53 l 2
 408 42 395 37 370 37 c 0
 360 37 352 39 346 42 c 2
 36 328 l 2
 32 333 30 339 30 347 c 0
 30 359 34 370 43 380 c 1
 133 432 l 1
 81 455 46 489 29 534 c 0
 28 542 27 550 27 558 c 0
 27 597 43 626 75 646 c 0
 102 663 138 671 181 671 c 1
 193 668 199 659 199 646 c 0
 199 629 193 618 182 612 c 1
 117 612 85 595 85 562 c 0
 85 555 87 546 90 538 c 0
 113 499 147 480 192 480 c 0
 199 480 207 481 214 482 c 1
 346 564 l 1
 346 610 l 2
 346 652 367 673 408 673 c 2
 484 673 l 1
EndSplineSet
Validated: 1
EndChar

StartChar: u09a8
Encoding: 84 2472 80
Width: 519
GlyphClass: 2
Flags: W
HStem: 395 58<149.363 320.071> 610 63<-6 388 450 526>
VStem: 40 59<199.841 345.882> 388 62<33.4395 323.33 390 610>
AnchorPoint: "Anchor-1" 421 28 basechar 0
AnchorPoint: "Anchor-0" 400 673 basechar 0
LayerCount: 2
Fore
SplineSet
526 673 m 1
 526 610 l 1
 450 610 l 1
 450 51 l 2
 450 39 440 33 419 33 c 0
 398 33 388 39 388 51 c 2
 388 263 l 1
 379 301 366 331 347 352 c 0
 320 381 281 395 230 395 c 0
 193 395 161 385 137 364 c 0
 112 342 99 312 99 276 c 0
 99 241 107 215 122 198 c 0
 132 187 148 175 171 162 c 0
 176 157 178 152 178 146 c 0
 178 137 175 130 168 123 c 0
 161 117 154 114 147 115 c 0
 146 115 146 115 145 115 c 0
 104 131 75 158 58 195 c 0
 46 222 40 249 40 277 c 0
 40 321 55 359 83 392 c 0
 118 433 169 453 236 453 c 0
 295 453 345 432 388 390 c 1
 388 610 l 1
 -6 610 l 1
 -6 673 l 1
 526 673 l 1
EndSplineSet
Validated: 1
EndChar

StartChar: u09aa
Encoding: 85 2474 81
Width: 646
GlyphClass: 2
Flags: W
HStem: 606 60<189.194 344.23> 610 63<576 652>
VStem: 514 62<35.6394 417.506 502 609.795>
AnchorPoint: "Anchor-1" 546 35 basechar 0
AnchorPoint: "Anchor-0" 320 673 basechar 0
LayerCount: 2
Fore
SplineSet
402 542 m 1xa0
 357 585 312 606 267 606 c 0
 222 606 178 585 134 542 c 1
 256 398 l 1
 402 542 l 1xa0
514 502 m 1
 514 609 l 2
 514 626 520 641 532 654 c 0
 544 667 559 673 576 673 c 2
 652 673 l 1
 652 610 l 1
 576 610 l 1x60
 576 55 l 2
 576 42 566 35 546 35 c 0
 525 35 514 41 514 54 c 2
 514 328 l 2
 514 359 506 390 490 422 c 0
 483 437 467 463 442 500 c 1
 213 276 l 1
 205 274 197 275 191 277 c 0
 188 278 186 279 183 281 c 0
 175 288 170 296 170 306 c 0
 170 310 171 314 172 317 c 2
 212 358 l 1
 100 493 l 1
 70 443 l 1
 65 440 61 439 56 439 c 0
 47 439 38 442 31 449 c 0
 24 456 20 463 19 472 c 1
 66 575 137 638 231 661 c 0
 246 664 260 666 275 666 c 0
 363 666 443 611 514 502 c 1
EndSplineSet
Validated: 1
EndChar

StartChar: u09ab
Encoding: 86 2475 82
Width: 683
GlyphClass: 2
Flags: W
HStem: 233 59<500.282 553.085> 515 55<423 517.605> 610 63<-9 16 96 694>
VStem: 361 62<121 515> 575 59<313.525 461.17>
AnchorPoint: "Anchor-1" 395 31 basechar 0
AnchorPoint: "Anchor-0" 293 667 basechar 0
LayerCount: 2
Fore
SplineSet
694 673 m 1
 694 610 l 1
 96 610 l 1
 227 463 l 1
 233 449 234 437 230 429 c 0
 228 424 225 421 221 418 c 2
 118 321 l 1
 361 121 l 1
 361 514 l 2
 361 551 372 570 393 570 c 0
 505 570 578 538 612 474 c 0
 627 446 634 417 634 387 c 0
 634 348 623 313 601 282 c 0
 579 252 553 236 525 233 c 1
 508 235 499 246 499 267 c 0
 499 280 504 288 515 292 c 1
 525 291 534 294 543 302 c 0
 548 307 553 312 557 319 c 0
 569 339 575 362 575 389 c 0
 575 411 570 431 560 450 c 0
 538 493 492 515 423 515 c 1
 423 62 l 2
 424 51 420 44 412 40 c 0
 408 38 403 37 396 37 c 0
 382 37 370 41 361 49 c 2
 57 297 l 1
 53 305 51 312 51 319 c 0
 51 328 55 338 63 347 c 2
 166 443 l 1
 16 610 l 1
 -9 610 l 1
 -9 673 l 1
 694 673 l 1
EndSplineSet
Validated: 33
EndChar

StartChar: u09ac
Encoding: 87 2476 83
Width: 478
GlyphClass: 2
Flags: W
HStem: 610 63<-6 349 411 487>
VStem: 349 62<128 500 564 610>
AnchorPoint: "Anchor-1" 374 35 basechar 0
AnchorPoint: "Anchor-0" 327 667 basechar 0
LayerCount: 2
Fore
SplineSet
349 128 m 1
 349 500 l 1
 104 347 l 1
 349 128 l 1
-6 673 m 1
 487 673 l 1
 487 610 l 1
 411 610 l 1
 411 62 l 1
 407 47 395 39 376 39 c 0
 365 39 356 42 349 49 c 2
 38 332 l 2
 32 337 30 343 30 352 c 0
 30 363 33 371 40 375 c 2
 349 564 l 1
 349 610 l 1
 -6 610 l 1
 -6 673 l 1
EndSplineSet
Validated: 1
EndChar

StartChar: u09ad
Encoding: 88 2477 84
Width: 780
GlyphClass: 2
Flags: W
HStem: 24 67<363.342 552.112> 288 56<395.5 514.004> 610 63<-6 799>
VStem: 30 52<477.908 582.67> 317 61<361.058 475.25> 667 60<201.522 359.88>
AnchorPoint: "Anchor-1" 471 21 basechar 0
AnchorPoint: "Anchor-0" 360 667 basechar 0
LayerCount: 2
Fore
SplineSet
82 577 m 1
 94 492 121 408 164 326 c 0
 196 264 234 213 277 172 c 0
 334 118 394 91 457 91 c 0
 527 91 584 119 628 175 c 0
 654 209 667 244 667 283 c 0
 667 322 652 358 622 392 c 1
 573 335 528 301 486 292 c 0
 474 289 462 288 450 288 c 0
 411 288 379 302 354 329 c 0
 329 356 317 390 317 430 c 0
 317 447 319 465 325 482 c 1
 332 489 339 493 348 493 c 0
 361 493 373 485 383 470 c 1
 380 455 378 442 378 429 c 0
 378 372 401 344 449 344 c 0
 456 344 464 345 471 347 c 0
 499 354 523 368 543 390 c 0
 552 400 566 420 586 452 c 0
 591 462 601 468 617 468 c 0
 624 468 630 466 636 461 c 0
 697 405 727 345 727 283 c 0
 727 246 716 210 695 173 c 0
 638 74 560 24 462 24 c 0
 349 24 249 89 160 220 c 0
 121 277 92 332 73 382 c 0
 55 430 41 489 30 562 c 1
 34 576 42 583 57 583 c 0
 65 583 73 581 82 577 c 1
-6 673 m 1
 799 673 l 1
 799 610 l 1
 -6 610 l 1
 -6 673 l 1
EndSplineSet
Validated: 1
EndChar

StartChar: u09ae
Encoding: 89 2478 85
Width: 564
GlyphClass: 2
Flags: W
HStem: 67 56<168.766 248.255> 359 59<239.304 328.729> 610 63<-6 78 147 433 495 571>
VStem: 68 56<169.622 308.75> 433 62<39.6394 248.484 324 610>
AnchorPoint: "Anchor-1" 464 34 basechar 0
AnchorPoint: "Anchor-0" 273 667 basechar 0
LayerCount: 2
Fore
SplineSet
433 610 m 1
 147 610 l 1
 108 547 l 1
 145 542 176 529 201 506 c 0
 226 484 240 454 242 418 c 1
 267 419 291 416 314 409 c 0
 326 405 337 401 348 395 c 0
 373 381 402 357 433 324 c 1
 433 610 l 1
-6 673 m 1
 571 673 l 1
 571 610 l 1
 495 610 l 1
 495 57 l 2
 495 45 486 39 466 39 c 0
 444 39 433 45 433 58 c 2
 433 102 l 2
 433 150 430 188 423 215 c 0
 413 255 393 287 364 310 c 1
 330 343 291 359 248 359 c 0
 193 359 154 333 130 283 c 1
 126 269 124 255 124 241 c 0
 124 208 134 181 153 159 c 0
 174 135 201 123 236 123 c 1
 245 119 249 111 249 99 c 0
 249 78 242 67 227 67 c 0
 146 74 95 117 72 195 c 1
 69 213 68 228 68 243 c 0
 68 312 106 366 183 407 c 1
 184 428 178 446 166 459 c 2
 155 469 l 2
 151 472 148 474 143 476 c 0
 123 486 98 491 69 489 c 0
 66 489 63 489 60 489 c 0
 40 493 30 503 30 522 c 0
 30 526 30 530 31 534 c 2
 78 610 l 1
 -6 610 l 1
 -6 673 l 1
EndSplineSet
Validated: 33
EndChar

StartChar: u09af
Encoding: 90 2479 86
Width: 489
GlyphClass: 2
Flags: W
HStem: 610 63<-6 20 97 358 420 496>
VStem: 358 62<115 610>
AnchorPoint: "Anchor-1" 385 29 basechar 0
AnchorPoint: "Anchor-0" 347 687 basechar 0
LayerCount: 2
Fore
SplineSet
-6 673 m 1
 496 673 l 1
 496 610 l 1
 420 610 l 1
 420 60 l 2
 420 43 408 34 385 34 c 0
 375 34 365 37 358 42 c 2
 32 278 l 2
 25 284 21 291 21 299 c 0
 21 306 24 314 29 321 c 1
 164 439 l 1
 20 610 l 1
 -6 610 l 1
 -6 673 l 1
97 610 m 1
 227 452 l 1
 232 440 233 431 230 423 c 0
 229 419 227 415 223 412 c 2
 92 302 l 1
 358 115 l 1
 358 610 l 1
 97 610 l 1
EndSplineSet
Validated: 1
EndChar

StartChar: u09b0
Encoding: 91 2480 87
Width: 480
GlyphClass: 2
Flags: W
HStem: 9 73<169 248> 610 63<-6 349 411 487>
VStem: 169 79<9 82> 349 62<128 500 564 610>
AnchorPoint: "Anchor-1" 378 34 basechar 0
AnchorPoint: "Anchor-0" 320 680 basechar 0
LayerCount: 2
Fore
SplineSet
349 128 m 1
 349 500 l 1
 104 347 l 1
 349 128 l 1
-6 673 m 1
 487 673 l 1
 487 610 l 1
 411 610 l 1
 411 62 l 1
 407 47 395 39 376 39 c 0
 365 39 356 42 349 49 c 2
 38 332 l 2
 32 337 30 343 30 352 c 0
 30 363 33 371 40 375 c 2
 349 564 l 1
 349 610 l 1
 -6 610 l 1
 -6 673 l 1
169 82 m 1
 248 82 l 1
 248 9 l 1
 169 9 l 1
 169 82 l 1
EndSplineSet
Validated: 1
EndChar

StartChar: u09b2
Encoding: 92 2482 88
Width: 682
GlyphClass: 2
Flags: W
HStem: 185 56<138.014 246.554> 463 58<391.414 489.916> 469 59<131.443 267.201> 610 63<-6 557 619 695>
VStem: 29 59<288.197 424.831> 557 62<32.0613 386.309 452 610>
AnchorPoint: "Anchor-1" 584 34 basechar 0
AnchorPoint: "Anchor-0" 325 670 basechar 0
LayerCount: 2
Fore
SplineSet
695 673 m 1xdc
 695 610 l 1
 619 610 l 1
 619 62 l 2
 619 41 608 31 587 31 c 0
 567 31 557 40 557 60 c 2
 557 351 l 1
 518 426 478 463 438 463 c 0xdc
 407 463 380 439 359 390 c 1
 354 384 345 382 332 382 c 0
 319 382 310 385 304 392 c 1
 286 443 251 469 200 469 c 0
 152 469 117 447 96 401 c 0
 90 385 88 370 88 355 c 0
 88 322 100 294 124 273 c 0
 148 252 177 241 211 241 c 0
 217 241 223 241 229 242 c 1
 242 237 248 229 248 218 c 0
 248 204 242 193 229 186 c 1
 222 185 215 185 208 185 c 0
 157 185 115 201 80 235 c 0
 46 269 29 309 29 355 c 0
 29 386 38 417 56 446 c 0
 90 501 138 528 200 528 c 0xbc
 254 528 297 506 331 461 c 1
 365 501 399 521 434 521 c 0
 472 521 513 498 557 452 c 1
 557 610 l 1
 -6 610 l 1
 -6 673 l 1
 695 673 l 1xdc
EndSplineSet
Validated: 1
EndChar

StartChar: u09b6
Encoding: 93 2486 89
Width: 627
GlyphClass: 2
Flags: W
HStem: 342 56<5.26969 101.937 300.852 399.404> 610 63<-15.3804 116.043 277.637 441.968 562 638>
VStem: 500 62<40.8581 560.032 609 609.656>
AnchorPoint: "Anchor-1" 538 37 basechar 0
AnchorPoint: "Anchor-0" 350 670 basechar 0
LayerCount: 2
Fore
SplineSet
562 610 m 1
 562 60 l 2
 562 47 553 40 534 40 c 0
 511 40 500 47 500 60 c 2
 500 513 l 2
 500 536 486 558 457 579 c 0
 426 601 390 612 350 612 c 0
 323 612 298 604 277 588 c 0
 252 569 241 546 242 516 c 2
 242 513 l 1
 244 473 259 445 287 427 c 0
 309 413 345 403 395 398 c 1
 400 395 401 390 401 381 c 0
 401 363 397 350 388 342 c 1
 336 347 297 355 274 367 c 0
 247 381 224 407 203 445 c 1
 180 401 154 372 123 357 c 0
 102 348 67 342 17 339 c 1
 9 345 4 354 4 366 c 0
 4 377 8 387 15 395 c 1
 51 397 81 406 108 423 c 0
 137 442 156 465 163 494 c 0
 167 509 165 524 158 539 c 0
 155 546 150 554 144 562 c 0
 126 585 105 599 80 605 c 0
 65 608 39 610 -0 610 c 0
 -10 610 -16 621 -16 643 c 0
 -16 663 -10 673 -0 673 c 0
 53 673 88 670 106 664 c 0
 142 653 175 624 202 577 c 1
 223 610 245 633 266 646 c 0
 285 659 313 668 350 673 c 0
 369 674 388 672 408 667 c 0
 418 664 428 660 439 656 c 0
 471 643 492 628 500 609 c 1
 500 623 506 637 518 651 c 0
 530 665 545 673 562 673 c 2
 638 673 l 1
 638 610 l 1
 562 610 l 1
EndSplineSet
Validated: 33
EndChar

StartChar: u09b7
Encoding: 94 2487 90
Width: 489
GlyphClass: 2
Flags: W
HStem: 610 63<-6 20 97 358 420 496>
VStem: 358 62<115 329 392 610>
AnchorPoint: "Anchor-1" 383 36 basechar 0
AnchorPoint: "Anchor-0" 230 680 basechar 0
LayerCount: 2
Fore
SplineSet
496 610 m 1
 420 610 l 1
 420 60 l 2
 420 43 408 34 385 34 c 0
 375 34 365 37 358 42 c 2
 32 278 l 2
 25 284 21 291 21 299 c 0
 21 306 24 314 29 321 c 1
 164 439 l 1
 20 610 l 1
 -6 610 l 1
 -6 673 l 1
 496 673 l 1
 496 610 l 1
358 392 m 1
 358 610 l 1
 97 610 l 1
 226 453 l 1
 358 392 l 1
358 115 m 1
 358 329 l 1
 205 397 l 1
 92 302 l 1
 358 115 l 1
EndSplineSet
Validated: 1
EndChar

StartChar: u09b8
Encoding: 95 2488 91
Width: 650
GlyphClass: 2
Flags: W
HStem: 120 60<118.953 207.003> 393 56<366.6 439.98> 610 63<-6 143 218 524 586 662>
VStem: 524 62<29.8581 258.926 364 610>
AnchorPoint: "Anchor-1" 563 27 basechar 0
AnchorPoint: "Anchor-0" 365 670 basechar 0
LayerCount: 2
Fore
SplineSet
524 610 m 1
 218 610 l 1
 177 542 l 1
 216 535 249 522 274 503 c 0
 295 488 318 463 341 429 c 1
 361 442 380 449 399 449 c 0
 433 449 474 421 524 364 c 1
 524 610 l 1
662 673 m 1
 662 610 l 1
 586 610 l 1
 586 49 l 2
 586 36 577 29 558 29 c 0
 535 29 524 36 524 49 c 2
 524 117 l 2
 524 192 509 258 479 315 c 0
 452 367 425 393 397 393 c 0
 382 393 371 384 364 366 c 1
 343 296 315 239 280 193 c 0
 242 144 203 120 162 120 c 0
 115 120 72 153 33 220 c 0
 31 225 31 229 31 233 c 0
 31 250 40 258 60 258 c 0
 67 258 75 256 82 252 c 1
 109 204 136 180 164 180 c 0
 206 180 252 243 303 369 c 1
 280 413 258 443 235 460 c 0
 210 478 173 488 125 489 c 0
 112 488 104 491 100 499 c 0
 98 503 96 508 96 515 c 0
 96 522 98 528 102 534 c 2
 143 610 l 1
 -6 610 l 1
 -6 673 l 1
 662 673 l 1
EndSplineSet
Validated: 1
EndChar

StartChar: u09b9
Encoding: 96 2489 92
Width: 443
GlyphClass: 2
Flags: W
HStem: 536 58<201.172 309.062> 610 63<-6 108 184 455>
VStem: 58 56<402.521 491.062> 353 57<354.894 490.027>
AnchorPoint: "Anchor-1" 512 -51 basechar 0
AnchorPoint: "Anchor-0" 180 670 basechar 0
LayerCount: 2
Fore
SplineSet
455 673 m 1
 455 610 l 1
 184 610 l 2
 183 610 184 609 187 608 c 0
 189 607 191 606 194 605 c 0
 206 600 214 596 217 592 c 1
 224 594 231 594 239 594 c 0
 280 594 316 582 348 558 c 0
 389 526 410 478 410 416 c 0
 410 405 409 393 408 382 c 0
 383 286 297 229 150 211 c 1
 501 -6 l 1
 502 -10 503 -14 503 -18 c 0
 503 -36 493 -45 474 -44 c 2
 471 -44 l 1
 29 227 l 1
 23 235 20 243 20 252 c 0
 20 271 28 280 45 280 c 0
 48 280 52 279 56 278 c 0
 83 274 110 272 134 272 c 0
 245 272 317 310 350 387 c 1
 352 397 353 407 353 418 c 0
 353 447 345 472 329 494 c 0
 309 522 278 536 236 536 c 0
 159 536 118 496 114 416 c 1
 108 407 99 402 86 402 c 0
 72 402 63 409 58 423 c 1
 58 454 67 484 84 513 c 0
 101 542 124 563 152 574 c 1
 108 610 l 1
 -6 610 l 1
 -6 673 l 1
 455 673 l 1
EndSplineSet
Validated: 33
EndChar

StartChar: u09bc
Encoding: 97 2492 93
Width: 5
GlyphClass: 2
Flags: W
HStem: -78 73<-184 -105>
VStem: -184 79<-78 -5>
LayerCount: 2
Fore
SplineSet
-184 -5 m 1
 -105 -5 l 1
 -105 -78 l 1
 -184 -78 l 1
 -184 -5 l 1
EndSplineSet
Validated: 1
EndChar

StartChar: avagraha
Encoding: 98 2493 94
Width: 443
GlyphClass: 2
Flags: W
HStem: 536 58<204.566 311.28>
VStem: 60 56<402.521 491.062> 355 57<354.894 490.027>
LayerCount: 2
Fore
SplineSet
-4 673 m 5
 40 683 85 677 129 655 c 4
 151 644 174 629 196 610 c 6
 219 592 l 5
 226 594 233 594 241 594 c 4
 282 594 319 582 350 558 c 4
 391 526 412 478 412 416 c 4
 412 405 411 393 410 382 c 4
 385 286 299 229 152 211 c 5
 503 -6 l 5
 504 -10 505 -14 505 -18 c 4
 505 -36 495 -45 476 -44 c 6
 473 -44 l 5
 31 227 l 5
 25 235 22 243 22 252 c 4
 22 271 30 280 47 280 c 4
 50 280 54 279 58 278 c 4
 85 274 111 272 136 272 c 4
 247 272 319 310 352 387 c 5
 354 397 355 407 355 418 c 4
 355 447 347 472 331 494 c 4
 311 522 280 536 238 536 c 4
 161 536 120 496 116 416 c 5
 110 407 101 402 88 402 c 4
 74 402 65 409 60 423 c 5
 60 454 69 484 86 513 c 4
 103 542 126 563 154 574 c 5
 113 611 70 626 23 617 c 4
 14 615 5 613 -4 610 c 5
 -4 673 l 5
EndSplineSet
Validated: 33
EndChar

StartChar: u09be
Encoding: 99 2494 95
Width: 246
GlyphClass: 2
Flags: W
HStem: 610 63<-6 100 162 243>
VStem: 100 62<47.5273 610>
LayerCount: 2
Fore
SplineSet
243 673 m 1
 243 610 l 1
 162 610 l 1
 162 62 l 2
 162 52 151 47 130 47 c 0
 110 47 100 53 100 64 c 2
 100 610 l 1
 -6 610 l 1
 -6 673 l 1
 243 673 l 1
EndSplineSet
Validated: 1
EndChar

StartChar: u09bf
Encoding: 100 2495 96
Width: 231
GlyphClass: 2
Flags: W
HStem: 610 63<-6 86 162 243> 897 57<197.755 429.761>
VStem: 45 65<700.738 826.855> 100 62<48.6328 610>
LayerCount: 2
Fore
SplineSet
638 786 m 0xe0
 639 782 640 778 640 775 c 0
 640 757 630 748 610 748 c 0
 605 748 600 749 595 751 c 1
 510 848 419 897 321 897 c 0
 290 897 257 893 221 885 c 1
 147 857 110 818 110 769 c 0xe0
 110 738 124 706 152 673 c 1
 243 673 l 1
 243 610 l 1
 162 610 l 1
 162 66 l 2
 162 54 151 48 130 48 c 0
 110 48 100 55 100 68 c 2
 100 610 l 1xd0
 -6 610 l 1
 -6 673 l 1
 86 673 l 1
 59 700 45 731 45 766 c 0
 45 823 74 871 132 908 c 1
 192 939 254 954 318 954 c 0
 445 954 552 898 638 786 c 0xe0
EndSplineSet
Validated: 1
Substitution2: "'salt' Stylistic Alternatives in Bengali2 lookup 17-1" u09bf.salt
EndChar

StartChar: u09c0
Encoding: 101 2496 97
Width: 231
GlyphClass: 2
Flags: W
HStem: 610 63<-10 89 162 243> 735 59<-365.466 -112.563> 880 54<-317.969 -69.5359>
VStem: -420 54<802.087 836.673> -80 57<616.328 698.522> 89 59<673 733.732> 100 62<30.8018 610>
LayerCount: 2
Fore
SplineSet
-98 925 m 0xfc
 49 895 131 811 148 673 c 1xfc
 243 673 l 1
 243 610 l 1
 162 610 l 1
 162 62 l 2
 162 41 152 30 131 30 c 0
 110 30 100 41 100 62 c 2
 100 610 l 1xfa
 -10 610 l 1
 -10 673 l 1
 89 673 l 1
 64 782 -3 848 -111 871 c 0
 -138 877 -166 880 -195 880 c 0
 -260 880 -315 866 -359 837 c 1
 -364 830 -366 824 -366 818 c 0
 -366 803 -337 795 -277 794 c 0
 -199 793 -144 786 -111 773 c 0
 -52 750 -23 705 -23 637 c 1
 -29 622 -40 615 -56 615 c 0
 -66 615 -74 620 -80 630 c 1
 -85 666 -91 689 -97 699 c 0
 -107 714 -127 724 -158 729 c 0
 -176 732 -216 734 -277 735 c 0
 -327 736 -362 741 -382 751 c 0
 -410 764 -422 788 -420 824 c 0
 -420 826 -420 827 -420 828 c 0
 -417 864 -391 892 -342 911 c 0
 -303 926 -254 934 -195 934 c 0
 -159 934 -127 931 -98 925 c 0xfc
EndSplineSet
Validated: 33
Substitution2: "'salt' Stylistic Alternatives in Bengali2 lookup 17-1" u09c0.salt
EndChar

StartChar: u09c1
Encoding: 102 2497 98
Width: 5
GlyphClass: 2
Flags: W
HStem: -124 39<-221.742 -149.966> -17 40<-221.206 -126.784>
VStem: -280 56<-82.6658 -19.8595> -118 59<11 60.0142>
AnchorPoint: "Anchor-1" -100 65 mark 0
LayerCount: 2
Fore
SplineSet
-224 -52 m 0
 -224 -74 -211 -85 -184 -85 c 0
 -174 -85 -163 -79 -151 -67 c 0
 -139 -55 -131 -43 -126 -30 c 1
 -147 -22 -166 -17 -182 -17 c 0
 -210 -17 -224 -29 -224 -52 c 0
-265 -93 m 0
 -275 -81 -280 -68 -280 -55 c 0
 -280 -38 -273 -22 -258 -7 c 0
 -239 13 -218 23 -195 23 c 0
 -175 23 -149 19 -118 11 c 1
 -117 16 -118 26 -121 39 c 0
 -123 46 -125 53 -128 61 c 1
 -75 61 l 1
 -63 40 -58 17 -59 -6 c 0
 -59 -8 -59 -9 -59 -11 c 2
 66 -75 l 2
 69 -77 71 -80 71 -85 c 0
 71 -92 68 -99 63 -106 c 0
 58 -112 54 -115 49 -114 c 0
 48 -114 48 -113 47 -113 c 2
 -72 -54 l 1
 -81 -75 -97 -92 -119 -105 c 0
 -141 -118 -165 -124 -190 -124 c 0
 -224 -124 -248 -114 -265 -93 c 0
EndSplineSet
Validated: 33
EndChar

StartChar: u09c2
Encoding: 103 2498 99
Width: 5
GlyphClass: 2
Flags: W
HStem: -120 48<-184.274 -87.3062> -19 80<-128 -66.5625> -14 49<-181.192 -121.272>
VStem: -235 49<-69.9976 -20.0173>
AnchorPoint: "Anchor-1" -95 55 mark 0
LayerCount: 2
Fore
SplineSet
-162 35 m 0xb0
 -149 39 -135 39 -121 35 c 1xb0
 -122 44 -125 53 -128 61 c 1
 -75 61 l 1
 -66 49 -61 36 -60 23 c 0
 -60 16 -62 9 -67 2 c 0
 -70 -2 -73 -5 -78 -8 c 0
 -90 -17 -100 -20 -108 -19 c 0xd0
 -119 -16 -130 -14 -139 -14 c 0
 -162 -14 -178 -23 -186 -42 c 1
 -185 -62 -173 -72 -152 -72 c 0
 -133 -72 -113 -65 -92 -53 c 0
 -84 -48 -77 -46 -71 -48 c 0
 -68 -49 -65 -50 -63 -53 c 2
 89 -154 l 2
 91 -158 92 -161 92 -165 c 0
 92 -172 89 -178 83 -184 c 0
 77 -190 71 -193 63 -193 c 1
 -76 -102 l 1
 -101 -114 -126 -120 -151 -120 c 0
 -192 -120 -219 -104 -232 -70 c 0
 -234 -62 -235 -54 -235 -46 c 0
 -235 -6 -211 21 -162 35 c 0xb0
EndSplineSet
Validated: 33
EndChar

StartChar: u09c3
Encoding: 104 2499 100
Width: 5
GlyphClass: 2
Flags: W
HStem: -193 254
VStem: -232 219
AnchorPoint: "Anchor-1" -90 50 mark 0
LayerCount: 2
Fore
SplineSet
-97 61 m 1
 -88 63 -81 61 -76 56 c 0
 -71 51 -68 44 -68 37 c 0
 -68 31 -70 27 -74 23 c 2
 -171 -33 l 1
 -18 -158 l 2
 -15 -162 -13 -166 -13 -171 c 0
 -13 -186 -21 -193 -38 -193 c 0
 -41 -193 -43 -193 -46 -192 c 2
 -224 -50 l 2
 -229 -45 -232 -39 -232 -32 c 0
 -232 -24 -229 -17 -223 -11 c 1
 -97 61 l 1
EndSplineSet
Validated: 1
EndChar

StartChar: u09c4
Encoding: 105 2500 101
Width: 0
GlyphClass: 2
Flags: W
HStem: -256 317
VStem: -407 307
LayerCount: 2
Fore
SplineSet
-243 -24 m 1
 -243 -26 l 2
 -243 -32 -245 -37 -249 -41 c 1
 -105 -158 l 2
 -102 -162 -100 -166 -100 -171 c 0
 -100 -186 -108 -193 -125 -193 c 0
 -128 -193 -130 -193 -133 -192 c 2
 -292 -65 l 1
 -346 -97 l 1
 -193 -222 l 2
 -190 -226 -188 -229 -188 -234 c 0
 -188 -249 -196 -256 -213 -256 c 0
 -216 -256 -218 -256 -221 -255 c 2
 -399 -113 l 2
 -404 -108 -407 -103 -407 -96 c 0
 -407 -88 -404 -81 -398 -75 c 1
 -319 -29 l 1
 -318 -22 -315 -16 -310 -11 c 2
 -184 61 l 1
 -175 63 -168 61 -163 56 c 0
 -158 51 -155 44 -155 37 c 0
 -155 31 -157 27 -161 23 c 2
 -243 -24 l 1
EndSplineSet
Validated: 1
EndChar

StartChar: u09c7
Encoding: 106 2503 102
Width: 317
GlyphClass: 2
Flags: W
HStem: 35 64<147.4 294.254> 611 57<-7 173 214.635 317>
VStem: 3 58<202.646 450.044>
LayerCount: 2
Fore
SplineSet
317 668 m 1
 317 614 l 1
 281 608 250 600 223 592 c 0
 187 580 155 558 126 524 c 0
 83 474 61 405 61 320 c 0
 61 265 72 218 94 179 c 0
 119 135 156 107 204 95 c 0
 211 93 220 92 229 93 c 2
 239 94 l 2
 257 97 268 99 273 99 c 0
 294 99 304 90 304 71 c 0
 304 62 301 55 295 50 c 1
 279 43 269 40 264 39 c 0
 250 36 236 35 223 35 c 0
 161 35 108 63 66 120 c 0
 27 173 6 234 3 303 c 0
 0 362 10 419 32 473 c 0
 43 500 58 527 75 553 c 1
 101 585 134 604 173 611 c 1
 -7 611 l 1
 -7 668 l 1
 317 668 l 1
EndSplineSet
Validated: 33
Substitution2: "'init' Initial Forms in Bengali lookup 0 subtable" u09c7.init
EndChar

StartChar: u09c8
Encoding: 107 2504 103
Width: 299
GlyphClass: 2
Flags: W
HStem: 27 59<151.46 258.765> 611 62<-11 147 244.077 298> 735 63<-106.569 137.497>
VStem: -179 60<811.829 929.066> 2 61<194.568 444.169>
LayerCount: 2
Fore
SplineSet
298 673 m 1
 298 610 l 1
 243 610 196 592 156 557 c 0
 116 521 88 470 73 403 c 0
 66 375 63 346 63 316 c 0
 63 263 73 217 92 178 c 0
 114 133 146 104 187 89 c 0
 201 86 214 85 225 86 c 0
 231 87 237 89 242 91 c 0
 248 92 254 93 259 93 c 0
 279 93 289 84 289 66 c 0
 289 59 288 53 284 46 c 1
 262 31 242 24 225 27 c 1
 176 26 135 39 100 67 c 0
 83 81 68 99 54 121 c 0
 19 176 2 244 2 322 c 0
 2 350 4 376 9 401 c 0
 33 521 79 591 147 611 c 1
 -11 611 l 1
 -11 673 l 1
 181 673 l 1
 168 698 143 715 107 725 c 0
 89 730 53 734 -2 735 c 0
 -53 736 -92 742 -119 753 c 0
 -159 770 -179 801 -179 847 c 0
 -179 857 -176 886 -169 935 c 1
 -161 940 -151 943 -142 943 c 0
 -128 943 -116 938 -107 927 c 1
 -115 893 -119 869 -119 855 c 0
 -119 820 -96 801 -48 798 c 0
 53 793 114 787 135 781 c 0
 190 766 229 730 252 673 c 1
 298 673 l 1
EndSplineSet
Validated: 33
Substitution2: "'init' Initial Forms in Bengali lookup 0 subtable" u09c8.init
EndChar

StartChar: u09cb
Encoding: 108 2507 104
Width: 708
GlyphClass: 2
Flags: W
HStem: 35 64<145.4 292.254> 611 57<-8 171 212.653 315 508 614 676 756>
VStem: 1 59<199.818 450.044> 614 62<47.5273 610>
LayerCount: 2
Fore
SplineSet
315 668 m 1
 315 614 l 1
 279 608 248 600 221 592 c 0
 185 580 154 558 125 524 c 0
 82 474 60 405 60 320 c 0
 60 265 70 218 92 179 c 0
 117 135 154 107 202 95 c 0
 209 93 219 92 228 93 c 2
 237 94 l 2
 255 97 266 99 271 99 c 0
 292 99 302 90 302 71 c 0
 302 62 299 55 293 50 c 1
 277 43 267 40 262 39 c 0
 248 36 234 35 221 35 c 0
 159 35 106 63 64 120 c 0
 25 173 4 234 1 303 c 0
 -2 362 9 419 31 473 c 0
 42 500 56 527 73 553 c 1
 99 585 132 604 171 611 c 1
 -8 611 l 1
 -8 668 l 1
 315 668 l 1
756 673 m 1
 756 610 l 1
 676 610 l 1
 676 62 l 2
 676 52 665 47 644 47 c 0
 624 47 614 53 614 64 c 2
 614 610 l 1
 508 610 l 1
 508 673 l 1
 756 673 l 1
EndSplineSet
Validated: 33
EndChar

StartChar: u09cc
Encoding: 109 2508 105
Width: 741
GlyphClass: 2
Flags: W
HStem: 35 64<145.4 292.254> 610 63<-8 171 211.004 315 508 610 676 751>
VStem: 1 59<199.818 450.044> 197 59<828.474 913.518> 610 58<673 707.926> 614 62<44.1602 610>
LayerCount: 2
Fore
SplineSet
315 668 m 1xf0
 315 614 l 1
 279 608 248 600 221 592 c 0
 185 580 154 558 125 524 c 0
 82 474 60 405 60 320 c 0
 60 265 70 218 92 179 c 0
 117 135 154 107 202 95 c 0
 209 93 219 92 228 93 c 2
 237 94 l 2
 255 97 266 99 271 99 c 0
 292 99 302 90 302 71 c 0
 302 62 299 55 293 50 c 1
 277 43 267 40 262 39 c 0
 248 36 234 35 221 35 c 0
 159 35 106 63 64 120 c 0
 25 173 4 234 1 303 c 0
 -2 362 9 419 31 473 c 0
 42 500 56 527 73 553 c 1
 99 585 132 604 171 611 c 1
 -8 611 l 1
 -8 668 l 1
 315 668 l 1xf0
259 894 m 1
 257 886 256 878 256 871 c 0
 256 832 290 809 358 803 c 2
 551 789 l 1
 623 774 661 735 668 673 c 1xf8
 751 673 l 1
 751 610 l 1
 676 610 l 1
 676 76 l 2
 676 54 666 43 646 43 c 0
 625 43 614 54 614 75 c 2
 614 610 l 1xf4
 508 610 l 1
 508 673 l 1
 610 673 l 1xf8
 605 709 567 731 496 738 c 2
 300 758 l 1
 231 774 197 811 197 868 c 0
 197 878 198 889 200 901 c 1
 208 910 218 915 228 915 c 0
 241 915 252 908 259 894 c 1
EndSplineSet
Validated: 33
EndChar

StartChar: u09cd
Encoding: 110 2509 106
Width: 5
GlyphClass: 2
Flags: W
HStem: -154 164
VStem: -106 200
AnchorPoint: "Anchor-1" -115 15 mark 0
LayerCount: 2
Fore
SplineSet
-71 10 m 1
 94 -111 l 1
 62 -154 l 1
 -106 -28 l 1
 -71 10 l 1
EndSplineSet
Validated: 1
EndChar

StartChar: u09ce
Encoding: 111 2510 107
Width: 500
GlyphClass: 2
Flags: W
HStem: 613 58<139.195 266.502>
VStem: 39 57<436.667 571.5>
LayerCount: 2
Fore
SplineSet
201 671 m 0
 243 670 276 659 301 637 c 0
 323 618 342 588 357 547 c 1
 357 539 354 532 346 527 c 0
 339 521 330 519 321 519 c 0
 314 519 310 521 307 525 c 0
 286 584 253 613 208 613 c 0
 199 613 189 612 179 610 c 0
 124 593 96 558 96 506 c 0
 96 448 144 381 241 305 c 2
 374 202 l 1
 421 159 455 112 477 60 c 1
 479 49 475 42 466 38 c 0
 461 36 455 35 448 35 c 0
 433 35 423 40 419 49 c 0
 399 95 362 139 306 184 c 2
 159 297 l 1
 105 345 68 396 48 452 c 0
 41 471 39 489 39 508 c 0
 39 554 57 593 94 626 c 0
 128 656 163 671 201 671 c 0
EndSplineSet
Validated: 1
Colour: ff0000
EndChar

StartChar: u09d7
Encoding: 112 2519 108
Width: 231
GlyphClass: 2
Flags: W
HStem: 610 63<-6 96 162 238>
VStem: -317 59<828.474 913.518> 96 59<673 707.926> 100 62<44.1602 610>
LayerCount: 2
Fore
SplineSet
-255 894 m 1xe0
 -257 886 -258 878 -258 871 c 0
 -258 832 -224 809 -156 803 c 2
 37 789 l 1
 109 774 148 735 155 673 c 1xe0
 238 673 l 1
 238 610 l 1
 162 610 l 1
 162 76 l 2
 162 54 152 43 132 43 c 0
 111 43 100 54 100 75 c 2
 100 610 l 1xd0
 -6 610 l 1
 -6 673 l 1
 96 673 l 1
 91 709 53 731 -18 738 c 2
 -214 758 l 1
 -283 774 -317 811 -317 868 c 0
 -317 878 -316 889 -314 901 c 1
 -306 910 -296 915 -286 915 c 0
 -273 915 -262 908 -255 894 c 1xe0
EndSplineSet
Validated: 1
EndChar

StartChar: u09dc
Encoding: 113 2524 109
Width: 705
GlyphClass: 3
Flags: W
HStem: -83 73<420 498> 35 59<335.027 504.662> 272 61<351.041 420.346> 510 20G<53.5 63> 610 63<-8 288 350 732>
VStem: 28 55<455.312 529.031> 288 62<333.217 610> 420 78<-83 -10> 599 58<192.009 376.799>
AnchorPoint: "Anchor-1" 463 -92 basechar 0
AnchorPoint: "Anchor-0" 325 675 basechar 0
LayerCount: 2
Fore
SplineSet
732 673 m 1
 732 610 l 1
 350 610 l 1
 350 353 l 1
 355 340 363 333 374 333 c 0
 392 333 416 347 445 376 c 0
 471 402 496 433 521 470 c 0
 525 477 532 480 541 480 c 0
 555 480 568 474 579 463 c 0
 631 414 657 358 657 296 c 0
 657 264 650 229 637 190 c 1
 587 88 519 36 433 35 c 0
 396 35 360 43 324 58 c 0
 306 66 287 75 269 87 c 0
 225 116 189 152 160 195 c 0
 109 271 65 373 28 502 c 0
 28 507 29 511 31 515 c 0
 32 517 34 519 36 521 c 0
 42 527 49 530 58 530 c 0
 68 530 76 526 83 519 c 1
 118 408 150 329 178 281 c 1
 202 229 237 184 283 148 c 0
 330 112 377 94 425 94 c 0
 480 94 525 119 562 168 c 0
 587 201 599 240 599 285 c 0
 599 335 584 377 554 412 c 1
 509 361 480 330 467 319 c 0
 430 288 393 272 356 272 c 1
 311 279 288 316 288 382 c 2
 288 610 l 1
 -8 610 l 1
 -8 673 l 1
 732 673 l 1
420 -10 m 1
 498 -10 l 1
 498 -83 l 1
 420 -83 l 1
 420 -10 l 1
EndSplineSet
Validated: 1
LCarets2: 1 0
Ligature2: "'nukt' Nukta Forms in Bengali lookup 1 subtable" u09a1 u09bc
EndChar

StartChar: u09dd
Encoding: 114 2525 110
Width: 487
GlyphClass: 3
Flags: W
HStem: -78 73<166 244> 35 80<170.905 274.084> 610 63<-6 94 156 504>
VStem: 94 62<129.783 609> 166 78<-78 -5> 371 57<232.755 380.051>
AnchorPoint: "Anchor-1" 203 -101 basechar 0
AnchorPoint: "Anchor-0" 145 670 basechar 0
LayerCount: 2
Fore
SplineSet
-6 673 m 1
 504 673 l 1
 504 610 l 1
 156 610 l 1
 156 176 l 2
 156 159 162 145 174 133 c 0
 186 121 200 115 218 115 c 0
 243 115 268 128 293 154 c 0
 345 210 371 264 371 315 c 0
 371 345 363 367 348 382 c 0
 347 383 334 392 308 412 c 0
 305 416 304 420 304 425 c 0
 304 433 307 440 314 447 c 0
 321 454 329 457 340 457 c 1
 399 416 428 371 428 321 c 0
 428 260 404 198 357 135 c 0
 308 69 256 35 201 35 c 0
 176 35 152 48 129 74 c 0
 106 100 94 128 94 160 c 2
 94 609 l 1
 -6 610 l 1
 -6 673 l 1
166 -5 m 1
 244 -5 l 1
 244 -78 l 1
 166 -78 l 1
 166 -5 l 1
EndSplineSet
Validated: 1
Ligature2: "'nukt' Nukta Forms in Bengali lookup 1 subtable" u09a2 u09bc
EndChar

StartChar: u09df
Encoding: 115 2527 111
Width: 495
GlyphClass: 3
Flags: W
HStem: 59 58<148 211> 610 63<-6 20 97 358 420 496>
VStem: 148 63<59 117> 358 62<115 610>
AnchorPoint: "Anchor-1" 384 31 basechar 0
AnchorPoint: "Anchor-0" 235 675 basechar 0
LayerCount: 2
Fore
SplineSet
-6 673 m 1
 496 673 l 1
 496 610 l 1
 420 610 l 1
 420 60 l 2
 420 43 408 34 385 34 c 0
 375 34 365 37 358 42 c 2
 32 278 l 2
 25 284 21 291 21 299 c 0
 21 306 24 314 29 321 c 1
 164 439 l 1
 20 610 l 1
 -6 610 l 1
 -6 673 l 1
97 610 m 1
 227 452 l 1
 232 440 233 431 230 423 c 0
 229 419 227 415 223 412 c 2
 92 302 l 1
 358 115 l 1
 358 610 l 1
 97 610 l 1
148 117 m 1
 211 117 l 1
 211 59 l 1
 148 59 l 1
 148 117 l 1
EndSplineSet
Validated: 1
Ligature2: "'nukt' Nukta Forms in Bengali lookup 1 subtable" u09af u09bc
EndChar

StartChar: u09e0
Encoding: 116 2528 112
Width: 658
GlyphClass: 2
Flags: W
HStem: 505 57<102.73 218.89>
VStem: 406 62<123 272 362 491 562 686.367> 576 62<240 687.564>
LayerCount: 2
Fore
SplineSet
406 123 m 1
 406 491 l 1
 164 342 l 1
 406 123 l 1
576 671 m 2
 576 682 586 688 607 688 c 0
 628 688 638 682 638 671 c 2
 638 162 l 2
 638 145 625 137 601 137 c 0
 589 137 581 140 576 146 c 2
 468 272 l 1
 468 57 l 2
 468 39 455 31 428 31 c 0
 419 31 412 33 406 38 c 2
 95 328 l 2
 90 333 88 338 88 344 c 0
 88 354 93 364 102 373 c 1
 325 513 l 1
 280 562 l 1
 247 524 208 505 163 505 c 0
 105 505 60 531 25 583 c 0
 24 586 24 589 24 592 c 0
 24 611 36 620 60 620 c 0
 65 620 69 620 73 619 c 1
 95 581 125 562 162 562 c 0
 199 562 227 581 244 619 c 1
 255 630 269 635 285 632 c 0
 288 632 291 631 294 630 c 2
 377 542 l 1
 406 562 l 1
 406 669 l 2
 406 681 417 687 439 687 c 0
 458 687 468 682 468 671 c 2
 468 362 l 1
 576 240 l 1
 576 671 l 2
337 87 m 1
 346 89 353 87 358 82 c 0
 363 77 366 70 366 63 c 0
 366 57 364 53 360 49 c 2
 263 -7 l 1
 416 -132 l 2
 419 -136 421 -140 421 -145 c 0
 421 -160 413 -167 396 -167 c 0
 393 -167 391 -167 388 -166 c 2
 210 -24 l 2
 205 -19 202 -13 202 -6 c 0
 202 2 205 9 211 15 c 1
 337 87 l 1
EndSplineSet
Validated: 33
EndChar

StartChar: u09e1
Encoding: 117 2529 113
Width: 548
GlyphClass: 2
Flags: W
HStem: -37 28<309.625 372.971> 282 58<160.955 283.761>
VStem: 42 59<614.303 676.993> 70 58<102.789 247.957> 269 26<-126.102 -49.9216> 318 58<103.171 247.114> 386 28<-121.571 -55.5828> 481 28<-85.715 0.985126> 518 58<189.276 345.709>
LayerCount: 2
Fore
SplineSet
430 64 m 1xef80
 442 58 452 51 461 44 c 0
 493 20 509 -8 509 -42 c 0
 509 -79 492 -110 457 -131 c 0
 435 -145 411 -152 386 -154 c 1
 375 -152 369 -149 369 -144 c 0
 369 -142 370 -139 373 -135 c 0
 376 -127 379 -118 382 -110 c 0
 385 -102 386 -95 386 -88 c 0
 386 -80 384 -71 380 -61 c 0
 372 -45 358 -37 339 -37 c 0
 329 -37 320 -39 312 -46 c 0
 301 -55 295 -68 295 -83 c 0
 295 -94 298 -106 304 -118 c 0
 305 -121 305 -123 304 -125 c 0
 303 -126 302 -127 301 -128 c 0
 298 -131 294 -132 289 -132 c 0
 284 -132 281 -131 279 -128 c 0
 272 -113 269 -98 269 -83 c 0
 269 -66 273 -51 282 -39 c 0
 296 -19 315 -9 340 -9 c 0
 354 -9 368 -14 380 -21 c 0
 402 -35 414 -58 414 -89 c 0
 414 -99 412 -110 408 -122 c 1
 429 -116 446 -107 459 -95 c 0
 474 -81 481 -64 481 -45 c 0
 481 -12 464 15 430 36 c 0
 422 41 411 45 397 51 c 1
 372 43 345 37 317 35 c 1
 294 39 282 45 282 53 c 0
 282 60 285 70 291 83 c 0
 309 124 318 154 318 174 c 0
 318 192 315 210 307 231 c 1
 289 265 259 282 220 282 c 0
 198 282 179 275 161 261 c 0
 140 241 128 216 128 184 c 0
 128 161 135 137 146 112 c 0
 147 105 146 100 144 95 c 0
 143 92 141 91 139 89 c 0
 133 83 124 80 115 80 c 0
 103 80 96 84 92 91 c 0
 77 121 70 152 70 184 c 0xdf80
 70 220 80 252 99 278 c 0
 129 319 170 340 222 340 c 0
 252 340 280 332 305 316 c 0
 331 300 349 278 360 251 c 0
 371 224 376 197 376 172 c 0
 376 151 372 127 364 102 c 1
 408 113 445 132 472 159 c 0
 503 189 518 224 518 265 c 0
 518 278 516 291 512 304 c 0
 500 356 467 399 410 434 c 0
 379 452 326 474 252 500 c 0
 173 528 124 547 106 557 c 0
 62 581 41 613 42 652 c 0
 43 670 51 678 68 678 c 0
 88 678 99 671 101 655 c 1
 100 641 106 627 121 615 c 0
 128 609 137 603 149 597 c 0
 162 590 203 575 273 551 c 0
 362 520 430 488 476 453 c 0
 543 402 576 341 576 270 c 0
 576 248 572 225 566 201 c 1
 548 153 515 115 466 84 c 0
 454 77 442 70 430 64 c 1xef80
EndSplineSet
Validated: 33
EndChar

StartChar: u09e2
Encoding: 118 2530 114
Width: 1
GlyphClass: 2
Flags: W
HStem: 113 23<-191.005 -138.674>
VStem: -237 23<243.346 270.962> -226 23<36.3051 102.538> -127 23<41.2535 96.2866> -47 23<72.3665 144.437>
LayerCount: 2
Fore
SplineSet
-214 262 m 0xd8
 -214 256 -212 251 -206 246 c 0
 -203 243 -200 241 -195 239 c 0
 -190 236 -173 230 -145 220 c 0
 -110 208 -83 195 -64 181 c 0
 -37 161 -24 137 -24 108 c 0
 -24 76 -39 52 -68 34 c 0
 -86 23 -106 16 -127 14 c 1
 -136 16 -142 19 -142 23 c 0
 -142 23 -138 33 -131 51 c 0
 -128 58 -127 63 -127 69 c 0
 -127 76 -129 84 -132 92 c 0
 -139 106 -151 113 -167 113 c 0
 -175 113 -183 110 -190 104 c 0
 -199 96 -203 87 -203 74 c 0
 -203 65 -201 55 -196 45 c 0
 -195 42 -196 41 -197 39 c 2
 -199 36 l 2
 -202 34 -204 32 -208 32 c 0
 -213 32 -216 33 -217 36 c 0
 -223 48 -226 61 -226 74 c 0xb8
 -226 89 -222 101 -215 111 c 0
 -203 127 -187 136 -166 136 c 0
 -154 136 -143 133 -133 126 c 0
 -114 114 -104 95 -104 69 c 0
 -104 61 -106 51 -109 41 c 1
 -91 46 -77 53 -66 63 c 0
 -54 75 -47 90 -47 106 c 0
 -47 133 -61 156 -90 174 c 0
 -102 181 -123 190 -153 200 c 0
 -185 211 -205 219 -212 223 c 0
 -230 233 -238 245 -237 261 c 0
 -237 268 -234 271 -227 271 c 0
 -219 271 -215 269 -214 262 c 0xd8
EndSplineSet
Validated: 33
EndChar

StartChar: u09e3
Encoding: 119 2531 115
Width: 4
GlyphClass: 2
Flags: W
HStem: -4 23<-339.128 -286.575> 113 23<-187.89 -134.674>
VStem: -385 23<125.994 153.962> -374 23<-80.4368 -14.4616> -275 23<-75.7465 -20.7134> -234 23<243.346 270.962> -223 23<71 102.488> -195 23<-44.6335 27.8955> -124 23<41.2535 96.7396> -44 23<71.1442 144.437>
LayerCount: 2
Fore
SplineSet
-223 71 m 1xebc0
 -223 74 l 2xebc0
 -223 89 -218 101 -211 111 c 0
 -199 127 -183 136 -162 136 c 0
 -150 136 -139 133 -129 126 c 0
 -110 114 -101 95 -101 69 c 0
 -101 61 -102 51 -105 41 c 1
 -87 46 -73 53 -62 63 c 0
 -50 75 -44 90 -44 106 c 0
 -44 133 -58 156 -87 174 c 0
 -99 181 -120 190 -150 200 c 0
 -182 211 -201 219 -208 223 c 0
 -226 233 -235 245 -234 261 c 0
 -234 268 -231 271 -224 271 c 0
 -216 271 -212 269 -211 262 c 0xcdc0
 -211 256 -209 251 -203 246 c 0
 -200 243 -196 241 -191 239 c 0
 -186 236 -170 230 -142 220 c 0
 -107 208 -80 195 -61 181 c 0
 -34 161 -21 137 -21 108 c 0
 -21 76 -35 52 -64 34 c 0
 -82 23 -103 16 -124 14 c 1
 -133 16 -138 19 -138 23 c 0
 -138 23 -134 33 -127 51 c 0
 -124 58 -124 63 -124 69 c 0
 -124 76 -125 84 -128 92 c 0
 -135 106 -147 113 -163 113 c 0
 -171 113 -180 110 -187 104 c 0
 -196 96 -200 87 -200 74 c 0xcbc0
 -200 66 -198 57 -194 48 c 1
 -179 31 -172 12 -172 -9 c 0
 -172 -41 -187 -65 -216 -83 c 0
 -234 -94 -254 -101 -275 -103 c 1
 -284 -101 -290 -98 -290 -94 c 0
 -290 -94 -286 -84 -279 -66 c 0
 -276 -59 -275 -54 -275 -48 c 0
 -275 -41 -277 -33 -280 -25 c 0
 -287 -11 -298 -4 -314 -4 c 0
 -322 -4 -331 -7 -338 -13 c 0
 -347 -21 -351 -30 -351 -43 c 0
 -351 -52 -349 -62 -344 -72 c 0
 -343 -75 -344 -77 -345 -79 c 0
 -345 -80 -346 -81 -347 -82 c 0
 -350 -84 -352 -85 -356 -85 c 0
 -361 -85 -364 -84 -365 -81 c 0
 -371 -69 -374 -56 -374 -43 c 0
 -374 -28 -370 -16 -363 -6 c 0
 -351 10 -334 19 -313 19 c 0
 -301 19 -290 16 -280 9 c 0
 -261 -3 -252 -22 -252 -48 c 0
 -252 -56 -254 -66 -257 -76 c 1
 -239 -71 -225 -64 -214 -54 c 0
 -202 -42 -195 -27 -195 -11 c 0
 -195 6 -200 21 -211 34 c 0xddc0
 -212 34 -213 35 -214 36 c 2
 -214 37 l 1
 -221 44 -229 51 -238 57 c 0
 -250 64 -271 73 -301 83 c 0
 -333 94 -353 101 -360 105 c 0
 -378 115 -386 128 -385 144 c 0
 -385 151 -382 154 -375 154 c 0
 -367 154 -363 152 -362 145 c 0
 -362 139 -360 134 -354 129 c 0
 -351 126 -348 124 -343 122 c 0
 -338 119 -321 113 -293 103 c 0
 -264 93 -241 82 -223 71 c 1xebc0
EndSplineSet
Validated: 33
EndChar

StartChar: u09e6
Encoding: 120 2534 116
Width: 537
GlyphClass: 2
Flags: W
HStem: 117 64<171.766 328.656> 531 61<221.093 387.689>
VStem: 49 60<245.865 415.381> 448 63<300.054 470.308>
LayerCount: 2
Fore
SplineSet
304 531 m 0
 265 530 230 518 198 496 c 0
 166 473 141 442 124 401 c 0
 114 378 109 353 109 328 c 0
 109 295 117 266 133 242 c 0
 159 201 198 181 250 181 c 0
 285 181 318 193 351 215 c 0
 381 236 405 262 423 294 c 0
 440 324 448 355 448 388 c 0
 448 429 436 463 412 489 c 0
 386 518 350 532 304 531 c 0
81 452 m 0
 104 493 135 527 173 552 c 0
 212 577 252 591 294 592 c 0
 335 594 372 586 404 569 c 0
 420 561 435 551 449 538 c 0
 491 500 511 453 511 397 c 0
 511 384 510 371 507 358 c 0
 482 227 411 149 295 123 c 0
 278 119 261 117 245 117 c 0
 187 117 139 138 102 181 c 0
 67 222 49 271 49 329 c 0
 49 372 60 413 81 452 c 0
EndSplineSet
Validated: 33
EndChar

StartChar: u09e7
Encoding: 121 2535 117
Width: 456
GlyphClass: 2
Flags: W
HStem: 49 50<149.35 302.459>
VStem: 50 54<601.045 673.721> 356 56<164.627 355.975>
LayerCount: 2
Fore
SplineSet
411 244 m 0
 402 160 378 105 339 78 c 0
 320 65 301 57 284 54 c 0
 266 51 231 49 176 49 c 0
 158 49 128 65 87 98 c 1
 85 105 84 110 84 116 c 0
 84 136 96 145 120 144 c 0
 121 144 123 143 124 143 c 0
 149 114 185 99 234 99 c 0
 259 99 279 104 292 112 c 0
 336 142 358 204 356 296 c 2
 356 302 l 1
 345 366 283 430 169 493 c 1
 122 527 91 552 78 568 c 0
 58 592 49 621 50 655 c 2
 50 657 l 1
 52 668 61 674 76 674 c 0
 93 674 103 668 104 657 c 1
 103 637 110 619 125 601 c 0
 133 592 142 583 153 575 c 2
 260 502 l 2
 362 430 412 352 412 267 c 0
 412 260 412 252 411 244 c 0
EndSplineSet
Validated: 33
EndChar

StartChar: u09e8
Encoding: 122 2536 118
Width: 479
GlyphClass: 2
Flags: W
VStem: 80 55<612.85 658.486> 315 59<328.965 426.297>
LayerCount: 2
Fore
SplineSet
83 657 m 1
 90 671 101 678 118 678 c 0
 130 678 138 672 142 661 c 1
 137 650 135 642 135 636 c 0
 135 628 139 622 148 617 c 0
 209 587 253 560 281 538 c 0
 341 490 372 439 374 384 c 0
 375 354 366 328 348 305 c 0
 339 293 328 282 314 273 c 0
 279 249 236 234 184 229 c 1
 486 -16 l 2
 490 -20 492 -25 492 -30 c 0
 492 -46 482 -54 461 -54 c 0
 452 -54 442 -52 433 -46 c 2
 53 259 l 2
 46 267 42 275 42 283 c 0
 42 300 52 308 72 308 c 0
 76 308 80 307 84 306 c 0
 107 293 135 286 168 286 c 0
 207 286 241 295 271 312 c 0
 301 329 315 353 315 383 c 0
 315 397 311 412 304 427 c 1
 275 469 241 502 200 525 c 1
 115 568 l 2
 92 582 80 602 80 628 c 0
 80 637 81 646 83 657 c 1
EndSplineSet
Validated: 33
EndChar

StartChar: u09e9
Encoding: 123 2537 119
Width: 645
GlyphClass: 2
Flags: W
HStem: 74 59<300.304 445.896> 588 56<329.069 467.874>
VStem: 40 57<419.634 556.834> 247 57<429.891 562.209> 556 55<255.557 481.977>
LayerCount: 2
Fore
SplineSet
375 644 m 0
 425 644 468 632 503 609 c 0
 521 597 537 583 551 565 c 0
 588 516 608 451 611 369 c 0
 613 327 605 285 588 244 c 0
 579 223 569 202 555 181 c 0
 509 110 450 74 381 74 c 0
 324 74 267 101 207 156 c 0
 147 210 106 275 81 351 c 0
 58 420 45 482 40 536 c 1
 45 551 54 558 67 558 c 0
 78 558 89 552 97 540 c 1
 104 484 112 442 120 413 c 0
 131 374 148 334 171 293 c 0
 195 252 222 217 254 188 c 0
 295 151 336 133 376 133 c 0
 397 133 418 139 439 150 c 0
 478 171 508 203 529 244 c 0
 548 281 557 320 556 361 c 2
 556 364 l 1
 550 513 491 588 380 588 c 2
 376 588 l 1
 327 580 304 548 304 493 c 0
 304 477 306 459 310 439 c 1
 310 422 299 414 278 414 c 0
 266 414 259 419 255 429 c 0
 249 448 247 467 247 488 c 0
 247 530 257 565 279 595 c 0
 303 627 336 643 375 644 c 0
EndSplineSet
Validated: 33
EndChar

StartChar: u09ea
Encoding: 124 2538 120
Width: 476
GlyphClass: 2
Flags: W
HStem: 43 65<149.982 306.616> 335 58<167.297 304.875> 617 61<190.603 335.75>
VStem: 42 64<149.322 276.268> 52 68<427.3 556.471> 369 73<168.479 300.677 458.63 583.874>
LayerCount: 2
Fore
SplineSet
255 335 m 0xf4
 156 328 106 287 106 213 c 0
 106 180 118 154 141 136 c 0
 164 117 192 108 225 108 c 0
 267 108 302 121 329 147 c 0
 356 173 369 203 369 238 c 0
 369 267 360 290 340 309 c 0
 320 328 293 336 260 335 c 0
 258 335 257 335 255 335 c 0xf4
260 678 m 0
 317 678 361 664 392 634 c 0
 421 608 436 573 436 532 c 0
 436 469 406 417 347 377 c 1
 410 347 442 302 442 241 c 0
 442 186 417 138 367 98 c 0
 321 61 274 43 225 43 c 0
 205 43 186 46 165 51 c 0
 83 73 42 121 42 194 c 0xf4
 42 224 50 253 67 283 c 0
 84 312 106 336 135 355 c 1
 80 386 52 429 52 484 c 0xec
 52 533 73 578 114 618 c 0
 155 658 204 678 260 678 c 0
120 493 m 0xec
 121 459 131 434 152 417 c 0
 171 401 195 393 224 393 c 0
 250 393 276 400 300 412 c 0
 324 424 343 440 356 461 c 0
 367 478 372 495 372 515 c 0
 372 544 362 569 342 590 c 0
 323 610 299 619 270 618 c 0
 269 618 267 617 266 617 c 0
 230 614 198 603 169 582 c 0
 136 558 120 528 120 493 c 0xec
EndSplineSet
Validated: 33
EndChar

StartChar: u09eb
Encoding: 125 2539 121
Width: 537
GlyphClass: 2
Flags: W
HStem: 36 61<228.134 361.192>
VStem: 32 58<224.935 404.645> 271 60<198.254 362.862> 299 57<560.743 605>
LayerCount: 2
Fore
SplineSet
299 605 m 1xd0
 255 590 211 553 166 495 c 0
 116 430 90 368 90 308 c 0
 90 287 94 268 101 249 c 0
 118 200 149 162 195 135 c 0
 237 110 284 97 337 97 c 0
 346 97 354 97 362 98 c 1
 301 154 271 217 271 288 c 0xe0
 271 370 312 433 393 476 c 1
 359 503 339 521 332 529 c 0
 311 552 300 578 299 605 c 1xd0
335 671 m 1
 355 669 365 660 365 643 c 0
 365 640 364 637 362 633 c 0
 358 626 356 618 356 610 c 0xd0
 356 587 371 563 400 540 c 0
 425 519 452 506 477 500 c 0
 496 495 505 484 505 466 c 0
 505 459 503 452 497 446 c 1
 446 442 405 425 375 393 c 0
 345 361 331 324 331 282 c 0
 331 248 339 218 358 189 c 0
 378 158 407 134 444 117 c 0
 457 109 464 99 464 88 c 0
 464 79 461 72 453 67 c 0
 419 46 380 36 337 36 c 0
 273 36 212 57 153 97 c 0
 72 152 32 220 32 300 c 0
 32 386 68 470 139 552 c 0
 207 631 272 671 335 671 c 1
EndSplineSet
Validated: 1
EndChar

StartChar: u09ec
Encoding: 126 2540 122
Width: 595
GlyphClass: 2
Flags: W
HStem: 78 57<260.067 409.869> 339 57<288.779 368.963> 504 33G<57 71.5 490.5 497.5>
VStem: 38 53<345.448 536.67> 226 62<397.098 656.466> 512 55<264.099 446.579>
LayerCount: 2
Fore
SplineSet
288 641 m 2
 288 414 l 1
 295 402 304 396 317 396 c 0
 351 396 402 435 471 513 c 0
 479 520 487 524 494 524 c 0
 501 524 509 520 517 513 c 0
 551 476 567 427 567 367 c 0
 567 295 545 231 502 172 c 0
 457 110 403 79 341 78 c 0
 298 78 256 91 215 116 c 0
 174 141 141 175 115 216 c 0
 64 297 38 383 38 475 c 0
 38 489 39 503 41 517 c 0
 43 531 50 537 64 537 c 0
 79 537 89 530 92 515 c 1
 91 506 91 496 91 486 c 0
 91 420 104 357 131 297 c 0
 150 255 178 218 216 187 c 0
 257 152 299 135 341 135 c 0
 389 135 430 162 465 216 c 0
 496 264 512 313 512 363 c 0
 512 395 506 423 494 448 c 1
 415 375 353 339 309 339 c 0
 272 339 245 360 226 403 c 1
 226 641 l 2
 226 652 235 657 256 657 c 0
 277 657 288 652 288 641 c 2
EndSplineSet
Validated: 1
EndChar

StartChar: u09ed
Encoding: 127 2541 123
Width: 473
GlyphClass: 2
Flags: W
HStem: 38 53<424.655 471.947> 309 60<122.698 312.9>
VStem: 41 60<389.774 519.292> 354 55<102.656 319 380 554.193>
LayerCount: 2
Fore
SplineSet
275 612 m 1
 226 609 185 593 153 562 c 0
 118 527 101 479 101 418 c 1
 111 385 149 369 215 369 c 0
 237 369 265 371 299 375 c 0
 332 379 350 380 355 380 c 1
 350 540 324 617 278 612 c 1
 275 612 l 1
409 225 m 1
 409 134 424 89 453 91 c 0
 468 91 475 85 475 72 c 0
 475 64 471 56 464 49 c 0
 457 42 448 38 437 38 c 0
 415 38 397 44 384 57 c 0
 377 64 372 73 368 83 c 0
 358 106 353 142 353 189 c 0
 353 200 353 222 354 257 c 2
 354 319 l 1
 217 309 l 1
 113 309 55 341 43 405 c 0
 41 417 41 429 41 441 c 0
 41 500 64 552 110 597 c 0
 156 642 210 666 271 671 c 0
 302 673 327 666 347 649 c 0
 357 641 367 629 374 616 c 0
 387 591 399 547 408 484 c 0
 411 462 413 433 413 398 c 2
 409 225 l 1
EndSplineSet
Validated: 33
EndChar

StartChar: u09ee
Encoding: 128 2542 124
Width: 651
GlyphClass: 2
Flags: W
HStem: 38 57<157.376 247.887> 398 58<159.483 341.852> 617 56<9.05334 56.8065>
VStem: 63 58<128.402 370.438 427 470> 71 56<428.964 607.288> 368 58<227.801 370.287>
LayerCount: 2
Fore
SplineSet
354 362 m 0xf4
 339 386 311 398 272 398 c 0
 233 398 182 386 120 362 c 1
 120 279 120 234 121 226 c 0
 125 170 137 130 157 105 c 0
 165 98 175 95 186 95 c 0
 222 95 261 119 304 168 c 0
 347 216 368 263 368 309 c 0
 368 329 363 347 354 362 c 0xf4
71 499 m 1xec
 71 579 57 618 28 617 c 1
 13 619 6 626 6 639 c 0
 6 647 10 655 17 662 c 0
 24 669 32 673 43 673 c 0
 74 673 95 662 108 640 c 0
 121 618 127 581 127 531 c 0xec
 127 504 125 469 122 427 c 1
 187 447 238 456 274 456 c 0
 320 456 357 443 385 418 c 1
 600 506 l 1
 613 508 621 505 626 496 c 0
 628 491 630 485 630 477 c 0
 630 467 627 459 620 452 c 1
 418 369 l 1
 423 352 426 335 426 316 c 0
 426 249 400 186 348 127 c 0
 295 66 237 37 172 38 c 2
 170 38 l 1
 141 45 120 57 106 74 c 0
 95 87 85 110 76 141 c 0
 67 170 63 212 63 267 c 2xf4
 71 499 l 1xec
EndSplineSet
Validated: 33
EndChar

StartChar: u09ef
Encoding: 129 2543 125
Width: 601
GlyphClass: 2
Flags: W
HStem: 282 58<157.955 280.761>
VStem: 40 58<614.303 676.993> 67 58<102.789 247.957> 315 59<102.734 247.114> 515 58<189.276 345.709>
LayerCount: 2
Fore
SplineSet
98 655 m 1xd8
 97 641 103 627 118 615 c 0
 125 609 134 603 146 597 c 0
 159 590 201 575 271 551 c 0
 360 520 427 488 473 453 c 0
 540 402 573 341 573 270 c 0
 573 248 569 225 563 201 c 1
 545 153 512 115 463 84 c 0
 418 55 368 39 314 35 c 1
 291 39 279 46 279 57 c 0
 279 62 282 68 288 76 c 1
 294 93 300 110 306 127 c 0
 312 144 315 160 315 174 c 0
 315 192 312 210 304 231 c 1
 286 265 256 282 217 282 c 0
 195 282 176 275 158 261 c 0
 137 241 125 216 125 184 c 0
 125 161 132 137 143 112 c 0
 144 105 143 100 141 95 c 0
 140 92 138 91 136 89 c 0
 130 83 121 80 112 80 c 0
 100 80 93 84 89 91 c 0
 74 121 67 152 67 184 c 0xb8
 67 220 77 252 96 278 c 0
 126 319 167 340 219 340 c 0
 249 340 277 332 302 316 c 0
 328 300 346 278 357 251 c 0
 368 224 374 197 374 172 c 0
 374 151 369 127 361 102 c 1
 405 113 442 132 469 159 c 0
 500 189 515 224 515 265 c 0
 515 278 513 291 509 304 c 0
 497 356 464 399 407 434 c 0
 376 452 324 474 250 500 c 0
 171 528 122 547 104 557 c 0
 60 581 39 613 40 652 c 0
 41 670 48 678 65 678 c 0
 85 678 96 671 98 655 c 1xd8
EndSplineSet
Validated: 33
EndChar

StartChar: u09f0
Encoding: 130 2544 126
Width: 473
GlyphClass: 2
Flags: W
HStem: 610 63<-6 349 411 487>
VStem: 349 62<128 232 288 500 564 610>
AnchorPoint: "Anchor-1" 390 39 basechar 0
AnchorPoint: "Anchor-0" 248 669 basechar 0
LayerCount: 2
Fore
SplineSet
487 610 m 1
 411 610 l 1
 411 62 l 1
 407 47 395 39 376 39 c 0
 365 39 356 42 349 49 c 2
 38 332 l 2
 32 337 30 343 30 352 c 0
 30 363 33 371 40 375 c 2
 349 564 l 1
 349 610 l 1
 -6 610 l 1
 -6 673 l 1
 487 673 l 1
 487 610 l 1
349 288 m 1
 349 500 l 1
 215 416 l 1
 349 288 l 1
349 128 m 1
 349 232 l 1
 180 395 l 1
 104 347 l 1
 349 128 l 1
EndSplineSet
Validated: 1
EndChar

StartChar: u09f1
Encoding: 131 2545 127
Width: 480
GlyphClass: 2
Flags: W
HStem: 610 63<-6 349 411 487>
VStem: 349 62<128 500 564 610>
LayerCount: 2
Fore
SplineSet
349 128 m 1
 349 500 l 1
 104 347 l 1
 349 128 l 1
-6 673 m 1
 487 673 l 1
 487 610 l 1
 411 610 l 1
 411 62 l 1
 407 47 395 39 376 39 c 0
 365 39 356 42 349 49 c 2
 38 332 l 2
 32 337 30 343 30 352 c 0
 30 363 33 371 40 375 c 2
 349 564 l 1
 349 610 l 1
 -6 610 l 1
 -6 673 l 1
65 197 m 1
 200 68 l 1
 180 47 l 1
 40 180 l 1
 65 197 l 1
EndSplineSet
Validated: 1
EndChar

StartChar: u09f2
Encoding: 132 2546 128
Width: 566
GlyphClass: 2
Flags: W
HStem: -213 291
VStem: 105 271
LayerCount: 2
Fore
SplineSet
372 -165 m 6
 374 -167 375 -170 376 -175 c 4
 377 -180 376 -185 375 -191 c 4
 374 -194 374 -196 373 -199 c 4
 367 -212 360 -217 351 -213 c 4
 348 -212 345 -210 342 -208 c 6
 120 -6 l 5
 105 78 l 5
 372 -165 l 6
EndSplineSet
Validated: 1
EndChar

StartChar: u09f3
Encoding: 133 2547 129
Width: 655
GlyphClass: 2
Flags: W
HStem: -1 46<376.847 563.216> 371 33<198 282 339 424> 535 21G<12.2308 69> 640 40<104.073 260.748>
VStem: 13 56<535 561> 284 55<83.113 370 407 618.743> 600 53<80.0691 186.414>
LayerCount: 2
Fore
SplineSet
653 134 m 0
 653 97 641 66 616 42 c 0
 585 13 539 -1 478 -1 c 0
 404 -1 350 21 316 65 c 1
 295 96 284 131 284 170 c 2
 282 370 l 1
 198 371 l 1
 198 404 l 1
 284 404 l 1
 284 562 l 2
 284 582 279 598 271 609 c 0
 258 630 231 640 188 640 c 0
 144 640 114 631 96 614 c 0
 78 597 69 570 69 535 c 1
 13 535 l 1
 12 561 l 1
 37 629 l 1
 63 663 113 680 188 680 c 0
 240 680 279 665 307 636 c 1
 328 611 339 580 339 544 c 2
 339 407 l 1
 424 404 l 1
 424 371 l 1
 339 370 l 1
 339 160 l 1
 345 130 353 103 363 77 c 1
 384 56 423 45 478 45 c 0
 518 45 548 53 569 71 c 0
 590 89 600 113 600 143 c 0
 600 161 592 176 577 188 c 1
 534 209 l 1
 550 256 l 1
 570 248 590 236 609 219 c 0
 638 193 653 164 653 134 c 0
EndSplineSet
Validated: 1
EndChar

StartChar: u09f4
Encoding: 134 2548 130
Width: 338
GlyphClass: 2
Flags: W
HStem: 21 271
VStem: 0 290
LayerCount: 2
Fore
SplineSet
241 288 m 2
 243 290 246 291 250 292 c 0
 258 294 267 294 275 290 c 0
 283 286 289 281 290 274 c 0
 291 271 290 268 288 265 c 0
 287 263 286 261 284 259 c 2
 83 36 l 1
 0 21 l 1
 241 288 l 2
EndSplineSet
Validated: 1
EndChar

StartChar: u09f5
Encoding: 135 2549 131
Width: 641
GlyphClass: 2
Flags: W
HStem: 282 58<169.679 267.085>
LayerCount: 2
Fore
SplineSet
595 774 m 5
 594.795898438 768.760742188 537.0888021 297.509766674 537 292 c 0
 536.935546875 288.000976562 509.657543288 215.945259726 509 212 c 0
 501 164 470.822392248 115.120292975 442 89 c 0
 410 60 373 44 331 40 c 1
 308 45 298 56 302 73 c 0
 303 76 304 78 305 81 c 0
 310 119 310 154 303 186 c 0
 300 202 295 217 289 231 c 0
 270 265 246 282 215 282 c 0
 198 282 182 275 170 261 c 0
 153 238 148 207 156 171 c 0
 160 153 167 133 177 112 c 0
 179 105 179 100 178 95 c 0
 177 92 176 91 175 89 c 0
 171 83 164 80 157 80 c 0
 148 80 142 84 138 91 c 0
 123 121 113 152 109 184 c 0
 106 208 107 230 111 250 c 0
 113 260 116 269 120 278 c 0
 139 319 168 340 209 340 c 0
 232 340 255 332 277 316 c 0
 299 300 317 278 329 251 c 0
 341 224 348 197 351 172 c 2
 359 107 l 1
 392 118 416 136 428 159 c 1
 450 191 467.665539747 197.943280185 461 238 c 0
 460.794921875 239.232421875 594.991210938 772.921875 595 774 c 5
EndSplineSet
Validated: 33
EndChar

StartChar: u09f6
Encoding: 136 2550 132
Width: 641
GlyphClass: 2
Flags: W
HStem: 282 55.3553<179.329 230>
VStem: 244.168 46.2769<204.303 280.562> 385 33<642.832 661.636> 409.866 63.435<306.538 562.449>
LayerCount: 2
Fore
SplineSet
385 654 m 1xe0
 418 690 l 1xe0
 440 636 459 544 473 412 c 0
 473.201010127 408.783837972 473.301007576 405.527270872 473.301007576 402.229283473 c 0xd0
 473.301007576 372.713129097 465.291413922 339.879292401 450 303 c 0
 442 282 431 261 418 238 c 0xe0
 376 164 321 108 253 71 c 0
 213.583984068 49.8499426707 177.864868343 37.9421358586 145.842652825 37.9421358586 c 0
 144.555798281 37.9421358586 143.274914006 37.9613662422 142 38 c 2
 140 38 l 1
 130 43 127 52 132 62 c 0
 135 68 139 73 146 80 c 2
 186 127 l 2
 210 157 229 190 241 226 c 1
 243.175248347 234.338451997 244.167570351 241.625413912 244.167570351 247.956187913 c 0
 244.167570351 259.087624174 241.099668871 267.262872521 236 273 c 2
 230 279 l 1
 219 282 l 1
 211 283 201 282 190 277 c 0
 184 275 178 272 172 268 c 0
 130 238 100 190 82 126 c 0
 78 117 72 110 65 105 c 0
 58 100 53 99 47 99 c 0
 41 100 38 103 39 109 c 0
 39 110 40 110 40 111 c 0
 48 141 61 172 78 203 c 0
 98 238 121 266 146 289 c 0
 181 321.236842105 212.606648199 337.355263158 240.038580697 337.355263158 c 0
 242.389889197 337.355263158 244.710526316 337.236842105 247 337 c 0
 249 337 250 337 251 337 c 0
 268 334 280 325 286 307 c 0
 288.666666667 299 290.444444444 290.111111111 290.444444444 280.333333333 c 0
 290.444444444 275.444444444 290 270.333333333 289 265 c 0
 288 257 285 249 282 240 c 0
 267 192 241 145 204 98 c 1
 236 105 266 119 297 142 c 0
 344 177 378 223 400 277 c 1
 406.508293513 305.991489285 409.866000579 343.034477266 409.866000579 388.128963945 c 0xd0
 409.866000579 419.250977411 408.266695627 454.207989429 405 493 c 0
 401 541 394 594 385 654 c 1xe0
EndSplineSet
Validated: 1
EndChar

StartChar: u09f7
Encoding: 137 2551 133
Width: 351
GlyphClass: 2
Flags: W
VStem: 167 48<17 569>
LayerCount: 2
Fore
SplineSet
215 569 m 1
 215 -39 l 1
 167 17 l 1
 167 624 l 1
 215 569 l 1
EndSplineSet
Validated: 1
EndChar

StartChar: u09f8
Encoding: 138 2552 134
Width: 316
GlyphClass: 2
Flags: W
VStem: 14 49<52.2682 400> 258 50<298.142 552.858>
LayerCount: 2
Fore
SplineSet
14 82 m 1
 14 477 l 1
 35 501 58 508 80 499 c 0
 91 495 102 486 114 473 c 2
 233 311 l 2
 242 298 250 293 254 298 c 0
 256 301 257 306 258 314 c 2
 257 543 l 1
 274 554 287 558 295 553 c 0
 300 550 304 545 306 538 c 1
 308 208 l 1
 302 163 291 148 275 161 c 0
 270 165 264 173 257 183 c 2
 87 407 l 2
 83 415 78 418 72 413 c 2
 65 405 l 1
 62 400 l 1
 63 81 l 1
 52 55 42 46 31 55 c 0
 25 60 20 69 14 82 c 1
EndSplineSet
Validated: 33
EndChar

StartChar: u09f9
Encoding: 139 2553 135
Width: 274
GlyphClass: 2
Flags: W
HStem: 196 68<121 202.4> 408 52<73.5759 184.361>
VStem: 209 57<274.021 383.215>
LayerCount: 2
Fore
SplineSet
131 408 m 0
 89 407 64 389 57 354 c 2
 53 332 l 1
 61 298 l 1
 68 277 88 267 121 265 c 2
 138 264 l 1
 178 265 201 275 207 295 c 0
 208 300 209 309 209 325 c 2
 209 333 l 2
 209 355 199 375 179 391 c 0
 165 402 150 408 131 408 c 0
131 460 m 0
 189 459 229 436 250 392 c 0
 260 372 266 350 266 325 c 0
 267 304 262 285 253 266 c 0
 248 257 242 247 235 239 c 0
 211 210 178 196 135 196 c 0
 95 196 64 206 42 227 c 0
 31 238 22 251 15 267 c 0
 8 282 4 299 3 319 c 0
 2 342 6 365 17 386 c 0
 23 396 30 407 38 417 c 0
 64 447 95 461 131 460 c 0
EndSplineSet
Validated: 33
EndChar

StartChar: u09fa
Encoding: 140 2554 136
Width: 383
GlyphClass: 2
Flags: W
HStem: 363 57<32.1816 179.801> 468 102<53.5647 144.388>
VStem: 35 129<482.424 555.529> 264 62<566.598 786.194>
LayerCount: 2
Fore
SplineSet
164 518 m 0
 164 503 158 491 145 482 c 0
 132 473 116 468 97 468 c 0
 79 468 65 473 53 482 c 0
 41 491 35 503 35 518 c 0
 35 533 41 546 53 556 c 0
 65 565 80 570 98 570 c 0
 117 570 133 565 145 556 c 0
 157 546 164 533 164 518 c 0
280 817 m 0
 310 800 326 757 326 688 c 0
 326 634 316 580 298 525 c 0
 280 468 258 428 231 405 c 1
 191 377 150 363 108 363 c 0
 79 363 51 369 20 382 c 1
 15 391 12 399 12 406 c 0
 12 419 22 428 41 435 c 1
 82 425 110 420 124 420 c 0
 154 420 178 434 197 462 c 0
 216 490 232 528 245 576 c 0
 258 624 264 667 264 706 c 0
 264 745 257 771 243 781 c 1
 242 792 242 800 244 806 c 0
 245 809 246 811 248 812 c 0
 253 816 261 818 275 817 c 0
 277 817 278 817 280 817 c 0
EndSplineSet
Validated: 1
EndChar

StartChar: zwnj
Encoding: 146 8204 137
Width: 0
GlyphClass: 2
Flags: W
VStem: -13 25<12 683>
LayerCount: 2
Fore
SplineSet
-12 684 m 1
 13 683 l 1
 12 12 l 1
 -13 12 l 1
 -12 684 l 1
EndSplineSet
Validated: 1
EndChar

StartChar: zwj
Encoding: 147 8205 138
Width: 0
GlyphClass: 2
Flags: W
HStem: 532 21G<-131 -79.2603 87.375 127>
VStem: -19 39<15 601>
LayerCount: 2
Fore
SplineSet
-19 10 m 1
 -19 605 l 1
 -102 532 l 1
 -131 542 l 1
 -34 630 l 1
 -146 688 l 1
 -126 723 l 1
 0 645 l 1
 93 723 l 1
 123 698 l 1
 20 625 l 1
 127 557 l 1
 118 537 l 1
 20 601 l 1
 20 15 l 1
 -19 10 l 1
EndSplineSet
Validated: 1
EndChar

StartChar: quotedblleft
Encoding: 148 8220 139
Width: 518
GlyphClass: 2
Flags: W
HStem: 622 48<142.33 208.926 330.972 417.926>
VStem: 72 48<670.413 747.1> 281 48<670.413 747.1>
LayerCount: 2
Fore
SplineSet
135 623 m 1
 93 633 72 657 72 695 c 0
 72 710 76 725 83 743 c 0
 100 783 129 818 172 848 c 1
 187 849 196 845 201 838 c 0
 204 834 205 830 205 824 c 0
 205 819 204 815 203 810 c 1
 191 804 175 789 155 765 c 0
 132 737 120 715 120 697 c 0
 120 684 127 675 142 670 c 0
 149 669 158 669 170 670 c 0
 176 670 184 671 191 672 c 1
 203 667 209 658 209 646 c 0
 209 637 205 630 196 625 c 1
 176 621 159 621 146 622 c 2
 135 623 l 1
344 623 m 1
 302 633 281 657 281 695 c 0
 281 710 285 725 292 743 c 0
 309 783 338 818 381 848 c 1
 396 849 405 845 410 838 c 0
 413 834 414 830 414 824 c 0
 414 819 413 815 412 810 c 1
 400 804 384 789 364 765 c 0
 341 737 329 715 329 697 c 0
 329 684 336 675 351 670 c 0
 358 669 367 669 379 670 c 0
 385 670 393 671 400 672 c 1
 412 667 418 658 418 646 c 0
 418 637 414 630 405 625 c 1
 385 621 369 621 356 622 c 2
 344 623 l 1
EndSplineSet
Validated: 33
EndChar

StartChar: quotedblright
Encoding: 149 8221 140
Width: 516
GlyphClass: 2
Flags: W
HStem: 756 49<101.356 167.67 310.356 376.67>
VStem: 190 48<678.91 755.812> 399 49<677.355 755.812>
LayerCount: 2
Fore
SplineSet
437 683 m 0
 420 642 390 607 347 578 c 1
 332 576 322 579 317 587 c 0
 314 591 313 596 313 603 c 0
 313 607 314 611 315 616 c 1
 327 621 344 636 365 661 c 0
 388 689 399 712 399 729 c 0
 399 742 392 751 377 756 c 0
 370 757 360 757 348 756 c 0
 342 756 335 755 328 754 c 1
 316 759 310 767 310 779 c 0
 310 789 315 796 324 801 c 1
 343 805 360 806 373 805 c 0
 377 805 380 804 383 803 c 0
 426 793 448 769 448 732 c 0
 448 717 444 700 437 683 c 0
228 683 m 0
 211 642 181 607 138 578 c 1
 123 576 113 579 108 587 c 0
 105 591 104 596 104 603 c 0
 104 607 105 611 106 616 c 1
 118 621 134 636 155 661 c 0
 178 689 190 712 190 729 c 0
 190 742 183 751 168 756 c 0
 161 757 151 757 139 756 c 0
 133 756 126 755 119 754 c 1
 107 759 101 767 101 779 c 0
 101 789 106 796 115 801 c 1
 134 805 151 806 164 805 c 0
 168 805 171 804 174 803 c 0
 217 793 238 769 238 732 c 0
 238 717 235 700 228 683 c 0
EndSplineSet
Validated: 33
EndChar

StartChar: euro
Encoding: 151 8364 141
Width: 519
GlyphClass: 2
Flags: W
HStem: 288 24<6 183 261 494> 386 24<6 188 270 493> 574 53<414.391 480.849>
LayerCount: 2
Fore
SplineSet
270 410 m 1
 493 410 l 1
 493 385 l 1
 256 386 l 1
 249 374 l 1
 244 330 l 1
 248 318 253 304 260 289 c 2
 251 312 l 1
 494 312 l 1
 494 287 l 1
 261 288 l 1
 270 269 280 248 293 225 c 0
 316 184 375 129 469 61 c 1
 464 12 l 1
 455 10 437 18 409 37 c 0
 395 46 378 58 359 73 c 0
 302 117 262 159 239 198 c 0
 223 225 208 255 194 287 c 1
 5 288 l 1
 6 314 l 1
 183 313 l 1
 176 330 l 1
 176 347 182 368 193 394 c 1
 188 386 l 1
 4 386 l 1
 6 409 l 1
 200 410 l 1
 207 424 215 438 225 454 c 0
 291 563 376 620 479 627 c 1
 493 574 l 1
 454 571 415 556 376 532 c 0
 343 511 308 471 270 410 c 1
EndSplineSet
Validated: 33
EndChar

StartChar: uni25CC
Encoding: 153 9676 142
Width: 776
GlyphClass: 2
Flags: W
HStem: -21 21G<312.5 361.085 511.667 561>
LayerCount: 2
Fore
SplineSet
148 313 m 1
 188 400 244 464 316 504 c 1
 353 450 l 1
 292 408 243 357 207 298 c 1
 148 313 l 1
498 521 m 1
 585 481 648 425 688 353 c 1
 634 315 l 1
 592 376 541 425 482 461 c 1
 498 521 l 1
356 -21 m 1
 269 19 206 75 166 147 c 1
 220 184 l 1
 262 123 312 74 371 38 c 1
 356 -21 l 1
694 183 m 1
 654 96 597 33 525 -8 c 1
 489 46 l 1
 550 88 598 139 634 198 c 1
 694 183 l 1
EndSplineSet
Validated: 1
EndChar

StartChar: u0981.salt
Encoding: 156 -1 144
Width: 0
GlyphClass: 2
Flags: W
HStem: 694 35<-167.973 -78.6589> 749 62<-155.67 -86.2864>
VStem: -221 34<747.862 789.646> -156 73<751.531 792.812> -58 37<750.332 791.909>
LayerCount: 2
Fore
SplineSet
-123 749 m 0
 -139 749 -149 755 -156 767 c 0
 -163 779 -161 790 -151 800 c 0
 -150 801 -150 801 -149 802 c 0
 -142 808 -133 811 -123 811 c 0
 -105 811 -92 805 -86 793 c 0
 -84 789 -83 784 -83 779 c 0
 -82 766 -89 757 -103 752 c 0
 -109 750 -116 749 -123 749 c 0
-117 694 m 0
 -157 694 -187 706 -206 729 c 0
 -216 743 -221 759 -221 778 c 1
 -216 786 -212 790 -207 790 c 0
 -202 790 -195 787 -187 781 c 1
 -184 763 -175 749 -159 739 c 0
 -149 732 -137 728 -126 729 c 0
 -102 730 -85 737 -75 750 c 0
 -70 757 -65 769 -58 786 c 1
 -51 790 -46 792 -41 792 c 0
 -33 792 -26 787 -21 778 c 1
 -27 735 -55 707 -104 695 c 0
 -109 695 -113 694 -117 694 c 0
EndSplineSet
Validated: 33
EndChar

StartChar: u099c_u09cd_u099e.akhn
Encoding: 157 -1 145
Width: 858
GlyphClass: 3
Flags: W
HStem: 28 52<296.089 441.912> 227 56<660.704 729.203> 508 20G<44 54.5> 610 63<-13 292 391 859>
VStem: 23 59<412.65 526.123> 202 61<350.441 505.277> 524 66<209.187 291.967> 749 59<132.618 213.518 303.251 380.942>
LayerCount: 2
Fore
SplineSet
747 173 m 0
 747 196 736 212 714 221 c 0
 705 225 695 227 683 227 c 1
 668 232 660 242 660 255 c 0
 660 269 667 278 682 283 c 1
 705 286 724 296 737 313 c 0
 745 323 749 334 749 346 c 0
 749 373 729 388 690 390 c 1
 656 383 632 371 615 353 c 2
 602 337 l 1
 584 307 l 2
 582 303 579 299 576 293 c 1
 587 271 592 247 590 220 c 0
 590 216 589 213 588 209 c 1
 609 183 627 165 640 155 c 0
 658 141 678 132 699 129 c 0
 728 125 744 136 747 163 c 0
 747 166 747 169 747 173 c 0
428 392 m 1
 391 479 363 540 344 577 c 1
 322 565 304 543 287 510 c 0
 271 479 263 449 263 419 c 0
 263 381 276 353 302 335 c 1
 428 392 l 1
202 427 m 0
 202 479 220 528 256 573 c 0
 267 587 279 600 292 610 c 1
 -13 610 l 1
 -13 673 l 1
 859 673 l 1
 859 610 l 1
 391 610 l 1
 484 405 l 1
 507 394 528 377 546 355 c 1
 568 390 596 416 629 434 c 0
 651 446 673 451 695 451 c 0
 725 451 752 440 775 418 c 0
 797 397 808 373 808 345 c 0
 808 311 793 283 763 259 c 1
 792 236 807 206 807 170 c 0
 807 129 789 97 752 76 c 0
 740 71 727 69 714 69 c 0
 674 69 634 86 594 120 c 0
 582 130 572 140 563 150 c 1
 536 108 511 79 489 62 c 0
 465 44 436 33 403 29 c 0
 394 28 385 28 375 28 c 0
 280 28 197 85 126 199 c 0
 67 295 33 397 23 506 c 1
 29 521 38 528 50 528 c 0
 59 528 70 523 82 515 c 1
 97 408 131 310 184 223 c 0
 242 128 304 80 370 80 c 0
 409 80 446 98 483 134 c 1
 510 167 524 202 524 241 c 0
 524 286 505 322 468 349 c 1
 455 345 428 330 387 306 c 0
 353 286 325 276 304 276 c 0
 293 276 282 278 271 283 c 1
 225 322 202 370 202 427 c 0
EndSplineSet
Validated: 33
Ligature2: "'akhn' Akhand in Bengali lookup 2 subtable" u099c u09cd u099e
EndChar

StartChar: u0995_u09cd_u09b7.akhn
Encoding: 158 -1 146
Width: 816
GlyphClass: 3
Flags: W
HStem: 610 63<-12 110.52 169 337 392.164 488 545 831>
VStem: 128 59<511.896 591.785> 287 66<282.331 406.666> 331 60<541.367 609.508> 488 57<133 408 494 610> 687 64<260.143 343.868>
LayerCount: 2
Fore
SplineSet
405 610 m 1xdc
 396 600 391 590 391 580 c 0
 391 553 424 524 488 494 c 1
 488 610 l 1
 405 610 l 1xdc
488 133 m 1
 488 430 l 1
 384 477 331 526 331 578 c 0xdc
 331 588 333 599 337 610 c 1
 169 610 l 1
 181 591 187 570 187 548 c 0
 187 538 186 527 183 514 c 1
 228 508 266 490 299 460 c 0
 335 427 353 388 353 343 c 0xec
 353 319 347 294 335 269 c 1
 488 133 l 1
287 342 m 0xec
 287 373 275 400 251 423 c 0
 229 445 204 456 175 456 c 0
 168 456 161 455 154 453 c 1
 133 420 103 392 62 368 c 1
 45 367 34 371 28 380 c 0
 25 384 24 390 24 397 c 0
 24 402 25 406 28 410 c 1
 52 422 74 441 95 467 c 0
 117 494 128 520 128 545 c 0
 128 578 107 600 67 610 c 1
 -12 610 l 1
 -12 673 l 1
 831 673 l 1
 831 610 l 1
 545 610 l 1
 545 471 l 1
 603 451 651 427 689 396 c 0
 730 363 751 330 751 297 c 0
 751 254 715 216 643 185 c 0
 633 182 625 187 618 198 c 0
 614 204 612 210 612 217 c 0
 612 222 613 226 614 230 c 1
 663 251 687 275 687 300 c 0
 687 339 640 375 545 408 c 1
 545 68 l 2
 545 58 537 51 522 45 c 0
 515 42 509 41 502 41 c 0
 494 41 487 43 483 47 c 2
 294 221 l 1
 269 197 237 175 200 155 c 1
 187 157 177 164 170 175 c 0
 167 180 166 186 166 191 c 0
 166 197 168 202 172 206 c 0
 248 249 287 294 287 342 c 0xec
EndSplineSet
Validated: 33
Ligature2: "'akhn' Akhand in Bengali lookup 2 subtable" u0995 u09cd u09b7
EndChar

StartChar: u09b9_u09cd_u09ae.cjct
Encoding: 159 -1 147
Width: 783
GlyphClass: 3
Flags: W
HStem: 428 54<325.077 466> 464 55<530.167 642.701> 610 63<-6 106.448 156 466 528 790>
VStem: 123 57<527.656 592.436> 284 58<294.789 424.334> 466 62<170 431 502 610> 662 51<108.965 446.448>
LayerCount: 2
Fore
SplineSet
466 170 m 1xbe
 466 431 l 1
 449 428 422 427 386 428 c 0
 368 429 347 429 324 431 c 1
 336 404 342 378 342 353 c 0
 342 336 339 320 334 305 c 1
 466 170 l 1xbe
268 501 m 1
 319 488 364 482 404 482 c 0
 426 482 447 484 466 488 c 1
 466 610 l 1
 156 610 l 1
 175 580 183 556 181 535 c 0
 181 533 180 532 180 530 c 1
 215 527 245 517 268 501 c 1
763 59 m 0
 763 47 756 39 741 34 c 0
 734 32 726 31 719 32 c 1
 688 59 669 108 662 179 c 1
 660 238 658 297 656 358 c 0
 654 419 645 454 626 462 c 0
 623 463 619 464 613 464 c 0
 611 464 583 458 528 445 c 1
 528 97 l 1
 466 84 l 1
 308 251 l 1
 279 221 243 198 200 181 c 1
 182 186 174 197 174 213 c 0
 174 219 175 224 178 230 c 1
 249 252 284 294 284 355 c 0
 284 388 273 415 250 439 c 0
 228 462 200 473 166 472 c 0
 165 472 163 471 162 471 c 0
 147 438 115 405 66 372 c 1
 55 372 45 378 37 389 c 0
 32 396 30 402 30 409 c 0
 30 413 31 416 33 419 c 0
 54 428 74 445 93 470 c 0
 113 496 123 522 123 546 c 0
 123 589 92 610 30 610 c 2
 -6 610 l 1
 -6 673 l 1
 790 673 l 1
 790 610 l 1
 528 610 l 1
 528 502 l 1
 566 513 596 519 618 519 c 0x7e
 636 519 650 516 660 509 c 0
 696 480 715 422 715 335 c 2
 713 240 l 2
 713 157 729 101 760 71 c 0
 762 67 763 63 763 59 c 0
EndSplineSet
Validated: 33
Substitution2: "'salt' Stylistic Alternatives in Bengali2 lookup 17-1" u09b9_u09cd_u09ae.salt
Ligature2: "'cjct' Conjunct Forms in Bengali2 lookup 13" u09b9 u09cd u09ae
EndChar

StartChar: u09a4_u09cd_u09a4.cjct
Encoding: 160 -1 148
Width: 705
GlyphClass: 3
Flags: W
HStem: 31 60<339.907 516.551> 519 57<360.099 481.81> 610 63<-12 704>
VStem: 19 55<511.333 552.763> 267 59<353.125 485.112> 525 58<358.857 476.374> 553 60<126.042 253.958>
LayerCount: 2
Fore
SplineSet
415 576 m 0xfc
 460 576 499 561 532 531 c 1
 546 515 l 1
 570 486 583 453 583 417 c 0xfc
 583 382 571 350 548 321 c 1
 591 283 613 239 613 189 c 0
 613 140 593 101 553 71 c 0
 517 44 472 31 419 31 c 0
 367 31 309 55 245 104 c 0
 219 125 196 146 176 168 c 0
 103 251 50 369 19 524 c 0
 18 539 21 548 28 553 c 0
 32 556 37 557 43 557 c 0
 56 557 66 550 74 536 c 1
 116 388 l 1
 133 336 157 290 187 249 c 0
 265 144 346 91 430 91 c 0
 445 91 461 92 476 96 c 0
 527 108 553 139 553 190 c 0xfa
 553 227 538 256 507 276 c 1
 485 285 474 297 474 310 c 0
 474 321 481 335 496 351 c 1
 515 368 525 389 525 414 c 0
 525 444 513 470 490 491 c 0
 469 510 445 519 416 519 c 0
 406 519 396 518 386 515 c 1
 346 494 326 464 326 425 c 0
 326 407 331 386 339 362 c 1
 340 348 336 338 328 333 c 0
 324 331 318 330 311 330 c 0
 301 330 293 334 287 342 c 0
 274 366 267 392 267 419 c 0
 267 462 281 498 309 529 c 0
 338 560 373 576 415 576 c 0xfc
-12 673 m 1
 704 673 l 1
 704 610 l 1
 -12 610 l 1
 -12 673 l 1
EndSplineSet
Validated: 1
Ligature2: "'cjct' Conjunct Forms in Bengali2 lookup 13" u09a4 u09cd u09a4
EndChar

StartChar: u0995_u09cd.haln
Encoding: 161 -1 149
Width: 707
GlyphClass: 3
Flags: W
HStem: -20 20G<399.579 445.273> 231 56<488.237 551.753> 511 61<419 510.875> 610 63<-7 357 419 711>
VStem: 357 62<121 493 569.44 610> 575 54<310.016 452.676>
LayerCount: 2
Fore
SplineSet
418 0 m 1
 583 -121 l 1
 551 -164 l 1
 383 -38 l 1
 418 0 l 1
357 493 m 1
 112 342 l 1
 357 121 l 1
 357 493 l 1
629 382 m 0
 629 335 618 298 595 269 c 0
 575 243 549 230 517 231 c 0
 502 230 493 233 488 241 c 0
 485 245 484 251 484 258 c 0
 484 273 491 282 504 287 c 1
 527 284 546 295 560 321 c 0
 570 340 575 361 575 384 c 0
 575 413 567 437 550 457 c 0
 519 495 476 513 423 511 c 2
 419 511 l 1
 419 55 l 2
 419 42 412 35 398 35 c 0
 383 35 369 41 357 51 c 2
 44 328 l 2
 35 333 31 340 31 348 c 0
 31 358 37 366 48 373 c 2
 357 560 l 1
 357 610 l 1
 -7 610 l 1
 -7 673 l 1
 711 673 l 1
 711 610 l 1
 419 610 l 1
 419 572 l 1
 559 556 629 493 629 382 c 0
EndSplineSet
Validated: 33
Ligature2: "'haln' Halant Forms in Bengali lookup 12 subtable" u0995 u09cd
EndChar

StartChar: u0996_u09cd.hln
Encoding: 162 -1 150
Width: 610
GlyphClass: 3
Flags: W
HStem: -20 20G<511.081 557.5> 473 58<61.9532 201.749> 610 63<536 613>
VStem: 300 57<427.379 569.354> 474 62<121 610>
LayerCount: 2
Fore
SplineSet
530 0 m 1
 695 -120 l 1
 663 -163 l 1
 495 -37 l 1
 530 0 l 1
613 673 m 1
 613 610 l 1
 536 610 l 1
 536 64 l 2
 536 55 529 47 515 42 c 0
 509 40 503 39 497 39 c 0
 488 39 480 41 474 46 c 2
 133 297 l 1
 127 306 125 315 125 324 c 0
 125 341 132 349 145 349 c 0
 186 354 221 369 252 397 c 0
 284 426 300 461 300 499 c 0
 300 524 293 548 279 572 c 1
 250 506 206 473 144 473 c 0
 108 473 67 485 24 508 c 1
 16 515 12 523 12 533 c 0
 12 552 21 562 39 562 c 0
 42 562 45 561 48 560 c 0
 82 540 114 531 141 531 c 0
 197 531 228 565 235 633 c 0
 235 646 239 655 246 660 c 0
 250 662 253 663 259 663 c 0
 265 663 271 661 278 657 c 0
 333 622 359 568 357 496 c 1
 357 491 l 1
 354 404 306 343 213 308 c 1
 474 121 l 1
 474 617 l 2
 474 654 491 673 527 673 c 2
 613 673 l 1
EndSplineSet
Validated: 33
Ligature2: "'haln' Halant Forms in Bengali lookup 12 subtable" u0996 u09cd
EndChar

StartChar: u0996_u09cd.haln
Encoding: 163 -1 151
Width: 599
GlyphClass: 3
Flags: W
HStem: -20 20G<502.579 548.438> 428 56<92.1449 185.998> 580 58<166.917 346.982> 610 63<525 604>
VStem: 231 59<249.213 383.167> 463 62<31.7449 471.968 545 610>
LayerCount: 2
Fore
SplineSet
521 0 m 1xcc
 687 -121 l 1
 654 -164 l 1
 486 -38 l 1
 521 0 l 1xcc
231 316 m 0
 231 349 219 376 196 398 c 0
 175 418 152 428 124 428 c 0
 102 428 80 422 59 409 c 0
 50 403 41 401 33 401 c 0
 18 401 10 409 10 424 c 0
 10 428 11 432 13 437 c 0
 31 505 62 555 108 587 c 0
 135 606 169 622 210 633 c 0
 230 637 250 638 268 638 c 0xec
 342 638 406 607 463 545 c 1
 463 673 l 1
 604 673 l 1
 604 610 l 1
 525 610 l 1xdc
 525 53 l 2
 525 38 516 31 495 31 c 0
 474 31 463 38 463 53 c 2
 463 382 l 2
 463 425 452 461 429 491 c 0
 381 550 323 580 255 580 c 0xec
 185 580 131 548 92 484 c 1
 132 488 166 483 196 468 c 0
 211 461 225 451 237 439 c 0
 272 406 290 365 290 316 c 0
 290 248 258 197 195 162 c 0
 191 161 188 160 184 160 c 0
 170 160 160 165 154 175 c 0
 152 179 150 183 150 187 c 0
 150 195 155 202 162 209 c 0
 209 236 231 271 231 316 c 0
EndSplineSet
Validated: 33
Ligature2: "'haln' Halant Forms in Bengali lookup 12 subtable" u0997 u09cd
EndChar

StartChar: u0998_u09cd.haln
Encoding: 164 -1 152
Width: 540
GlyphClass: 3
Flags: W
HStem: 610 63<-13 43 97.016 402 464 542>
VStem: 26 56<499.136 594.423> 402 62<121 610>
LayerCount: 2
Fore
SplineSet
460 2 m 1
 625 -119 l 1
 593 -162 l 1
 425 -36 l 1
 460 2 l 1
82 548 m 0
 82 525 92 506 113 492 c 0
 127 482 143 477 162 477 c 1
 205 484 l 1
 224 484 234 474 234 455 c 0
 234 448 231 441 226 435 c 2
 124 315 l 1
 402 121 l 1
 402 610 l 1
 125 610 l 1
 96 594 82 573 82 548 c 0
-13 673 m 1
 542 673 l 1
 542 610 l 1
 464 610 l 1
 464 62 l 2
 464 47 451 39 427 39 c 0
 417 39 409 41 402 46 c 2
 62 287 l 1
 53 291 48 298 48 307 c 0
 48 314 51 321 57 328 c 2
 135 420 l 1
 100 425 72 441 51 468 c 0
 34 489 26 515 26 543 c 0
 26 565 32 588 43 610 c 1
 -13 610 l 1
 -13 673 l 1
EndSplineSet
Validated: 1
Ligature2: "'haln' Halant Forms in Bengali lookup 12 subtable" u0998 u09cd
EndChar

StartChar: u0999_u09cd.haln
Encoding: 165 -1 153
Width: 628
GlyphClass: 3
Flags: W
HStem: -20 20G<412.541 459.5> 38 56<295.115 460.968> 436 59<298.019 424.117> 517 20G<38.5 51.5>
VStem: 223 56<342.249 449.588> 452 57<523.11 600.481> 544 57<172.656 314.237>
LayerCount: 2
Fore
SplineSet
432 0 m 1
 597 -120 l 1
 564 -163 l 1
 396 -37 l 1
 432 0 l 1
436 597 m 0
 408 617 380 614 350 590 c 0
 328 571 310 547 300 516 c 0
 299 512 298 508 297 504 c 1
 326 498 347 495 362 495 c 0
 404 495 434 515 452 556 c 1
 455 573 450 587 436 597 c 0
381 94 m 0
 420 94 456 108 489 135 c 0
 521 162 539 194 543 230 c 0
 544 234 544 238 544 243 c 0
 544 288 522 327 478 362 c 1
 298 265 l 1
 248 304 223 347 223 394 c 0
 223 425 225 448 230 465 c 0
 229 467 228 468 227 468 c 0
 144 506 87 561 57 633 c 0
 53 647 57 656 68 662 c 0
 73 664 78 665 84 665 c 0
 91 665 98 663 104 659 c 1
 143 593 188 547 241 522 c 1
 250 554 268 586 297 616 c 0
 329 650 361 668 393 671 c 0
 421 674 446 666 469 647 c 0
 480 638 491 625 501 610 c 1
 506 597 509 583 509 568 c 0
 509 530 493 498 462 472 c 0
 433 448 399 436 359 436 c 0
 332 436 307 441 285 450 c 0
 281 450 279 435 279 403 c 0
 279 379 287 358 303 339 c 1
 447 409 l 1
 455 416 466 420 480 420 c 0
 486 420 492 419 498 418 c 1
 567 368 601 310 601 244 c 0
 601 189 579 141 535 100 c 0
 491 59 440 38 383 38 c 0
 317 38 253 64 193 117 c 0
 147 157 113 204 90 256 c 0
 69 305 52 356 40 410 c 0
 36 426 30 460 20 511 c 1
 22 528 31 537 46 537 c 0
 57 537 67 531 74 519 c 1
 93 415 117 335 144 278 c 0
 169 228 201 186 242 151 c 0
 287 113 334 94 381 94 c 0
EndSplineSet
Validated: 33
Ligature2: "'haln' Halant Forms in Bengali lookup 12 subtable" u0989 u09cd
EndChar

StartChar: u099a_u09cd.haln
Encoding: 166 -1 154
Width: 478
GlyphClass: 3
Flags: W
HStem: -21 20G<266.579 312.273> 33 62<129.515 212.039> 610 63<-13 63 125 479>
VStem: 63 62<97.444 475 538.099 610> 337 57<250.489 381.936>
LayerCount: 2
Fore
SplineSet
285 -1 m 1
 450 -122 l 1
 417 -165 l 1
 250 -39 l 1
 285 -1 l 1
125 475 m 1
 125 145 l 2
 125 112 137 95 160 95 c 0
 170 95 182 99 197 107 c 0
 229 125 259 156 289 202 c 0
 321 252 337 297 337 336 c 0
 337 347 336 357 333 366 c 1
 324 381 291 398 234 415 c 0
 177 432 141 452 125 475 c 1
-13 673 m 1
 479 673 l 1
 479 610 l 1
 125 610 l 1
 125 570 l 1
 144 534 175 504 219 483 c 1
 327 440 l 2
 358 426 379 406 387 383 c 0
 392 370 394 355 394 337 c 0
 394 277 371 215 326 152 c 0
 280 89 231 50 178 35 c 0
 174 34 169 33 164 33 c 0
 135 33 111 44 90 65 c 0
 72 84 63 107 63 133 c 2
 63 610 l 1
 -13 610 l 1
 -13 673 l 1
EndSplineSet
Validated: 1
Ligature2: "'haln' Halant Forms in Bengali lookup 12 subtable" u099a u09cd
EndChar

StartChar: u099b_u09cd.haln
Encoding: 167 -1 155
Width: 610
GlyphClass: 3
Flags: W
HStem: -21 20G<440.579 486.273> 97 55<151.379 289.266> 252 49<149.764 234.828> 610 63<-13 79 149 609>
VStem: 87 62<302.324 524 577.59 604> 470 53<313.959 452.4>
LayerCount: 2
Fore
SplineSet
459 -1 m 1
 624 -122 l 1
 592 -165 l 1
 424 -39 l 1
 459 -1 l 1
149 524 m 1
 149 327 l 2
 149 310 157 301 173 301 c 0
 200 301 236 319 279 354 c 0
 331 398 350 433 333 457 c 0
 323 473 298 482 260 488 c 0
 203 497 166 509 149 524 c 1
523 392 m 0
 523 338 504 285 466 234 c 0
 445 206 421 184 396 167 c 0
 377 156 352 145 321 136 c 1
 399 132 480 110 563 69 c 0
 593 54 620 38 644 21 c 1
 648 12 649 6 649 -1 c 0
 649 -18 638 -26 615 -25 c 2
 611 -25 l 1
 542 23 461 56 369 74 c 0
 314 85 246 93 166 97 c 1
 156 105 150 116 150 129 c 0
 150 140 155 147 164 152 c 1
 216 158 252 163 270 168 c 0
 305 177 336 194 363 216 c 1
 391 235 416 261 437 294 c 0
 459 329 470 363 470 394 c 0
 470 439 445 468 393 482 c 1
 394 474 395 466 395 458 c 0
 395 403 367 355 313 312 c 0
 264 273 214 252 164 252 c 0
 113 252 87 275 87 320 c 2
 87 604 l 1
 79 610 l 1
 -13 610 l 1
 -13 673 l 1
 609 673 l 1
 609 612 l 1
 149 612 l 1
 149 587 176 567 229 554 c 0
 263 546 297 542 332 542 c 0
 348 542 361 542 370 544 c 1
 430 540 474 519 500 479 c 0
 516 455 523 426 523 392 c 0
EndSplineSet
Validated: 33
Ligature2: "'haln' Halant Forms in Bengali lookup 12 subtable" u099b u09cd
EndChar

StartChar: u099c_u09cd.haln
Encoding: 168 -1 156
Width: 849
GlyphClass: 3
Flags: W
HStem: -21 20G<548.579 594.273> -17 21G<754.5 767.5> 80 56<316.346 486.502> 610 63<-3 332 548 848>
VStem: 38 54<416.603 544.554> 260 57<386.291 516.374> 570 58<210.656 351.278> 674 57<101.039 337.3>
LayerCount: 2
Fore
SplineSet
567 -1 m 1xbf
 732 -122 l 1
 700 -165 l 1
 532 -39 l 1
 567 -1 l 1xbf
-3 673 m 1
 415 674 699 674 848 673 c 1
 848 610 l 1
 548 610 l 1
 776 470 l 1
 787 466 792 459 792 447 c 0
 792 442 791 437 788 432 c 0
 750 344 731 272 731 217 c 0
 731 157 750 91 788 19 c 1
 788 -5 778 -17 757 -17 c 0x7f
 752 -17 746 -16 740 -13 c 1
 696 73 674 149 674 216 c 0
 674 275 692 347 728 432 c 1
 439 613 l 1
 408 598 380 574 356 542 c 0
 330 508 317 475 317 443 c 0
 317 411 331 387 358 371 c 0
 361 372 392 384 452 408 c 0
 489 423 521 430 548 430 c 1
 601 391 628 341 628 279 c 0
 628 207 594 152 527 115 c 0
 484 92 442 80 399 80 c 0
 299 80 209 140 128 259 c 1
 106 284 83 332 62 403 c 0
 49 445 42 482 38 515 c 1
 38 536 46 546 62 546 c 0
 72 546 82 540 92 529 c 1
 100 432 132 347 187 272 c 0
 254 182 327 136 404 136 c 0
 449 136 490 153 529 188 c 0
 556 213 570 244 570 280 c 0
 570 317 556 350 527 377 c 1
 514 373 484 361 437 341 c 0
 400 325 370 316 347 315 c 1
 289 340 260 382 260 441 c 0
 260 499 284 555 332 610 c 1
 -3 610 l 1
 -3 673 l 1
EndSplineSet
Validated: 33
Ligature2: "'haln' Halant Forms in Bengali lookup 12 subtable" u099c u09cd
EndChar

StartChar: u099d_u09cd.haln
Encoding: 169 -1 157
Width: 705
GlyphClass: 3
Flags: W
HStem: -22 20G<383.579 429.273> 610 63<-6 347 619 705>
VStem: 347 62<123 272 351 491 560 610> 557 62<238 610>
LayerCount: 2
Fore
SplineSet
402 -2 m 1
 567 -123 l 1
 535 -166 l 1
 367 -40 l 1
 402 -2 l 1
347 491 m 1
 107 342 l 1
 347 123 l 1
 347 491 l 1
557 610 m 2
 557 652 578 673 619 673 c 2
 705 673 l 1
 705 610 l 1
 619 610 l 1
 619 162 l 2
 619 149 608 142 587 142 c 0
 574 142 564 145 557 152 c 2
 409 272 l 1
 409 57 l 2
 409 39 397 31 373 31 c 0
 363 31 354 33 347 39 c 2
 35 326 l 2
 31 329 29 336 29 345 c 0
 29 358 34 368 43 373 c 2
 347 560 l 1
 347 610 l 1
 -6 610 l 1
 -6 673 l 1
 347 673 l 2
 388 673 409 652 409 610 c 2
 409 351 l 1
 557 238 l 1
 557 610 l 2
EndSplineSet
Validated: 1
Ligature2: "'haln' Halant Forms in Bengali lookup 12 subtable" u099d u09cd
EndChar

StartChar: u099e_u09cd.haln
Encoding: 170 -1 158
Width: 924
GlyphClass: 3
Flags: W
HStem: -20 20G<571.579 617.273> 106 58<125.897 368.759> 125 59<195.094 461.783> 133 60<738.819 825.638> 310 59<735.639 805.639> 608 59<416.671 521.915>
VStem: 17 57<218.776 383.906> 252 62<331.507 516.086> 532 62<123 599.695> 833 67<396.01 484.239> 845 67<201.941 283.55>
LayerCount: 2
Fore
SplineSet
590 0 m 1x8f80
 755 -121 l 1
 723 -164 l 1
 555 -38 l 1
 590 0 l 1x8f80
252 426 m 0
 252 489 274 543 317 589 c 0
 350 624 389 647 436 659 c 0
 451 664 465 667 478 667 c 0
 506 667 533 656 559 633 c 0
 583 612 594 581 594 540 c 2
 594 60 l 2
 594 52 586 45 569 40 c 0
 562 38 555 36 548 36 c 0
 540 36 535 38 532 42 c 0
 490 97 438 125 375 125 c 0xaf80
 366 125 326 121 256 112 c 0
 226 108 205 106 195 106 c 0
 177 106 161 108 146 111 c 1
 93 131 56 160 37 201 c 0
 23 230 17 267 17 312 c 0
 17 330 18 350 20 373 c 1
 29 381 38 385 47 385 c 0
 58 385 68 379 77 369 c 1
 75 334 74 313 74 306 c 0
 74 249 93 208 130 182 c 0
 147 170 169 164 194 164 c 0xcf80
 209 164 236 167 274 174 c 0
 312 181 342 184 364 184 c 0xaf80
 425 184 481 164 532 123 c 1
 532 536 l 2
 532 584 516 608 483 608 c 0
 466 608 443 600 414 585 c 0
 348 551 314 502 314 438 c 0
 314 409 320 376 333 337 c 1
 331 320 321 311 301 311 c 0
 290 311 282 314 275 321 c 1
 260 355 252 390 252 426 c 0
849 342 m 1
 891 315 912 278 912 233 c 0x9fa0
 912 183 884 150 829 135 c 0
 821 134 812 133 803 133 c 0
 719 133 650 195 595 320 c 1
 595 375 l 1
 614 426 633 463 651 485 c 0
 687 529 728 552 776 555 c 1
 812 552 842 539 867 514 c 0
 889 492 900 466 900 437 c 0x9fc0
 900 402 883 370 849 342 c 1
845 241 m 0
 845 260 834 277 813 292 c 0
 796 304 777 310 758 310 c 1
 742 319 734 329 734 340 c 0
 734 351 741 361 754 369 c 1
 779 372 800 383 816 401 c 0
 827 414 833 428 833 444 c 0x9fc0
 833 477 811 493 768 493 c 0
 743 493 717 475 693 438 c 0
 687 429 670 399 643 348 c 1
 660 305 682 268 711 238 c 0
 740 208 770 193 799 193 c 0
 804 193 809 194 815 195 c 0
 835 208 845 223 845 241 c 0
EndSplineSet
Validated: 1
Ligature2: "'haln' Halant Forms in Bengali lookup 12 subtable" u099e u09cd
EndChar

StartChar: u099f_u09cd.haln
Encoding: 171 -1 159
Width: 491
GlyphClass: 3
Flags: W
HStem: -22 20G<267.053 313.273> 35 80<162.028 260.084> 610 63<-6 80 142 377.999 438 490> 756 57<4.73042 351.687>
VStem: -104 56<862.061 948.361> 80 62<128.7 609> 356 58<231.492 376.957> 378 60<673.327 729.985>
LayerCount: 2
Fore
SplineSet
286 -2 m 1xfc
 451 -123 l 1
 418 -166 l 1
 250 -40 l 1
 286 -2 l 1xfc
187 35 m 0
 162 35 137 47 115 72 c 0
 92 100 81 129 80 160 c 2
 80 609 l 1
 57 610 32 610 8 610 c 2
 -6 610 l 1
 -6 673 l 1
 375 673 l 1
 377 680 378 686 378 692 c 0
 378 735 329 756 229 756 c 1
 143 753 l 1
 49 763 -11 775 -35 789 c 0
 -76 811 -100 858 -104 930 c 1
 -103 943 -94 949 -78 949 c 0
 -65 949 -55 945 -48 936 c 1
 -47 885 -29 851 7 833 c 0
 34 820 78 813 139 813 c 2
 198 813 l 2
 271 812 322 806 355 794 c 0
 410 773 438 733 438 673 c 1xfd
 490 673 l 1
 490 610 l 1
 142 610 l 1
 142 176 l 2
 142 154 150 137 168 125 c 0
 178 118 191 115 204 115 c 0
 229 115 254 128 279 154 c 0
 331 210 356 264 356 315 c 0
 356 342 350 362 339 375 c 2
 327 386 l 1
 293 412 l 2
 290 416 290 420 290 425 c 0
 290 438 296 447 308 453 c 0
 314 456 320 457 326 457 c 1
 385 416 414 371 414 321 c 0xfe
 414 260 390 198 343 135 c 0
 294 69 242 35 187 35 c 0
EndSplineSet
Validated: 1
Ligature2: "'haln' Halant Forms in Bengali lookup 12 subtable" u099f u09cd
EndChar

StartChar: u09a0_u09cd.haln
Encoding: 172 -1 160
Width: 517
GlyphClass: 3
Flags: W
HStem: -23 20G<287.579 333.273> 39 55<143.13 276.757> 610 63<-1 196 314 521> 996 56<138.818 205.671>
VStem: 35 51<155.81 254.367> 74 58<871.763 987.493> 235 44<419.578 550.506> 380 63<207.636 413.469>
LayerCount: 2
Fore
SplineSet
306 -3 m 1xf3
 471 -124 l 1
 438 -167 l 1
 271 -41 l 1
 306 -3 l 1xf3
278 551 m 1
 279 540 279 528 279 517 c 0
 279 394 214 304 86 246 c 1xfb
 86 216 91 190 101 168 c 0
 106 157 113 146 121 137 c 0
 144 109 173 94 207 94 c 0
 242 94 276 109 308 140 c 0
 357 187 380 241 380 304 c 0
 380 381 346 464 278 551 c 1
74 950 m 0xf7
 74 1005 109 1040 180 1052 c 1
 198 1047 208 1035 208 1016 c 0
 208 1006 203 999 196 996 c 1
 153 996 132 980 132 949 c 0xf7
 132 927 144 891 167 842 c 1
 209 766 242 709 264 673 c 1
 521 673 l 1
 521 610 l 1
 314 610 l 1
 400 506 443 402 443 297 c 0
 443 232 422 173 381 121 c 0
 337 66 283 39 219 39 c 0
 195 39 171 44 147 52 c 0
 120 61 95 85 71 125 c 0
 47 164 35 202 35 236 c 0xfb
 35 261 42 279 56 292 c 1
 124 320 172 354 199 394 c 0
 223 429 235 472 235 524 c 0
 235 550 233 579 227 610 c 1
 -1 610 l 1
 -1 673 l 1
 196 673 l 1
 189 688 171 721 139 774 c 0
 96 849 74 907 74 950 c 0xf7
EndSplineSet
Validated: 1
Ligature2: "'haln' Halant Forms in Bengali lookup 12 subtable" u09a0 u09cd
EndChar

StartChar: u09a1_u09cd.haln
Encoding: 173 -1 161
Width: 735
GlyphClass: 3
Flags: W
HStem: -24 20G<435.579 481.273> 35 59<337.008 505.489> 272 61<352.041 421.346> 510 20G<56 64> 610 63<-7 289 351 733>
VStem: 29 55<455.312 529.172> 289 62<333.217 610> 600 58<192.009 376.799>
LayerCount: 2
Fore
SplineSet
733 673 m 1
 733 610 l 1
 351 610 l 1
 351 353 l 1
 356 340 364 333 375 333 c 0
 393 333 417 347 446 376 c 0
 472 402 497 433 522 470 c 0
 526 477 533 480 542 480 c 0
 556 480 569 474 580 463 c 0
 632 414 658 358 658 296 c 0
 658 264 651 229 638 190 c 1
 588 88 520 36 434 35 c 0
 367 34 303 59 241 109 c 0
 209 134 182 163 161 195 c 0
 110 271 66 373 29 502 c 1
 28 513 33 521 43 526 c 0
 48 529 53 530 59 530 c 0
 69 530 77 526 84 519 c 1
 119 408 151 329 179 281 c 1
 201 233 233 191 274 156 c 0
 323 115 374 94 426 94 c 0
 481 94 526 119 563 168 c 0
 588 201 600 240 600 285 c 0
 600 335 585 377 555 412 c 1
 510 361 481 330 468 319 c 0
 431 288 394 272 357 272 c 1
 312 279 289 316 289 382 c 2
 289 610 l 1
 -7 610 l 1
 -7 673 l 1
 733 673 l 1
454 -4 m 1
 619 -125 l 1
 587 -167 l 1
 419 -42 l 1
 454 -4 l 1
EndSplineSet
Validated: 33
Ligature2: "'haln' Halant Forms in Bengali lookup 12 subtable" u09a1 u09cd
EndChar

StartChar: u09a2_u09cd.haln
Encoding: 174 -1 162
Width: 504
GlyphClass: 3
Flags: W
HStem: -21 20G<238.579 284.273> 35 80<176.719 274.084> 610 63<-6 94 156 504>
VStem: 94 62<129.117 609> 371 57<232.755 376.957>
LayerCount: 2
Fore
SplineSet
257 -1 m 1
 422 -122 l 1
 390 -165 l 1
 222 -39 l 1
 257 -1 l 1
201 35 m 0
 176 35 152 47 130 72 c 0
 107 100 95 129 94 160 c 2
 94 609 l 1
 -6 610 l 1
 -6 673 l 1
 504 673 l 1
 504 610 l 1
 156 610 l 1
 156 176 l 2
 156 154 165 137 183 125 c 0
 193 118 205 115 218 115 c 0
 243 115 268 128 293 154 c 0
 345 210 371 264 371 315 c 0
 371 342 365 362 354 375 c 2
 342 386 l 1
 308 412 l 2
 305 416 304 420 304 425 c 0
 304 438 311 447 323 453 c 0
 329 456 334 457 340 457 c 1
 399 416 428 371 428 321 c 0
 428 260 404 198 357 135 c 0
 308 69 256 35 201 35 c 0
EndSplineSet
Validated: 1
Ligature2: "'haln' Halant Forms in Bengali lookup 12 subtable" u09a2 u09cd
EndChar

StartChar: u09a3_u09cd.haln
Encoding: 175 -1 163
Width: 522
GlyphClass: 3
Flags: W
HStem: -20 20G<400.579 446.273> 283 56<143.482 210.02> 591 55<152.608 309.579> 610 63<448 523>
VStem: 40 55<388.843 533.179> 386 62<44.8503 518.983 588 608.018>
LayerCount: 2
Fore
SplineSet
419 0 m 1xcc
 584 -121 l 1
 552 -164 l 1
 384 -38 l 1
 419 0 l 1xcc
40 461 m 0
 40 522 61 569 104 603 c 0
 141 632 188 646 246 646 c 0xec
 293 646 340 627 386 588 c 1
 386 645 407 673 448 673 c 2
 523 673 l 1
 523 610 l 1
 448 610 l 1xdc
 448 69 l 2
 448 52 438 44 419 44 c 0
 397 44 386 52 386 68 c 2
 386 414 l 2
 386 429 382 455 374 493 c 0
 368 521 350 544 320 563 c 0
 292 581 261 591 228 591 c 0xec
 188 591 154 577 128 548 c 1
 116 532 l 2
 102 511 95 487 95 461 c 0
 95 426 106 397 129 373 c 0
 149 352 173 340 200 339 c 1
 208 336 212 330 212 319 c 0
 212 306 208 295 199 288 c 0
 195 285 192 283 187 283 c 0
 115 297 69 336 49 398 c 0
 42 419 40 440 40 461 c 0
EndSplineSet
Validated: 1
Ligature2: "'haln' Halant Forms in Bengali lookup 12 subtable" u09a3 u09cd
EndChar

StartChar: u09a4_u09cd.haln
Encoding: 176 -1 164
Width: 727
GlyphClass: 3
Flags: W
HStem: -21 20G<466.579 512.273> 38 59<340.635 507.535> 489 58<391.042 527.428> 610 63<-6 726>
VStem: 30 54<452.125 548.282> 311 59<355.524 468.765> 592 58<201.736 422.116>
LayerCount: 2
Fore
SplineSet
485 -1 m 1
 650 -122 l 1
 618 -165 l 1
 450 -39 l 1
 485 -1 l 1
311 417 m 0
 311 454 326 486 356 512 c 0
 384 535 417 547 454 547 c 0
 516 548 564 525 600 478 c 0
 633 435 650 380 650 313 c 0
 650 244 633 183 599 132 c 0
 572 90 538 62 496 48 c 0
 476 41 455 38 434 38 c 0
 420 38 406 39 392 42 c 0
 335 52 288 72 252 101 c 0
 230 119 203 146 172 184 c 0
 94 281 46 394 30 523 c 0
 27 533 32 541 44 546 c 0
 49 548 54 549 59 549 c 0
 72 549 80 544 84 534 c 0
 104 453 120 397 132 366 c 0
 153 311 183 259 223 210 c 0
 252 174 281 149 308 133 c 0
 326 123 358 111 405 98 c 0
 413 97 421 97 428 97 c 0
 491 97 537 127 565 188 c 0
 581 222 590 262 592 310 c 0
 595 369 582 415 552 447 c 0
 523 477 487 491 445 489 c 0
 443 489 441 489 439 489 c 0
 393 481 370 456 370 416 c 0
 370 397 375 381 386 366 c 1
 386 346 376 336 355 336 c 0
 348 336 341 338 334 342 c 1
 319 367 311 392 311 417 c 0
-6 673 m 1
 726 673 l 1
 726 610 l 1
 -6 610 l 1
 -6 673 l 1
EndSplineSet
Validated: 33
Ligature2: "'haln' Halant Forms in Bengali lookup 12 subtable" u09a4 u09cd
EndChar

StartChar: u09a5_u09cd.haln
Encoding: 177 -1 165
Width: 582
GlyphClass: 3
Flags: W
HStem: -20 20G<481.579 527.273> 595 58<113.665 247.734> 610 63<505 582>
VStem: 27 56<468.738 562.18> 280 56<427.386 563.23> 443 62<117 610>
LayerCount: 2
Fore
SplineSet
500 0 m 1x9c
 665 -121 l 1
 633 -164 l 1
 465 -38 l 1
 500 0 l 1x9c
178 653 m 0xdc
 232 653 273 637 302 603 c 0
 325 577 336 543 336 504 c 0
 336 469 327 432 308 394 c 0
 291 361 257 327 208 292 c 1
 443 117 l 1
 443 610 l 2
 443 635 453 654 473 665 c 0
 482 671 493 673 505 673 c 2
 582 673 l 1
 582 610 l 1
 505 610 l 1xbc
 505 60 l 2
 505 47 493 40 467 40 c 0
 457 40 449 42 443 46 c 2
 137 274 l 1
 133 283 130 292 130 299 c 0
 130 310 135 318 144 321 c 0
 175 333 203 355 230 387 c 0
 263 426 280 465 280 504 c 0
 280 547 257 576 213 592 c 1
 200 594 188 595 178 595 c 0
 118 595 86 560 83 489 c 1
 80 475 71 468 52 468 c 0
 39 468 31 473 27 482 c 1
 23 558 44 609 90 634 c 0
 113 647 143 653 178 653 c 0xdc
EndSplineSet
Validated: 33
Ligature2: "'haln' Halant Forms in Bengali lookup 12 subtable" u09a5 u09cd
EndChar

StartChar: u09a6_u09cd.haln
Encoding: 178 -1 166
Width: 439
GlyphClass: 3
Flags: W
HStem: -20 20G<330.081 376.5> 610 63<-13 33 95 440>
VStem: 33 62<375 610> 255 58<134.204 395.955>
LayerCount: 2
Fore
SplineSet
349 0 m 1
 514 -120 l 1
 482 -163 l 1
 314 -37 l 1
 349 0 l 1
440 673 m 1
 440 610 l 1
 95 610 l 1
 95 375 l 1
 110 394 137 417 175 445 c 0
 239 492 288 514 321 514 c 0
 324 514 327 513 330 513 c 0
 351 511 362 499 361 478 c 1
 329 389 313 316 313 258 c 0
 313 196 329 133 363 69 c 1
 366 52 357 43 336 40 c 0
 329 39 321 39 313 40 c 1
 275 108 255 178 255 251 c 0
 255 306 267 370 289 443 c 1
 214 414 147 364 88 294 c 1
 80 289 71 287 61 287 c 0
 42 287 33 295 33 310 c 2
 33 610 l 1
 -13 610 l 1
 -13 673 l 1
 440 673 l 1
EndSplineSet
Validated: 33
Ligature2: "'haln' Halant Forms in Bengali lookup 12 subtable" u09a6 u09cd
EndChar

StartChar: u09a7_u09cd.haln
Encoding: 179 -1 167
Width: 485
GlyphClass: 3
Flags: W
HStem: 610 63<88.8144 191.242 402 478>
VStem: 21 58<515.468 597.177> 340 62<121 495 564 610>
LayerCount: 2
Fore
SplineSet
390 2 m 1
 555 -119 l 1
 523 -162 l 1
 355 -36 l 1
 390 2 l 1
340 121 m 1
 340 495 l 1
 95 344 l 1
 340 121 l 1
21 558 m 0
 21 606 44 638 91 657 c 0
 115 666 143 671 175 671 c 1
 187 668 193 659 193 646 c 0
 193 629 187 618 176 612 c 1
 111 612 79 595 79 562 c 0
 79 555 80 546 83 538 c 0
 106 499 141 480 186 480 c 0
 193 480 201 481 208 482 c 1
 340 564 l 1
 340 610 l 2
 340 652 361 673 402 673 c 2
 478 673 l 1
 478 610 l 1
 402 610 l 1
 402 53 l 2
 402 42 389 37 364 37 c 0
 354 37 346 39 340 42 c 2
 30 328 l 2
 26 333 23 339 23 347 c 0
 23 359 28 370 37 380 c 1
 126 432 l 1
 74 455 39 489 22 534 c 0
 21 542 21 550 21 558 c 0
EndSplineSet
Validated: 1
Ligature2: "'haln' Halant Forms in Bengali lookup 12 subtable" u09a7 u09cd
EndChar

StartChar: u09a8_u09cd.haln
Encoding: 180 -1 168
Width: 519
GlyphClass: 3
Flags: W
HStem: -21 20G<423.579 469.273> 395 58<148.563 320.331> 610 63<-6 388 450 526>
VStem: 40 59<199.172 347.313> 388 62<33.4395 322.305 390 610>
LayerCount: 2
Fore
SplineSet
442 -1 m 1
 607 -122 l 1
 575 -165 l 1
 407 -39 l 1
 442 -1 l 1
40 277 m 0
 40 332 60 375 99 408 c 0
 134 438 180 453 236 453 c 0
 295 453 345 432 388 390 c 1
 388 610 l 1
 -6 610 l 1
 -6 673 l 1
 526 673 l 1
 526 610 l 1
 450 610 l 1
 450 51 l 2
 450 39 440 33 419 33 c 0
 398 33 388 39 388 51 c 2
 388 263 l 1
 374 326 344 367 298 384 c 0
 278 391 256 395 230 395 c 0
 185 395 149 381 125 353 c 0
 107 332 99 306 99 276 c 0
 99 239 108 211 127 192 c 0
 136 183 151 173 171 162 c 0
 176 157 178 152 178 146 c 0
 178 135 174 126 164 119 c 0
 158 115 152 114 145 115 c 0
 104 131 75 158 58 195 c 0
 46 222 40 249 40 277 c 0
EndSplineSet
Validated: 1
Ligature2: "'haln' Halant Forms in Bengali lookup 12 subtable" u09a8 u09cd
EndChar

StartChar: u09aa_u09cd.haln
Encoding: 181 -1 169
Width: 644
GlyphClass: 3
Flags: W
HStem: 606 60<189.456 342.509> 610 63<575 650>
VStem: 513 62<35.6394 417.506 502 609.981>
LayerCount: 2
Fore
SplineSet
562 2 m 1x20
 727 -119 l 1
 694 -162 l 1
 526 -36 l 1
 562 2 l 1x20
400 542 m 1
 355 585 311 606 266 606 c 0xa0
 221 606 176 585 132 542 c 1
 254 398 l 1
 400 542 l 1
55 439 m 0
 41 439 29 446 22 459 c 0
 20 463 19 467 18 472 c 1
 65 575 135 638 229 661 c 0
 244 664 258 666 273 666 c 0xa0
 361 666 442 611 513 502 c 1
 513 609 l 2
 513 630 521 647 538 660 c 0
 549 668 561 673 575 673 c 2
 650 673 l 1
 650 610 l 1
 575 610 l 1x60
 575 55 l 2
 575 42 564 35 544 35 c 0
 523 35 513 41 513 54 c 2
 513 328 l 2
 513 359 505 390 489 422 c 0
 482 437 465 463 440 500 c 1
 211 276 l 1
 195 272 183 276 175 287 c 0
 171 292 168 299 168 306 c 0
 168 310 169 314 170 317 c 2
 210 358 l 1
 99 493 l 1
 68 443 l 1
 63 440 60 439 55 439 c 0
EndSplineSet
Validated: 33
LCarets2: 1 0
Ligature2: "'haln' Halant Forms in Bengali lookup 12 subtable" u09aa u09cd
EndChar

StartChar: u09ab_u09cd.haln
Encoding: 182 -1 170
Width: 686
GlyphClass: 3
Flags: W
HStem: -21 20G<402.579 448.273> 233 59<500.282 553.488> 515 55<423 517.605> 610 63<-9 16 96 694>
VStem: 361 62<121 515> 575 59<313.348 462.226>
LayerCount: 2
Fore
SplineSet
421 -1 m 1
 586 -122 l 1
 554 -165 l 1
 386 -39 l 1
 421 -1 l 1
575 389 m 0
 575 438 555 474 514 496 c 0
 489 509 459 515 423 515 c 1
 423 62 l 2
 424 51 420 44 412 40 c 0
 408 38 403 37 396 37 c 0
 382 37 370 41 361 49 c 2
 57 297 l 1
 53 305 51 312 51 319 c 0
 51 328 55 338 63 347 c 2
 166 443 l 1
 16 610 l 1
 -9 610 l 1
 -9 673 l 1
 694 673 l 1
 694 610 l 1
 96 610 l 1
 227 463 l 1
 233 449 234 437 230 429 c 0
 228 424 225 421 221 418 c 2
 118 321 l 1
 361 121 l 1
 361 514 l 2
 361 551 372 570 393 570 c 0
 505 570 578 538 612 474 c 0
 627 446 634 417 634 387 c 0
 634 347 623 311 600 280 c 0
 579 251 554 236 525 233 c 1
 508 235 499 246 499 267 c 0
 499 280 504 288 515 292 c 1
 533 290 549 301 561 327 c 0
 570 346 575 367 575 389 c 0
EndSplineSet
Validated: 33
Ligature2: "'haln' Halant Forms in Bengali lookup 12 subtable" u09ab u09cd
EndChar

StartChar: u09ac_u09cd.haln
Encoding: 183 -1 171
Width: 478
GlyphClass: 3
Flags: W
HStem: -20 20G<377.081 423.667> 610 63<-6 349 411 487>
VStem: 349 62<128 500 564 610>
LayerCount: 2
Fore
SplineSet
396 0 m 1
 562 -120 l 1
 529 -163 l 1
 361 -37 l 1
 396 0 l 1
349 128 m 1
 349 500 l 1
 104 347 l 1
 349 128 l 1
-6 673 m 1
 487 673 l 1
 487 610 l 1
 411 610 l 1
 411 62 l 1
 407 47 395 39 376 39 c 0
 365 39 356 42 349 49 c 2
 38 332 l 2
 32 337 30 343 30 352 c 0
 30 363 33 371 40 375 c 2
 349 564 l 1
 349 610 l 1
 -6 610 l 1
 -6 673 l 1
EndSplineSet
Validated: 1
Ligature2: "'haln' Halant Forms in Bengali lookup 12 subtable" u09ac u09cd
EndChar

StartChar: u09ad_u09cd.haln
Encoding: 184 -1 172
Width: 780
GlyphClass: 3
Flags: W
HStem: 24 67<363.342 552.112> 288 56<395.5 514.004> 610 63<-6 799>
VStem: 30 52<476.768 582.67> 317 61<360.922 475.25> 667 60<201.522 359.88>
LayerCount: 2
Fore
SplineSet
588 5 m 1
 753 -116 l 1
 721 -159 l 1
 553 -33 l 1
 588 5 l 1
450 288 m 0
 407 288 372 304 347 336 c 0
 327 362 317 393 317 430 c 0
 317 447 319 465 325 482 c 1
 332 489 339 493 348 493 c 0
 361 493 373 485 383 470 c 1
 380 455 378 442 378 429 c 0
 378 372 401 344 449 344 c 0
 456 344 464 345 471 347 c 0
 499 354 523 368 543 390 c 0
 552 400 566 420 586 452 c 0
 591 462 601 468 617 468 c 0
 624 468 630 466 636 461 c 0
 697 405 727 345 727 283 c 0
 727 246 716 210 695 173 c 0
 638 74 560 24 462 24 c 0
 349 24 249 89 160 220 c 0
 118 282 88 339 70 390 c 0
 54 434 41 491 30 562 c 1
 34 576 42 583 57 583 c 0
 65 583 73 581 82 577 c 1
 95 487 124 399 171 313 c 0
 203 255 239 208 277 172 c 0
 334 118 394 91 457 91 c 0
 527 91 584 119 628 175 c 0
 654 209 667 244 667 283 c 0
 667 322 652 358 622 392 c 1
 573 335 528 301 486 292 c 0
 474 289 462 288 450 288 c 0
-6 673 m 1
 799 673 l 1
 799 610 l 1
 -6 610 l 1
 -6 673 l 1
EndSplineSet
Validated: 1
Ligature2: "'haln' Halant Forms in Bengali lookup 12 subtable" u09ad u09cd
EndChar

StartChar: u09ae_u09cd.haln
Encoding: 185 -1 173
Width: 568
GlyphClass: 3
Flags: W
HStem: -23 20G<464.579 510.273> 67 56<166.766 246.255> 359 59<240 326.729> 610 63<-8 76 145 431 493 569>
VStem: 66 56<167.002 308.75> 431 62<39.6394 248.602 324 610>
LayerCount: 2
Fore
SplineSet
483 -3 m 1
 648 -124 l 1
 616 -167 l 1
 448 -41 l 1
 483 -3 l 1
431 610 m 1
 145 610 l 1
 106 547 l 1
 154 541 189 522 214 490 c 0
 225 475 233 459 237 440 c 0
 239 433 240 425 240 418 c 1
 265 419 289 416 312 409 c 0
 324 405 335 401 346 395 c 0
 371 381 400 357 431 324 c 1
 431 610 l 1
122 241 m 0
 122 201 135 169 162 147 c 0
 182 131 206 123 234 123 c 1
 243 119 247 111 247 99 c 0
 247 78 240 67 225 67 c 0
 144 74 93 117 70 195 c 1
 67 213 66 228 66 243 c 0
 66 312 104 366 181 407 c 1
 183 443 165 468 130 481 c 0
 115 487 97 490 77 490 c 0
 71 490 65 490 58 489 c 0
 38 493 28 503 28 522 c 0
 28 526 28 530 29 534 c 2
 76 610 l 1
 -8 610 l 1
 -8 673 l 1
 569 673 l 1
 569 610 l 1
 493 610 l 1
 493 57 l 2
 493 45 484 39 464 39 c 0
 442 39 431 45 431 58 c 2
 431 102 l 2
 431 171 423 222 406 255 c 0
 396 276 381 294 362 310 c 1
 328 343 289 359 246 359 c 0
 191 359 152 333 128 283 c 1
 124 269 122 255 122 241 c 0
EndSplineSet
Validated: 33
Ligature2: "'haln' Halant Forms in Bengali lookup 12 subtable" u09ae u09cd
EndChar

StartChar: u09af_u09cd.haln
Encoding: 186 -1 174
Width: 502
GlyphClass: 3
Flags: W
HStem: -21 20G<400.579 446.273> 610 63<-1 25 102 363 425 501>
VStem: 363 62<115 610>
LayerCount: 2
Fore
SplineSet
419 -1 m 1
 584 -122 l 1
 552 -165 l 1
 384 -39 l 1
 419 -1 l 1
-1 673 m 1
 501 673 l 1
 501 610 l 1
 425 610 l 1
 425 60 l 2
 425 43 413 34 390 34 c 0
 380 34 370 37 363 42 c 2
 37 278 l 2
 30 284 26 291 26 299 c 0
 26 306 29 314 34 321 c 1
 169 439 l 1
 25 610 l 1
 -1 610 l 1
 -1 673 l 1
102 610 m 1
 232 452 l 1
 237 440 238 431 235 423 c 0
 234 419 232 415 228 412 c 2
 97 302 l 1
 363 115 l 1
 363 610 l 1
 102 610 l 1
EndSplineSet
Validated: 1
Ligature2: "'haln' Halant Forms in Bengali lookup 12 subtable" u09af u09cd
EndChar

StartChar: u09b0_u09cd.haln
Encoding: 187 -1 175
Width: 482
GlyphClass: 3
Flags: W
HStem: -21 20G<383.579 429.273> 49 73<146 225> 610 63<-6 349 411 487>
VStem: 146 79<49 122> 349 62<128 500 564 610>
LayerCount: 2
Fore
SplineSet
402 -1 m 1
 567 -122 l 1
 535 -165 l 1
 367 -39 l 1
 402 -1 l 1
349 128 m 1
 349 500 l 1
 104 347 l 1
 349 128 l 1
-6 673 m 1
 487 673 l 1
 487 610 l 1
 411 610 l 1
 411 62 l 1
 407 47 395 39 376 39 c 0
 365 39 356 42 349 49 c 2
 38 332 l 2
 32 337 30 343 30 352 c 0
 30 363 33 371 40 375 c 2
 349 564 l 1
 349 610 l 1
 -6 610 l 1
 -6 673 l 1
146 122 m 1
 225 122 l 1
 225 49 l 1
 146 49 l 1
 146 122 l 1
EndSplineSet
Validated: 1
Ligature2: "'haln' Halant Forms in Bengali lookup 12 subtable" u09b0 u09cd
Ligature2: "'haln' Halant Forms in Bengali lookup 12 subtable" u09b0 u09cd
EndChar

StartChar: u09b2_u09cd.haln
Encoding: 188 -1 176
Width: 697
GlyphClass: 2
Flags: W
HStem: -20 20G<592.081 638.5> 185 56<137.659 246.554> 463 58<391.414 489.916> 469 59<131.583 267.201> 610 63<-6 557 619 695>
VStem: 29 59<288.55 425.655> 557 62<32.0613 386.309 452 610>
LayerCount: 2
Fore
SplineSet
611 0 m 1xce
 776 -120 l 1
 744 -163 l 1
 576 -37 l 1
 611 0 l 1xce
88 355 m 0
 88 318 102 289 131 267 c 0
 153 250 180 241 211 241 c 0
 217 241 223 241 229 242 c 1
 242 237 248 229 248 218 c 0
 248 204 242 193 229 186 c 1
 222 185 215 185 208 185 c 0
 157 185 115 201 80 235 c 0
 46 269 29 309 29 355 c 0
 29 386 38 417 56 446 c 0
 90 501 138 528 200 528 c 0xde
 254 528 297 506 331 461 c 1
 365 501 399 521 434 521 c 0
 472 521 513 498 557 452 c 1
 557 610 l 1
 -6 610 l 1
 -6 673 l 1
 695 673 l 1
 695 610 l 1
 619 610 l 1
 619 62 l 2
 619 41 608 31 587 31 c 0
 567 31 557 40 557 60 c 2
 557 351 l 1
 518 426 478 463 438 463 c 0xee
 407 463 380 439 359 390 c 1
 354 384 345 382 332 382 c 0
 319 382 310 385 304 392 c 1
 286 443 251 469 200 469 c 0xde
 165 469 136 456 114 431 c 0
 96 410 88 385 88 355 c 0
EndSplineSet
Validated: 1
EndChar

StartChar: u09b6_u09cd.haln
Encoding: 189 -1 177
Width: 631
GlyphClass: 3
Flags: W
HStem: -23 20G<538.053 584.273> 342 56<5.00432 102.373 298.424 399.109> 610 63<-15.4727 114.364 276.637 441.36 561 637>
VStem: 499 62<40.8581 561.344 609 609.796>
LayerCount: 2
Fore
SplineSet
557 -3 m 1
 722 -124 l 1
 689 -167 l 1
 521 -41 l 1
 557 -3 l 1
349 612 m 0
 316 612 289 602 268 581 c 2
 257 569 l 1
 245 553 240 534 241 513 c 0
 243 468 263 436 300 419 c 0
 321 409 353 402 394 398 c 1
 399 395 401 390 401 381 c 0
 401 363 396 350 387 342 c 1
 335 347 297 355 274 367 c 0
 247 381 223 407 202 445 c 1
 179 401 153 372 122 357 c 0
 101 348 66 342 16 339 c 1
 8 345 4 354 4 366 c 0
 4 377 7 387 14 395 c 1
 62 398 100 412 129 439 c 0
 146 455 157 473 162 494 c 0
 168 519 160 544 137 569 c 0
 119 588 100 600 79 605 c 0
 64 608 38 610 -1 610 c 0
 -11 610 -16 621 -16 643 c 0
 -16 663 -11 673 -1 673 c 0
 52 673 88 670 106 664 c 0
 142 653 174 624 201 577 c 1
 222 610 244 633 265 646 c 0
 284 659 312 668 349 673 c 1
 380 674 413 668 446 653 c 0
 474 640 492 626 499 609 c 1
 499 626 506 642 521 656 c 0
 533 667 547 673 561 673 c 2
 637 673 l 1
 637 610 l 1
 561 610 l 1
 561 60 l 2
 561 47 552 40 533 40 c 0
 510 40 499 47 499 60 c 2
 499 513 l 2
 499 539 483 562 452 582 c 0
 421 602 386 612 349 612 c 0
EndSplineSet
Validated: 33
Ligature2: "'haln' Halant Forms in Bengali lookup 12 subtable" u09b6 u09cd
EndChar

StartChar: u09b7_u09cd.haln
Encoding: 190 -1 178
Width: 492
GlyphClass: 3
Flags: W
HStem: -21 20G<395.579 441.273> 610 63<-8 18 95 355 417 494>
VStem: 355 62<115 329 392 610>
LayerCount: 2
Fore
SplineSet
414 -1 m 1
 579 -122 l 1
 547 -165 l 1
 379 -39 l 1
 414 -1 l 1
494 610 m 1
 417 610 l 1
 417 60 l 2
 417 43 405 34 382 34 c 0
 372 34 362 37 355 42 c 2
 30 278 l 2
 23 284 19 291 19 299 c 0
 19 306 21 314 26 321 c 1
 162 439 l 1
 18 610 l 1
 -8 610 l 1
 -8 673 l 1
 494 673 l 1
 494 610 l 1
355 392 m 1
 355 610 l 1
 95 610 l 1
 224 453 l 1
 355 392 l 1
355 115 m 1
 355 329 l 1
 203 397 l 1
 89 302 l 1
 355 115 l 1
EndSplineSet
Validated: 1
LCarets2: 1 0
Ligature2: "'haln' Halant Forms in Bengali lookup 12 subtable" u09b7 u09cd
EndChar

StartChar: u09b8_u09cd.haln
Encoding: 191 -1 179
Width: 656
GlyphClass: 3
Flags: W
HStem: -21 20G<564.053 610.273> 120 60<118.953 207.003> 393 56<366.6 439.98> 610 63<-6 143 218 524 586 662>
VStem: 524 62<29.8581 258.926 364 610>
LayerCount: 2
Fore
SplineSet
583 -1 m 1
 748 -122 l 1
 715 -165 l 1
 547 -39 l 1
 583 -1 l 1
524 610 m 1
 218 610 l 1
 177 542 l 1
 225 533 263 515 291 489 c 0
 306 475 323 455 341 429 c 1
 361 442 380 449 399 449 c 0
 433 449 474 421 524 364 c 1
 524 610 l 1
662 673 m 1
 662 610 l 1
 586 610 l 1
 586 49 l 2
 586 36 577 29 558 29 c 0
 535 29 524 36 524 49 c 2
 524 117 l 2
 524 192 509 258 479 315 c 0
 452 367 425 393 397 393 c 0
 382 393 371 384 364 366 c 1
 343 296 315 239 280 193 c 0
 242 144 203 120 162 120 c 0
 115 120 72 153 33 220 c 0
 31 225 31 229 31 233 c 0
 31 250 40 258 60 258 c 0
 67 258 75 256 82 252 c 1
 109 204 136 180 164 180 c 0
 206 180 252 243 303 369 c 1
 282 410 262 438 243 454 c 0
 217 476 177 488 125 489 c 0
 112 488 104 491 100 499 c 0
 98 503 96 508 96 515 c 0
 96 522 98 528 102 534 c 2
 143 610 l 1
 -6 610 l 1
 -6 673 l 1
 662 673 l 1
EndSplineSet
Validated: 1
Ligature2: "'haln' Halant Forms in Bengali lookup 12 subtable" u09b8 u09cd
EndChar

StartChar: u09b9_u09cd.haln
Encoding: 192 -1 180
Width: 448
GlyphClass: 3
Flags: W
HStem: -40 20G<347.081 393.5> 536 58<201.172 309.041> 610 63<-6 108 184 455>
VStem: 58 56<402.521 491.234> 353 57<354.894 491.687>
LayerCount: 2
Fore
SplineSet
366 -20 m 1
 531 -140 l 1
 499 -183 l 1
 331 -57 l 1
 366 -20 l 1
353 418 m 0
 353 460 339 492 310 514 c 1
 294 523 l 1
 275 531 l 2
 263 535 250 536 236 536 c 0
 159 536 118 496 114 416 c 1
 108 407 99 402 86 402 c 0
 72 402 63 409 58 423 c 1
 58 463 71 498 97 531 c 0
 113 551 131 566 152 574 c 1
 108 610 l 1
 -6 610 l 1
 -6 673 l 1
 455 673 l 1
 455 610 l 1
 184 610 l 2
 183 610 184 609 187 608 c 0
 189 607 191 606 194 605 c 0
 206 600 214 596 217 592 c 1
 224 594 231 594 239 594 c 0
 294 594 336 576 368 539 c 1
 381 521 l 1
 400 491 410 457 410 416 c 0
 410 405 409 393 408 382 c 0
 383 286 297 229 150 211 c 1
 501 -6 l 1
 502 -10 503 -14 503 -18 c 0
 503 -36 493 -45 474 -44 c 2
 471 -44 l 1
 29 227 l 1
 23 235 20 243 20 252 c 0
 20 271 28 280 45 280 c 0
 48 280 52 279 56 278 c 0
 83 274 110 272 134 272 c 0
 245 272 317 310 350 387 c 1
 352 397 353 407 353 418 c 0
EndSplineSet
Validated: 33
Ligature2: "'haln' Halant Forms in Bengali lookup 12 subtable" u09b9 u09cd
EndChar

StartChar: u09dc_u09cd.haln
Encoding: 193 -1 181
Width: 736
GlyphClass: 3
Flags: W
HStem: -83 73<422 500> -21 20G<566.579 612.273> 35 59<338.008 506.489> 272 61<353.041 422.346> 510 20G<57 65> 610 63<-6 290 352 734>
VStem: 30 55<455.312 529.172> 290 62<333.217 610> 422 78<-83 -10> 601 58<192.009 376.799>
LayerCount: 2
Fore
SplineSet
585 -1 m 1x7fc0
 750 -122 l 1
 718 -165 l 1
 550 -39 l 1
 585 -1 l 1x7fc0
422 -10 m 1xbfc0
 500 -10 l 1
 500 -83 l 1
 422 -83 l 1
 422 -10 l 1xbfc0
734 673 m 1
 734 610 l 1
 352 610 l 1
 352 353 l 1
 357 340 365 333 376 333 c 0
 394 333 418 347 447 376 c 0
 473 402 498 433 523 470 c 0
 527 477 534 480 543 480 c 0
 557 480 570 474 581 463 c 0
 633 414 659 358 659 296 c 0
 659 264 652 229 639 190 c 1
 589 88 521 36 435 35 c 0
 368 34 304 59 242 109 c 0
 210 134 183 163 162 195 c 0
 111 271 67 373 30 502 c 1
 29 513 34 521 44 526 c 0
 49 529 54 530 60 530 c 0
 70 530 78 526 85 519 c 1
 120 408 152 329 180 281 c 1
 202 233 234 191 275 156 c 0
 324 115 375 94 427 94 c 0
 482 94 527 119 564 168 c 0
 589 201 601 240 601 285 c 0
 601 335 586 377 556 412 c 1
 511 361 482 330 469 319 c 0
 432 288 395 272 358 272 c 1
 313 279 290 316 290 382 c 2
 290 610 l 1
 -6 610 l 1
 -6 673 l 1
 734 673 l 1
EndSplineSet
Validated: 33
LCarets2: 1 0
Ligature2: "'haln' Halant Forms in Bengali lookup 12 subtable" u09dc u09cd
EndChar

StartChar: u09dd_u09cd.haln
Encoding: 194 -1 182
Width: 502
GlyphClass: 3
Flags: W
HStem: -78 73<166 244> 35 80<176.719 274.084> 610 63<-6 94 156 504>
VStem: 94 62<129.117 609> 166 78<-78 -5> 371 57<232.755 376.957>
LayerCount: 2
Fore
SplineSet
340 -2 m 1
 505 -123 l 1
 473 -166 l 1
 305 -40 l 1
 340 -2 l 1
166 -5 m 1
 244 -5 l 1
 244 -78 l 1
 166 -78 l 1
 166 -5 l 1
201 35 m 0
 176 35 152 47 130 72 c 0
 107 100 95 129 94 160 c 2
 94 609 l 1
 -6 610 l 1
 -6 673 l 1
 504 673 l 1
 504 610 l 1
 156 610 l 1
 156 176 l 2
 156 154 165 137 183 125 c 0
 193 118 205 115 218 115 c 0
 243 115 268 128 293 154 c 0
 345 210 371 264 371 315 c 0
 371 342 365 362 354 375 c 2
 342 386 l 1
 308 412 l 2
 305 416 304 420 304 425 c 0
 304 438 311 447 323 453 c 0
 329 456 334 457 340 457 c 1
 399 416 428 371 428 321 c 0
 428 260 404 198 357 135 c 0
 308 69 256 35 201 35 c 0
EndSplineSet
Validated: 1
Ligature2: "'haln' Halant Forms in Bengali lookup 12 subtable" u09dd u09cd
EndChar

StartChar: glyph219
Encoding: 195 -1 183
Width: 497
GlyphClass: 2
Flags: W
HStem: -20 20G<393.053 439.273> 59 58<148 211> 610 63<-6 20 97 358 420 496>
VStem: 148 63<59 117> 358 62<115 610>
LayerCount: 2
Fore
SplineSet
412 0 m 1
 577 -121 l 1
 544 -164 l 1
 376 -38 l 1
 412 0 l 1
-6 673 m 1
 496 673 l 1
 496 610 l 1
 420 610 l 1
 420 60 l 2
 420 43 408 34 385 34 c 0
 375 34 365 37 358 42 c 2
 32 278 l 2
 25 284 21 291 21 299 c 0
 21 306 24 314 29 321 c 1
 164 439 l 1
 20 610 l 1
 -6 610 l 1
 -6 673 l 1
97 610 m 1
 227 452 l 1
 232 440 233 431 230 423 c 0
 229 419 227 415 223 412 c 2
 92 302 l 1
 358 115 l 1
 358 610 l 1
 97 610 l 1
148 117 m 1
 211 117 l 1
 211 59 l 1
 148 59 l 1
 148 117 l 1
EndSplineSet
Validated: 1
EndChar

StartChar: u099c_u09cd_u099e_u09cd.haln
Encoding: 196 -1 184
Width: 868
GlyphClass: 3
Flags: W
HStem: -20 20G<468.579 514.273> 28 52<303.089 448.912> 227 56<667.704 736.203> 508 20G<51 61.5> 610 63<-6 299 398 866>
VStem: 30 59<412.65 526.123> 209 61<350.441 507.141> 531 66<209.187 291.967> 754 60<130.99 215.149 300.936 382.08>
LayerCount: 2
Fore
SplineSet
487 -0 m 1
 652 -121 l 1
 620 -164 l 1
 452 -38 l 1
 487 -0 l 1
754 173 m 0
 754 196 743 212 721 221 c 0
 712 225 702 227 690 227 c 1
 675 232 667 242 667 255 c 0
 667 269 674 278 689 283 c 1
 712 286 731 296 744 313 c 0
 752 323 756 334 756 346 c 0
 756 373 736 388 697 390 c 1
 663 383 639 371 622 353 c 2
 608 337 l 1
 591 307 l 2
 589 303 586 299 583 293 c 1
 594 271 599 247 597 220 c 0
 597 216 596 213 595 209 c 1
 616 183 634 165 647 155 c 0
 665 141 685 132 706 129 c 0
 735 125 750 136 753 163 c 0
 753 166 754 169 754 173 c 0
435 392 m 1
 398 479 370 540 351 577 c 1
 329 565 310 543 293 510 c 0
 277 479 270 449 270 419 c 0
 270 381 283 353 309 335 c 1
 435 392 l 1
209 427 m 0
 209 479 227 528 263 573 c 0
 274 587 286 600 299 610 c 1
 -6 610 l 1
 -6 673 l 1
 866 673 l 1
 866 610 l 1
 398 610 l 1
 491 405 l 1
 514 394 535 377 553 355 c 1
 575 390 603 416 636 434 c 0
 658 446 680 451 702 451 c 0
 732 451 759 440 782 418 c 0
 804 397 815 373 815 345 c 0
 815 311 800 283 770 259 c 1
 799 236 814 206 814 170 c 0
 814 129 796 97 759 76 c 0
 747 71 734 69 721 69 c 0
 681 69 641 86 601 120 c 0
 589 130 579 140 570 150 c 1
 543 108 518 79 496 62 c 0
 472 44 443 33 410 29 c 0
 401 28 392 28 382 28 c 0
 287 28 204 85 133 199 c 0
 74 295 40 397 30 506 c 1
 36 521 45 528 57 528 c 0
 66 528 77 523 89 515 c 1
 104 408 138 310 191 223 c 0
 249 128 311 80 377 80 c 0
 416 80 453 98 490 134 c 1
 517 167 531 202 531 241 c 0
 531 286 512 322 475 349 c 1
 462 345 435 330 394 306 c 0
 360 286 332 276 311 276 c 0
 300 276 289 278 278 283 c 1
 232 322 209 370 209 427 c 0
EndSplineSet
Validated: 33
Ligature2: "'half' Half Forms in Bengali lookup 5 subtable" u099c_u09cd_u099e.akhn u09cd zwj
Ligature2: "'haln' Halant Forms in Bengali lookup 12 subtable" u099c_u09cd_u099e.akhn u09cd
EndChar

StartChar: kassa_u09cd.half
Encoding: 197 -1 185
Width: 833
GlyphClass: 3
Flags: W
HStem: -20 20G<521.579 567.273> 610 63<-6 116.52 175 343 398.164 494 551 837>
VStem: 134 59<511.896 591.785> 293 66<282.331 406.666> 337 60<541.367 609.508> 494 57<133 408 494 610> 693 64<260.143 343.868>
LayerCount: 2
Fore
SplineSet
540 0 m 1xe6
 705 -121 l 1
 673 -164 l 1
 505 -38 l 1
 540 0 l 1xe6
411 610 m 1
 402 600 397 590 397 580 c 0xee
 397 553 430 524 494 494 c 1
 494 610 l 1
 411 610 l 1
494 133 m 1
 494 430 l 1
 390 477 337 526 337 578 c 0xee
 337 588 339 599 343 610 c 1
 175 610 l 1
 187 591 193 570 193 548 c 0
 193 538 192 527 189 514 c 1
 234 508 272 490 305 460 c 0
 341 427 359 388 359 343 c 0xf6
 359 319 353 294 341 269 c 1
 494 133 l 1
293 342 m 0xf6
 293 373 281 400 257 423 c 0
 235 445 210 456 181 456 c 0
 174 456 167 455 160 453 c 1
 139 420 109 392 68 368 c 1
 51 367 40 371 34 380 c 0
 31 384 30 390 30 397 c 0
 30 402 31 406 34 410 c 1
 58 422 80 441 101 467 c 0
 123 494 134 520 134 545 c 0
 134 578 113 600 73 610 c 1
 -6 610 l 1
 -6 673 l 1
 837 673 l 1
 837 610 l 1
 551 610 l 1
 551 471 l 1
 609 451 657 427 695 396 c 0
 736 363 757 330 757 297 c 0
 757 254 721 216 649 185 c 0
 639 182 631 187 624 198 c 0
 620 204 618 210 618 217 c 0
 618 222 619 226 620 230 c 1
 669 251 693 275 693 300 c 0
 693 339 646 375 551 408 c 1
 551 68 l 2
 551 58 543 51 528 45 c 0
 521 42 515 41 508 41 c 0
 500 41 493 43 489 47 c 2
 300 221 l 1
 275 197 243 175 206 155 c 1
 193 157 183 164 176 175 c 0
 173 180 172 186 172 191 c 0
 172 197 174 202 178 206 c 0
 254 249 293 294 293 342 c 0xf6
EndSplineSet
Validated: 33
Ligature2: "'haln' Halant Forms in Bengali lookup 12 subtable" u0995_u09cd_u09b7.akhn u09cd
Ligature2: "'half' Half Forms in Bengali lookup 5 subtable" u0995_u09cd_u09b7.akhn u09cd zwj
EndChar

StartChar: u09b0_u09cd.rphf
Encoding: 198 -1 186
Width: 5
GlyphClass: 3
Flags: W
HStem: 667 224
VStem: -146 329
AnchorPoint: "Anchor-0" -100 660 mark 0
LayerCount: 2
Fore
SplineSet
149 891 m 0
 161 891 172 886 179 878 c 2
 183 871 l 2
 184 869 184 867 184 865 c 0
 184 860 182 857 176 852 c 2
 -61 667 l 1
 -146 667 l 1
 138 888 l 2
 141 890 144 891 149 891 c 0
EndSplineSet
Validated: 1
Ligature2: "'rphf' Reph Form in Bengali lookup 3 subtable" u09f0 u09cd
Ligature2: "'rphf' Reph Form in Bengali lookup 3 subtable" u09b0 u09cd
EndChar

StartChar: u09af_u09cd.pstf
Encoding: 199 -1 187
Width: 265
GlyphClass: 3
Flags: W
HStem: -15 51<31.5339 95.6074> 610 63<-6 112 166.961 272>
VStem: 75 57<367.057 576.402> 146 50<83.0889 272.188>
LayerCount: 2
Fore
SplineSet
272 673 m 1
 272 610 l 1
 232 610 l 2
 207 610 184 602 163 585 c 1
 151 574 l 2
 147 570 145 566 143 562 c 0
 136 543 132 520 132 494 c 0
 132 459 143 401 164 321 c 0
 185 241 196 182 196 147 c 0
 196 65 152 11 65 -15 c 1
 42 -11 31 -3 31 12 c 0
 31 21 36 29 47 36 c 1
 113 53 146 92 146 153 c 0
 146 184 135 239 111 318 c 0
 87 397 75 457 75 496 c 0
 75 542 88 580 112 610 c 1
 -6 610 l 1
 -6 673 l 1
 272 673 l 1
EndSplineSet
Validated: 1
LCarets2: 1 0
Ligature2: "'pstf' Post Base Forms in Bengali lookup 6 subtable" u09cd u09af
EndChar

StartChar: u09b0_u09cd.blwf
Encoding: 200 -1 188
Width: 5
GlyphClass: 3
Flags: W
HStem: -38 146<-131.999 -70> -29 58<-426.719 -223.814> -5 57<-328.514 -138.956>
VStem: -132 62<44 108>
LayerCount: 2
Fore
SplineSet
-132 108 m 1x90
 -70 108 l 1
 -70 -16 l 2
 -70 -31 -84 -38 -111 -38 c 0x90
 -122 -38 -129 -36 -132 -33 c 0
 -150 -14 -173 -5 -202 -5 c 0x30
 -217 -5 -243 -10 -278 -18 c 0
 -313 -26 -340 -29 -360 -29 c 0
 -403 -28 -435 -19 -456 -3 c 0
 -477 13 -498 44 -519 91 c 1
 -520 106 -517 115 -509 120 c 0
 -505 123 -499 124 -492 124 c 0
 -483 124 -474 121 -465 115 c 1
 -452 81 -438 58 -425 46 c 0
 -411 34 -393 29 -372 29 c 0x50
 -358 29 -334 32 -299 39 c 0
 -252 47 -215 52 -188 52 c 0x30
 -165 52 -146 49 -132 44 c 1
 -132 108 l 1x90
EndSplineSet
Validated: 1
Ligature2: "'blwf' Below Base Forms in Bengali2 lookup 4 subtable" u09cd u09f0
Ligature2: "'blwf' Below Base Forms in Bengali2 lookup 4 subtable" u09cd u09b0
EndChar

StartChar: u09ac_u09cd.blwf
Encoding: 201 -1 189
Width: 5
GlyphClass: 3
Flags: W
HStem: -183 226<-101.999 -41.7056>
VStem: -102 62<-128 -12>
LayerCount: 2
Fore
SplineSet
-102 -128 m 1
 -102 -12 l 1
 -193 -61 l 1
 -102 -128 l 1
-88 43 m 0
 -74 43 -62 38 -50 30 c 0
 -43 25 -40 20 -40 14 c 2
 -40 -156 l 2
 -40 -166 -47 -173 -63 -179 c 0
 -70 -182 -78 -183 -85 -183 c 0
 -92 -183 -98 -182 -102 -179 c 2
 -259 -70 l 1
 -265 -63 -268 -59 -268 -56 c 0
 -268 -53 -262 -49 -250 -42 c 2
 -102 40 l 2
 -99 42 -94 43 -88 43 c 0
EndSplineSet
Validated: 1
EndChar

StartChar: u0995_u09b0_u09cd.blwf.vatu
Encoding: 202 -1 190
Width: 856
GlyphClass: 3
Flags: W
HStem: 91 61<122.395 335.136> 109 61<191.887 408.688> 270 49.3316<626.297 711.003> 440 60.1795<605.436 711.923> 526 59<373.397 468.513> 610 63<-8 858>
VStem: 29 58<191.463 349.255> 233 58<280.867 452.789> 471 62<123 373.438 430 525.048> 727 54<338.849 412.499>
AnchorPoint: "Anchor-1" 493 20 basechar 0
LayerCount: 2
Fore
SplineSet
445 585 m 0x7fc0
 481 585 506 571 521 542 c 1
 528 524 l 2
 531 513 533 502 533 489 c 2
 533 430 l 1
 572 470 l 1
 594.163735325 489.789049397 619.460322458 500.179543369 648.385730673 500.179543369 c 0
 656.002512579 500.179543369 663.87091706 499.459066169 672 498 c 0
 706 492 734 477 755 452 c 0
 772 431 781 408 781 382 c 0
 781 374 780 365 778 357 c 0
 762.516129032 298.935483871 720.809573361 269.903225806 651.974018999 269.903225806 c 0
 649.67950052 269.903225806 647.35483871 269.935483871 645 270 c 1
 641 270 l 1
 631 275 626 283 626 293 c 0
 626 306 632 315 645 320 c 1
 649.730082256 319.556554789 654.241671561 319.331602528 658.544456881 319.331602528 c 0
 683.350918036 319.331602528 701.217226057 326.808486339 714 343 c 0
 722 353 727 366 727 382 c 0
 727 389 727 395 725 401 c 0
 709 427 688 440 664 440 c 0
 634 440 601 421 564 383 c 0
 552 371 541 359 533 347 c 1
 533 51 l 2
 533 43 526 35 512 29 c 0
 504 26 496 25 490 24 c 0
 481 24 475 26 471 31 c 0
 429 83 384 109 335 109 c 0x7fc0
 328 109 296 104 240 96 c 0
 215 92 199 91 190 91 c 0
 177 91 164 92 151 94 c 0
 70 116 29 177 29 278 c 0
 29 294 29 311 31 330 c 1
 36 343 44 350 57 350 c 0
 73 350 85 343 92 328 c 1
 88 309 87 292 87 275 c 0
 87 193 122 152 193 152 c 0xbfc0
 200 152 233 157 289 165 c 0
 312 169 328 170 336 170 c 0
 392 170 437 154 471 123 c 1
 471 487 l 2
 471 513 461 526 441 526 c 0
 436 526 431 525 426 524 c 0
 336 500 291 451 291 376 c 0
 291 351 297 323 308 294 c 0
 309 291 310 287 310 284 c 0
 310 270 301 263 283 263 c 0
 271 263 261 268 253 276 c 1
 240 310 233 343 233 375 c 0
 233 436 255 486 298 525 c 0
 332 556 374 576 423 583 c 0
 430 584 438 585 445 585 c 0x7fc0
858 610 m 1
 -8 610 l 1
 -8 673 l 1
 858 673 l 1
 858 610 l 1
EndSplineSet
Validated: 1
Substitution2: "'salt' Stylistic Alternatives in Bengali2 lookup 17-1" u0995_u09cd_u09b0.salt
Ligature2: "'vatu' Vattu Variants in Bengali lookup 7 subtable" u0995 u09b0_u09cd.blwf
EndChar

StartChar: u0996_u09b0_u09cd.blwf.vatu
Encoding: 203 -1 191
Width: 624
GlyphClass: 3
Flags: W
HStem: 33 55<134.158 317.051> 473 58<80.8202 220.1> 610 63<554 632>
VStem: 24 54<146.748 192.312> 319 57<427.379 569.354> 492 62<122 610>
AnchorPoint: "Anchor-1" 531 10 basechar 0
LayerCount: 2
Fore
SplineSet
491 122 m 1
 491 183 l 1
 492 183 l 1
 492 617 l 2
 492 654 510 673 546 673 c 2
 632 673 l 1
 632 610 l 1
 554 610 l 1
 554 64 l 2
 554 62 554 60 553 58 c 2
 553 41 l 2
 553 26 540 18 513 18 c 0
 503 18 496 19 491 24 c 0
 466 51 435 64 400 64 c 0
 378 64 348 58 310 47 c 0
 277 37 244 33 212 33 c 0
 115 33 53 77 24 167 c 1
 25 185 38 194 61 194 c 0
 67 194 72 193 78 191 c 1
 100 122 144 88 208 88 c 0
 228 88 250 92 275 99 c 0
 323 112 361 120 389 122 c 1
 152 297 l 1
 146 306 143 315 143 324 c 0
 143 341 150 349 163 349 c 0
 204 354 240 369 271 397 c 0
 303 426 319 461 319 499 c 0
 319 524 312 548 298 572 c 1
 269 506 224 473 162 473 c 0
 126 473 86 485 43 508 c 1
 35 515 31 523 31 533 c 0
 31 552 39 562 57 562 c 0
 60 562 64 561 67 560 c 0
 101 540 132 531 159 531 c 0
 215 531 247 565 254 633 c 0
 254 646 257 655 264 660 c 0
 268 662 272 663 278 663 c 0
 284 663 290 661 297 657 c 0
 352 622 378 568 376 496 c 1
 376 491 l 1
 373 404 325 343 232 308 c 1
 491 122 l 1
EndSplineSet
Validated: 33
Ligature2: "'vatu' Vattu Variants in Bengali lookup 7 subtable" u0996 u09b0_u09cd.blwf
EndChar

StartChar: u0997_u09b0_u09cd.blwf.vatu
Encoding: 204 -1 192
Width: 621
GlyphClass: 3
Flags: W
HStem: 0 21G<500 518.5> 16 55<124.88 310.627> 47 58<284.365 462.391> 418 56<115.619 209.96> 570 58<189.917 369.982> 600 63<548 626>
VStem: 17 53<129.748 175.517> 254 58<239.213 373.606> 486 62<86 461.968 535 600>
AnchorPoint: "Anchor-1" 511 -3 basechar 0
LayerCount: 2
Fore
SplineSet
254 306 m 0x3b80
 254 339 242 367 219 389 c 0
 198 409 174 418 146 418 c 0
 124 418 103 412 82 399 c 0
 73 393 64 391 56 391 c 0
 41 391 33 399 33 414 c 0
 33 418 34 422 36 427 c 0
 54 495 85 546 131 578 c 0
 158 597 192 612 233 623 c 0
 253 627 273 628 291 628 c 0x3b80
 365 628 429 597 486 535 c 1
 486 663 l 1
 626 663 l 1
 626 600 l 1
 548 600 l 1
 548 43 l 2
 548 38 547 35 545 32 c 1
 545 23 l 2
 545 8 532 0 505 0 c 0
 495 0 488 2 483 7 c 0
 458 34 428 47 393 47 c 0xb780
 371 47 340 41 302 30 c 0
 269 20 237 16 205 16 c 0
 108 16 46 60 17 150 c 1
 18 168 30 177 53 177 c 0
 59 177 64 176 70 174 c 1
 92 105 136 71 200 71 c 0x5380
 220 71 243 75 268 82 c 0
 325 98 368 105 398 105 c 0
 426 105 454 99 483 86 c 1
 483 166 l 1
 486 166 l 1
 486 372 l 2
 486 415 475 451 452 481 c 0
 404 540 346 570 278 570 c 0
 208 570 154 538 115 474 c 1
 155 478 189 473 219 458 c 0
 234 451 248 441 260 429 c 0
 295 396 312 355 312 306 c 0
 312 238 281 187 218 152 c 0
 214 151 211 150 207 150 c 0
 193 150 183 155 177 165 c 0
 175 169 173 173 173 177 c 0
 173 185 178 192 185 199 c 0
 232 226 254 261 254 306 c 0x3b80
EndSplineSet
Validated: 33
Ligature2: "'vatu' Vattu Variants in Bengali lookup 7 subtable" u0997 u09b0_u09cd.blwf
EndChar

StartChar: u0998_u09b0_u09cd.blwf.vatu
Encoding: 205 -1 193
Width: 545
GlyphClass: 3
Flags: W
HStem: -19 21G<420.5 439.5> -9 57<109.781 312.818> 15 56<208.271 370.46> 610 63<-9 46 100.016 405 467 545>
VStem: 29 56<499.136 594.423> 405 62<122 610>
AnchorPoint: "Anchor-1" 454 -16 basechar 0
LayerCount: 2
Fore
SplineSet
85 548 m 0x1c
 85 525 95 506 116 492 c 0
 130 482 147 477 166 477 c 1
 208 484 l 1
 227 484 237 474 237 455 c 0
 237 448 234 441 229 435 c 2
 127 315 l 1
 405 122 l 1
 405 127 l 1
 405 610 l 1
 128 610 l 1
 99 594 85 573 85 548 c 0x1c
371 70 m 1
 65 287 l 1
 56 291 51 298 51 307 c 0
 51 314 55 321 61 328 c 2
 139 420 l 1
 104 425 75 441 54 468 c 0
 37 489 29 515 29 543 c 0
 29 565 35 588 46 610 c 1
 -9 610 l 1
 -9 673 l 1
 545 673 l 1
 545 610 l 1
 467 610 l 1
 467 62 l 2
 467 60 467 59 467 57 c 2
 467 3 l 2
 467 -12 453 -19 426 -19 c 0
 415 -19 408 -17 405 -14 c 0
 387 5 363 15 334 15 c 0
 319 15 294 10 258 2 c 0xbc
 223 -6 197 -9 177 -9 c 0
 134 -8 102 0 81 16 c 0
 60 32 39 63 18 110 c 1
 17 125 20 135 28 140 c 0
 32 143 37 144 44 144 c 0
 53 144 63 141 72 135 c 1
 85 101 98 78 111 66 c 0
 125 54 143 48 165 48 c 0x5c
 179 48 203 52 238 59 c 0
 285 67 322 71 349 71 c 0x3c
 357 71 364 71 371 70 c 1
EndSplineSet
Validated: 33
Ligature2: "'vatu' Vattu Variants in Bengali lookup 7 subtable" u0998 u09b0_u09cd.blwf
EndChar

StartChar: u0999_u09b0_u09cd.blwf.vatu
Encoding: 206 -1 194
Width: 624
GlyphClass: 3
Flags: W
HStem: -103 45<111.256 231.041> -47 51<280.675 397.685> -20 20G<63 68.5> 38 56<295.115 406.394> 436 59<298.019 424.117> 517 20G<38.5 51.5>
VStem: 223 56<342.249 449.588> 407 51<-89.8398 -56.7084 -14 40> 452 57<523.11 600.481> 544 57<172.258 314.237>
AnchorPoint: "Anchor-1" 430 -92 basechar 0
LayerCount: 2
Fore
SplineSet
436 597 m 0x9ec0
 408 617 380 614 350 590 c 0
 328 571 310 547 300 516 c 0
 299 512 298 508 297 504 c 1
 326 498 347 495 362 495 c 0
 404 495 434 515 452 556 c 1
 455 573 450 587 436 597 c 0x9ec0
601 244 m 0
 601 194 581 149 543 109 c 0
 519 83 490 64 458 52 c 1
 458 -68 l 2
 458 -83 446 -91 422 -91 c 0
 414 -91 409 -88 407 -84 c 0
 395 -59 377 -47 355 -47 c 0xdf40
 342 -47 322 -52 295 -63 c 0
 232 -89 189 -103 164 -103 c 0
 123 -103 85 -79 50 -30 c 1
 50 -17 51 -8 56 -3 c 0
 58 -1 61 0 65 0 c 0xbf40
 72 0 81 -3 92 -10 c 1
 109 -42 132 -58 159 -58 c 0
 173 -58 192 -52 217 -42 c 2
 285 -15 l 2
 320 -2 343 4 353 4 c 0
 369 4 387 -2 407 -14 c 1
 407 40 l 1xdf40
 399 39 391 38 383 38 c 0
 317 38 253 64 193 117 c 0
 147 157 113 204 90 256 c 0
 69 305 52 356 40 410 c 0
 36 426 30 460 20 511 c 1
 22 528 31 537 46 537 c 0
 57 537 67 531 74 519 c 1
 93 415 117 335 144 278 c 0
 169 228 201 186 242 151 c 0
 287 113 334 94 381 94 c 0
 420 94 456 108 489 135 c 0
 521 162 539 194 543 230 c 0
 544 234 544 238 544 243 c 0
 544 288 522 327 478 362 c 1
 298 265 l 1
 248 304 223 347 223 394 c 0
 223 425 225 448 230 465 c 0
 229 467 228 468 227 468 c 0
 144 506 87 561 57 633 c 0
 53 647 57 656 68 662 c 0
 73 664 78 665 84 665 c 0
 91 665 98 663 104 659 c 1
 143 593 188 547 241 522 c 1
 250 554 268 586 297 616 c 0
 329 650 361 668 393 671 c 0
 421 674 446 666 469 647 c 0
 480 638 491 625 501 610 c 1
 506 597 509 583 509 568 c 0
 509 530 493 498 462 472 c 0
 433 448 399 436 359 436 c 0
 332 436 307 441 285 450 c 0
 281 450 279 435 279 403 c 0
 279 379 287 358 303 339 c 1
 447 409 l 1
 455 416 466 420 480 420 c 0
 486 420 492 419 498 418 c 1
 567 368 601 310 601 244 c 0
EndSplineSet
Validated: 33
Ligature2: "'vatu' Vattu Variants in Bengali lookup 7 subtable" u0999 u09b0_u09cd.blwf
EndChar

StartChar: u099a_u09b0_u09cd.blwf.vatu
Encoding: 207 -1 195
Width: 475
GlyphClass: 3
Flags: W
HStem: -83 45<-31.7441 89.6973> -27 51<140.148 253.846> 33 62<136.707 219.25> 610 63<-5 70 132 486>
VStem: 70 62<97.444 475 538.099 610> 264 51<6 77> 344 57<250.489 381.936>
AnchorPoint: "Anchor-1" 297 -77 basechar 0
LayerCount: 2
Fore
SplineSet
132 475 m 1
 132 145 l 2
 132 112 144 95 167 95 c 0
 177 95 189 99 204 107 c 0
 236 125 266 156 296 202 c 0
 328 252 344 297 344 336 c 0
 344 347 343 357 340 366 c 1
 331 381 298 398 241 415 c 0
 184 432 148 452 132 475 c 1
264 77 m 1
 239 57 213 43 186 35 c 0
 182 34 176 33 171 33 c 0
 142 33 119 44 98 65 c 0
 80 84 70 107 70 133 c 2
 70 610 l 1
 -5 610 l 1
 -5 673 l 1
 486 673 l 1
 486 610 l 1
 132 610 l 1
 132 570 l 1
 151 534 183 504 227 483 c 1
 334 440 l 2
 365 426 386 406 394 383 c 0
 399 370 401 355 401 337 c 0
 401 277 379 215 333 152 c 0
 326 142 319 134 312 125 c 1
 315 126 l 1
 315 -48 l 2
 315 -63 303 -71 279 -71 c 0
 271 -71 266 -69 264 -65 c 0
 252 -40 234 -27 212 -27 c 0
 199 -27 179 -33 152 -44 c 0
 89 -70 46 -83 21 -83 c 0
 -20 -83 -58 -59 -93 -10 c 1
 -93 3 -92 12 -87 17 c 0
 -85 19 -82 20 -78 20 c 0
 -71 20 -62 17 -51 10 c 1
 -34 -22 -11 -38 16 -38 c 0
 30 -38 49 -33 74 -23 c 2
 142 5 l 2
 177 18 199 24 209 24 c 0
 225 24 244 18 264 6 c 1
 264 77 l 1
EndSplineSet
Validated: 1
Ligature2: "'vatu' Vattu Variants in Bengali lookup 7 subtable" u099a u09b0_u09cd.blwf
EndChar

StartChar: u099b_u09b0_u09cd.blwf.vatu
Encoding: 208 -1 196
Width: 617
GlyphClass: 3
Flags: W
HStem: -110 45<118.959 240.422> -54 51<291.182 404.846> 252 49<156.276 241.554> 610 63<-6 85 156 616>
VStem: 94 62<302.324 524 577.59 604> 415 51<-21 50> 477 53<316.006 451.086>
AnchorPoint: "Anchor-1" 448 -103 basechar 0
LayerCount: 2
Fore
SplineSet
156 524 m 1
 156 327 l 2
 156 310 164 301 180 301 c 0
 207 301 243 319 286 354 c 0
 338 398 356 433 339 457 c 0
 329 473 305 482 267 488 c 0
 210 497 173 509 156 524 c 1
530 392 m 0
 530 338 511 285 473 234 c 0
 452 206 427 184 402 167 c 0
 383 156 359 145 328 136 c 1
 406 132 487 110 570 69 c 0
 600 54 626 38 650 21 c 1
 654 12 656 6 656 -1 c 0
 656 -18 645 -26 622 -25 c 2
 618 -25 l 1
 572 7 522 31 466 50 c 1
 466 -75 l 2
 466 -90 454 -98 430 -98 c 0
 422 -98 417 -96 415 -92 c 0
 403 -67 385 -54 363 -54 c 0
 350 -54 330 -60 303 -71 c 0
 240 -97 196 -110 171 -110 c 0
 130 -110 93 -86 58 -37 c 1
 58 -24 59 -15 64 -10 c 0
 66 -8 69 -7 73 -7 c 0
 80 -7 89 -10 100 -17 c 1
 117 -49 140 -65 167 -65 c 0
 181 -65 200 -60 225 -50 c 2
 292 -22 l 2
 327 -9 350 -3 360 -3 c 0
 376 -3 395 -9 415 -21 c 1
 415 65 l 1
 352 81 270 92 172 97 c 1
 162 105 157 116 157 129 c 0
 157 140 161 147 170 152 c 1
 222 158 258 163 276 168 c 0
 311 177 343 194 370 216 c 1
 398 235 422 261 443 294 c 0
 465 329 477 363 477 394 c 0
 477 439 451 468 399 482 c 1
 400 474 401 466 401 458 c 0
 401 403 374 355 320 312 c 0
 271 273 220 252 170 252 c 0
 119 252 94 275 94 320 c 2
 94 604 l 1
 85 610 l 1
 -6 610 l 1
 -6 673 l 1
 616 673 l 1
 616 612 l 1
 156 612 l 1
 156 587 183 567 236 554 c 0
 270 546 303 542 338 542 c 0
 354 542 367 542 376 544 c 1
 436 540 480 519 506 479 c 0
 522 455 530 426 530 392 c 0
EndSplineSet
Validated: 33
Ligature2: "'vatu' Vattu Variants in Bengali lookup 7 subtable" u099b u09b0_u09cd.blwf
EndChar

StartChar: u099c_u09b0_u09cd.blwf.vatu
Encoding: 209 -1 197
Width: 665
GlyphClass: 3
Flags: W
HStem: 49 56<144.389 359.347> 85 56<327.948 545.25> 162 56<252.315 396.414> 346 57<264.26 333.906> 610 63<-6 264 321.235 407.375 476 672>
VStem: 43 57<454.373 558.187> 189 57<409.065 479> 434 56<253.348 377.572> 537 56<134.103 395.031>
AnchorPoint: "Anchor-1" 600 39 basechar 0
LayerCount: 2
Fore
SplineSet
326 218 m 0x7f80
 361 218 388 229 409 250 c 0
 426 267 434 288 434 312 c 0
 434 337 425 363 405 388 c 1
 392 386 370 378 339 365 c 0
 311 352 289 346 274 346 c 0
 266 346 258 347 251 350 c 0
 210 375 189 410 189 455 c 0
 189 512 214 563 264 610 c 1
 -6 610 l 1
 -6 673 l 1
 672 673 l 1
 672 610 l 1
 476 610 l 1
 631 507 l 1
 645 502 652 489 652 469 c 0
 652 465 651 462 650 460 c 0
 612 411 593 345 593 262 c 0
 593 202 602 137 622 66 c 1
 618 47 607 38 587 38 c 0
 582 38 577 39 572 41 c 1
 545 70 509 85 466 85 c 0x7f80
 439 85 399 79 345 67 c 0
 291 55 250 49 222 49 c 0
 127 49 63 97 31 192 c 1
 34 212 43 221 58 221 c 0
 66 221 76 217 86 210 c 1
 111 140 154 105 215 105 c 0xbf80
 244 105 285 111 341 123 c 0
 397 135 439 141 468 141 c 0
 496 141 522 138 546 131 c 1
 540 200 537 247 537 274 c 0
 537 346 553 411 585 471 c 1
 389 602 l 2
 383 605 377 607 370 607 c 0
 347 607 322 593 296 566 c 0
 270 539 254 510 248 479 c 1
 246 461 l 1
 246 438 255 419 273 404 c 0
 276 403 278 403 281 403 c 0
 289 403 307 410 334 425 c 0
 361 440 386 447 407 447 c 0
 413 447 419 446 426 445 c 1
 469 419 490 377 490 320 c 0
 490 274 476 236 448 206 c 0
 427 183 401 169 370 165 c 0
 357 163 344 162 332 162 c 0
 179 162 83 289 43 544 c 1
 54 555 65 560 76 560 c 0
 84 560 92 558 100 552 c 1
 117 437 149 351 195 292 c 0
 234 243 277 218 326 218 c 0x7f80
EndSplineSet
Validated: 1
Ligature2: "'vatu' Vattu Variants in Bengali lookup 7 subtable" u099c u09b0_u09cd.blwf
EndChar

StartChar: u099d_u09b0_u09cd.blwf.vatu
Encoding: 210 -1 198
Width: 694
GlyphClass: 3
Flags: W
HStem: 28 55<-10.3417 171.592> 60 58<151.721 260.889> 610 63<-6 347 619 705>
VStem: -120 53<142.73 187.656> 347 62<124 272 351 491 560 610> 557 62<238 610>
AnchorPoint: "Anchor-1" 383 7 basechar 0
LayerCount: 2
Fore
SplineSet
346 124 m 2x3c
 346 126 346 137 345 158 c 0
 345 166 346 173 347 178 c 2
 347 491 l 1
 106 342 l 1
 346 124 l 2x3c
261 118 m 1x7c
 35 326 l 2
 31 329 28 336 28 345 c 0
 28 358 33 368 42 373 c 2
 347 560 l 1
 347 610 l 1
 -6 610 l 1
 -6 673 l 1
 347 673 l 2
 388 673 409 652 409 610 c 2
 409 351 l 1
 557 238 l 1
 557 610 l 2
 557 652 578 673 619 673 c 2
 705 673 l 1
 705 610 l 1
 619 610 l 1
 619 162 l 2
 619 149 607 142 586 142 c 0
 573 142 564 145 557 152 c 2
 409 272 l 1
 409 57 l 2
 409 55 408 53 408 51 c 2
 408 36 l 2
 408 21 395 13 368 13 c 0
 358 13 351 15 346 20 c 0
 321 47 291 60 256 60 c 0x7c
 234 60 203 53 165 42 c 0
 132 32 100 28 68 28 c 0
 -29 28 -91 73 -120 163 c 1
 -119 181 -107 189 -84 189 c 0
 -78 189 -73 189 -67 187 c 1
 -45 118 -1 83 63 83 c 0xbc
 83 83 106 87 131 94 c 0
 188 110 231 118 261 118 c 1x7c
EndSplineSet
Validated: 1
Ligature2: "'vatu' Vattu Variants in Bengali lookup 7 subtable" u099d u09b0_u09cd.blwf
EndChar

